G75*
%MOIN*%
%OFA0B0*%
%FSLAX24Y24*%
%IPPOS*%
%LPD*%
%AMOC8*
5,1,8,0,0,1.08239X$1,22.5*
%
%ADD10C,0.0150*%
%ADD11C,0.0079*%
%ADD12C,0.0060*%
%ADD13C,0.0050*%
%ADD14C,0.0040*%
%ADD15C,0.0030*%
%ADD16C,0.0080*%
%ADD17C,0.0020*%
%ADD18C,0.0100*%
%ADD19C,0.0240*%
%ADD20R,0.0059X0.0118*%
%ADD21R,0.0118X0.0118*%
%ADD22C,0.0070*%
D10*
X001699Y014927D02*
X003051Y014927D01*
X003051Y015828D01*
X002825Y016308D02*
X003051Y016533D01*
X003051Y016984D01*
X002825Y017209D01*
X002600Y017209D01*
X002375Y016984D01*
X002375Y016533D01*
X002150Y016308D01*
X001925Y016308D01*
X001699Y016533D01*
X001699Y016984D01*
X001925Y017209D01*
X001699Y017689D02*
X001699Y018365D01*
X001925Y018590D01*
X002375Y018590D01*
X002600Y018365D01*
X002600Y017689D01*
X003051Y017689D02*
X001699Y017689D01*
X001925Y019071D02*
X001699Y019296D01*
X001699Y019746D01*
X001925Y019971D01*
X002150Y019971D01*
X002375Y019746D01*
X002600Y019971D01*
X002825Y019971D01*
X003051Y019746D01*
X003051Y019296D01*
X002825Y019071D01*
X002375Y019521D02*
X002375Y019746D01*
X001925Y020452D02*
X001699Y020677D01*
X001699Y021127D01*
X001925Y021353D01*
X002150Y021353D01*
X003051Y020452D01*
X003051Y021353D01*
X003051Y023214D02*
X001699Y023214D01*
X002600Y023665D02*
X003051Y024115D01*
X001699Y024115D01*
X002600Y023665D02*
X003051Y023214D01*
X002825Y024595D02*
X002375Y024595D01*
X002150Y024820D01*
X002150Y025271D01*
X002375Y025496D01*
X002600Y025496D01*
X002600Y024595D01*
X002825Y024595D02*
X003051Y024820D01*
X003051Y025271D01*
X003051Y025976D02*
X001699Y025976D01*
X002150Y025976D02*
X002150Y026652D01*
X002375Y026877D01*
X002825Y026877D01*
X003051Y026652D01*
X003051Y025976D01*
X003051Y028739D02*
X001699Y028739D01*
X001699Y029414D01*
X001925Y029640D01*
X002375Y029640D01*
X002600Y029414D01*
X002600Y028739D01*
X002600Y029189D02*
X003051Y029640D01*
X002825Y030120D02*
X002600Y030345D01*
X002600Y031021D01*
X002375Y031021D02*
X003051Y031021D01*
X003051Y030345D01*
X002825Y030120D01*
X002150Y030345D02*
X002150Y030796D01*
X002375Y031021D01*
X002375Y031501D02*
X002150Y031726D01*
X002150Y032402D01*
X001699Y032402D02*
X003051Y032402D01*
X003051Y031726D01*
X002825Y031501D01*
X002375Y031501D01*
X002150Y032882D02*
X002150Y033108D01*
X003051Y033108D01*
X003051Y033333D02*
X003051Y032882D01*
X002825Y033803D02*
X002375Y033803D01*
X002150Y034028D01*
X002150Y034479D01*
X002375Y034704D01*
X002825Y034704D01*
X003051Y034479D01*
X003051Y034028D01*
X002825Y033803D01*
X001699Y033108D02*
X001474Y033108D01*
X001699Y015828D02*
X001699Y014927D01*
X002375Y014927D02*
X002375Y015377D01*
D11*
X038404Y014538D02*
X038404Y014341D01*
X039427Y014341D01*
X039427Y014538D01*
X039427Y018561D02*
X038404Y018561D01*
X038404Y018758D01*
X039427Y018758D02*
X039427Y018561D01*
X063118Y018431D02*
X063118Y018027D01*
X063118Y017634D02*
X063118Y017230D01*
X063118Y016836D02*
X063118Y016433D01*
X063118Y016039D02*
X063118Y015636D01*
X063118Y015242D02*
X063118Y014838D01*
X063118Y014445D02*
X063118Y014041D01*
X063118Y013647D02*
X063118Y013244D01*
X063118Y012850D02*
X063118Y012447D01*
X063118Y012053D02*
X063118Y011649D01*
X063118Y011256D02*
X063118Y010852D01*
X063118Y018824D02*
X063118Y019228D01*
X063118Y019622D02*
X063118Y020025D01*
X063118Y020419D02*
X063118Y020823D01*
X063118Y021216D02*
X063118Y021620D01*
X063118Y022013D02*
X063118Y022417D01*
X063118Y022811D02*
X063118Y023214D01*
X063118Y023608D02*
X063118Y024011D01*
X063118Y024405D02*
X063118Y024809D01*
X063118Y025202D02*
X063118Y025606D01*
X063118Y026000D02*
X063118Y026403D01*
X063118Y026797D02*
X063118Y027200D01*
X063118Y027594D02*
X063118Y027998D01*
X063118Y028391D02*
X063118Y028795D01*
X063118Y029189D02*
X063118Y029592D01*
X063118Y029986D02*
X063118Y030389D01*
X063118Y030783D02*
X063118Y031187D01*
X063118Y031580D02*
X063118Y031984D01*
X063118Y032378D02*
X063118Y032781D01*
X063118Y033175D02*
X063118Y033578D01*
X063118Y033972D02*
X063118Y034376D01*
X063118Y034769D02*
X063118Y035173D01*
X063118Y035567D02*
X063118Y035970D01*
X063118Y036364D02*
X063118Y036767D01*
X063118Y037161D02*
X063118Y037565D01*
X063118Y037958D02*
X063118Y038362D01*
X063118Y038756D02*
X063118Y039159D01*
X063118Y039553D02*
X063118Y039956D01*
X063118Y040350D02*
X063118Y040754D01*
X063118Y041147D02*
X063118Y041551D01*
X063118Y041945D02*
X063118Y042348D01*
D12*
X009106Y011426D02*
X009104Y011452D01*
X009099Y011478D01*
X009091Y011503D01*
X009079Y011526D01*
X009065Y011548D01*
X009047Y011567D01*
X009028Y011585D01*
X009006Y011599D01*
X008983Y011611D01*
X008958Y011619D01*
X008932Y011624D01*
X008906Y011626D01*
X008856Y011726D02*
X009856Y011726D01*
X009906Y011426D02*
X009106Y011426D01*
X010206Y012376D02*
X010206Y014226D01*
X011306Y014226D02*
X011306Y012376D01*
X011656Y011726D02*
X012656Y011726D01*
X012606Y011626D02*
X012580Y011624D01*
X012554Y011619D01*
X012529Y011611D01*
X012506Y011599D01*
X012484Y011585D01*
X012465Y011567D01*
X012447Y011548D01*
X012433Y011526D01*
X012421Y011503D01*
X012413Y011478D01*
X012408Y011452D01*
X012406Y011426D01*
X011606Y011426D01*
X014367Y011726D02*
X015367Y011726D01*
X015417Y011426D02*
X014617Y011426D01*
X014615Y011452D01*
X014610Y011478D01*
X014602Y011503D01*
X014590Y011526D01*
X014576Y011548D01*
X014558Y011567D01*
X014539Y011585D01*
X014517Y011599D01*
X014494Y011611D01*
X014469Y011619D01*
X014443Y011624D01*
X014417Y011626D01*
X015717Y012376D02*
X015717Y014226D01*
X016817Y014226D02*
X016817Y012376D01*
X017167Y011726D02*
X018167Y011726D01*
X018117Y011626D02*
X018091Y011624D01*
X018065Y011619D01*
X018040Y011611D01*
X018017Y011599D01*
X017995Y011585D01*
X017976Y011567D01*
X017958Y011548D01*
X017944Y011526D01*
X017932Y011503D01*
X017924Y011478D01*
X017919Y011452D01*
X017917Y011426D01*
X017117Y011426D01*
X016333Y015592D02*
X016099Y015826D01*
X016216Y015826D02*
X015866Y015826D01*
X015866Y015592D02*
X015866Y016293D01*
X016216Y016293D01*
X016333Y016176D01*
X016333Y015942D01*
X016216Y015826D01*
X010973Y015622D02*
X010506Y015622D01*
X010506Y016323D01*
X005762Y016085D02*
X005262Y016085D01*
X005262Y016335D01*
X005345Y016419D01*
X005512Y016419D01*
X005596Y016335D01*
X005596Y016085D01*
X005596Y015908D02*
X005512Y015825D01*
X005179Y015825D01*
X005262Y015908D02*
X005262Y015741D01*
X005262Y015564D02*
X005262Y015398D01*
X005179Y015481D02*
X005512Y015481D01*
X005596Y015564D01*
X005596Y015216D02*
X005345Y015216D01*
X005262Y015132D01*
X005262Y014965D01*
X005345Y014882D01*
X005095Y014882D02*
X005596Y014882D01*
X004596Y014882D02*
X004095Y014882D01*
X004095Y015132D01*
X004179Y015216D01*
X004345Y015216D01*
X004429Y015132D01*
X004429Y014882D01*
X004512Y015398D02*
X004596Y015481D01*
X004596Y015648D01*
X004512Y015731D01*
X004596Y015913D02*
X004596Y016164D01*
X004512Y016247D01*
X004429Y016247D01*
X004345Y016164D01*
X004345Y015913D01*
X004179Y015731D02*
X004095Y015648D01*
X004095Y015481D01*
X004179Y015398D01*
X004512Y015398D01*
X004596Y015913D02*
X004095Y015913D01*
X004095Y016164D01*
X004179Y016247D01*
X004262Y016247D01*
X004345Y016164D01*
X004429Y016945D02*
X004429Y017195D01*
X004345Y017278D01*
X004179Y017278D01*
X004095Y017195D01*
X004095Y016945D01*
X004596Y016945D01*
X004429Y017111D02*
X004596Y017278D01*
X004512Y017460D02*
X004345Y017460D01*
X004262Y017544D01*
X004262Y017710D01*
X004345Y017794D01*
X004429Y017794D01*
X004429Y017460D01*
X004512Y017460D02*
X004596Y017544D01*
X004596Y017710D01*
X004262Y017976D02*
X004596Y018143D01*
X004262Y018310D01*
X005095Y018224D02*
X005596Y017890D01*
X005596Y017374D02*
X005095Y017708D01*
X005262Y017200D02*
X005345Y017200D01*
X005345Y017116D01*
X005262Y017116D01*
X005262Y017200D01*
X005512Y017200D02*
X005596Y017200D01*
X005596Y017116D01*
X005512Y017116D01*
X005512Y017200D01*
X005512Y016934D02*
X005429Y016851D01*
X005429Y016684D01*
X005345Y016601D01*
X005262Y016684D01*
X005262Y016934D01*
X005512Y016934D02*
X005596Y016851D01*
X005596Y016601D01*
X005512Y018406D02*
X005596Y018489D01*
X005596Y018739D01*
X005679Y018739D02*
X005262Y018739D01*
X005262Y018489D01*
X005345Y018406D01*
X005512Y018406D01*
X005762Y018572D02*
X005762Y018656D01*
X005679Y018739D01*
X005596Y018921D02*
X005596Y019088D01*
X005596Y019005D02*
X005262Y019005D01*
X005262Y018921D01*
X005095Y019005D02*
X005012Y019005D01*
X005262Y019265D02*
X005262Y019432D01*
X005179Y019348D02*
X005512Y019348D01*
X005596Y019432D01*
X005596Y019609D02*
X005095Y019609D01*
X005262Y019692D02*
X005345Y019609D01*
X005262Y019692D02*
X005262Y019859D01*
X005345Y019942D01*
X005596Y019942D01*
X005512Y020124D02*
X005596Y020208D01*
X005596Y020458D01*
X005262Y020458D01*
X005262Y020640D02*
X005262Y020890D01*
X005345Y020974D01*
X005512Y020974D01*
X005596Y020890D01*
X005596Y020640D01*
X005095Y020640D01*
X004596Y020812D02*
X004095Y020812D01*
X004095Y021146D01*
X004095Y021328D02*
X004596Y021328D01*
X004596Y021661D01*
X004596Y021843D02*
X004596Y022093D01*
X004512Y022177D01*
X004429Y022177D01*
X004345Y022093D01*
X004345Y021843D01*
X004095Y021843D02*
X004596Y021843D01*
X004345Y022093D02*
X004262Y022177D01*
X004179Y022177D01*
X004095Y022093D01*
X004095Y021843D01*
X004095Y021661D02*
X004095Y021328D01*
X004345Y021328D02*
X004345Y021494D01*
X005262Y021497D02*
X005345Y021413D01*
X005512Y021413D01*
X005596Y021497D01*
X005596Y021747D01*
X005512Y021929D02*
X005596Y022013D01*
X005596Y022179D01*
X005512Y022263D01*
X005345Y022263D01*
X005262Y022179D01*
X005262Y022013D01*
X005345Y021929D01*
X005512Y021929D01*
X005262Y021747D02*
X005262Y021497D01*
X005512Y021239D02*
X005596Y021239D01*
X005596Y021156D01*
X005512Y021156D01*
X005512Y021239D01*
X004345Y020979D02*
X004345Y020812D01*
X004179Y020114D02*
X004512Y019781D01*
X004596Y019864D01*
X004596Y020031D01*
X004512Y020114D01*
X004179Y020114D01*
X004095Y020031D01*
X004095Y019864D01*
X004179Y019781D01*
X004512Y019781D01*
X004512Y019606D02*
X004596Y019606D01*
X004596Y019523D01*
X004512Y019523D01*
X004512Y019606D01*
X004596Y019341D02*
X004596Y019007D01*
X004596Y019174D02*
X004095Y019174D01*
X004262Y019007D01*
X005262Y020124D02*
X005512Y020124D01*
X005596Y022445D02*
X005262Y022445D01*
X005262Y022528D01*
X005345Y022612D01*
X005262Y022695D01*
X005345Y022778D01*
X005596Y022778D01*
X005596Y022612D02*
X005345Y022612D01*
X005596Y022960D02*
X005095Y023294D01*
X005345Y023476D02*
X005262Y023559D01*
X005262Y023810D01*
X005095Y023810D02*
X005596Y023810D01*
X005596Y023559D01*
X005512Y023476D01*
X005345Y023476D01*
X005262Y023992D02*
X005262Y024325D01*
X005596Y023992D01*
X005596Y024325D01*
X005596Y024507D02*
X005596Y024674D01*
X005596Y024591D02*
X005262Y024591D01*
X005262Y024507D01*
X005095Y024591D02*
X005012Y024591D01*
X005095Y024851D02*
X005596Y024851D01*
X005429Y024851D02*
X005262Y025101D01*
X005262Y025364D02*
X005262Y025531D01*
X005345Y025614D01*
X005596Y025614D01*
X005596Y025364D01*
X005512Y025281D01*
X005429Y025364D01*
X005429Y025614D01*
X005429Y025796D02*
X005262Y026047D01*
X005262Y026226D02*
X005512Y026226D01*
X005596Y026310D01*
X005596Y026560D01*
X005262Y026560D01*
X005262Y026742D02*
X005262Y026992D01*
X005345Y027075D01*
X005596Y027075D01*
X005512Y027257D02*
X005429Y027341D01*
X005429Y027591D01*
X005345Y027591D02*
X005596Y027591D01*
X005596Y027341D01*
X005512Y027257D01*
X005262Y027341D02*
X005262Y027508D01*
X005345Y027591D01*
X004762Y027594D02*
X004679Y027677D01*
X004262Y027677D01*
X004262Y027427D01*
X004345Y027343D01*
X004512Y027343D01*
X004596Y027427D01*
X004596Y027677D01*
X004762Y027594D02*
X004762Y027510D01*
X004512Y027161D02*
X004345Y027161D01*
X004262Y027078D01*
X004262Y026828D01*
X004095Y026828D02*
X004596Y026828D01*
X004596Y027078D01*
X004512Y027161D01*
X004512Y026646D02*
X004345Y026646D01*
X004262Y026562D01*
X004262Y026395D01*
X004345Y026312D01*
X004512Y026312D01*
X004596Y026395D01*
X004596Y026562D01*
X004512Y026646D01*
X004596Y026130D02*
X004429Y025963D01*
X004429Y026047D02*
X004429Y025796D01*
X004596Y025796D02*
X004095Y025796D01*
X004095Y026047D01*
X004179Y026130D01*
X004345Y026130D01*
X004429Y026047D01*
X005095Y025796D02*
X005596Y025796D01*
X005429Y025796D02*
X005596Y026047D01*
X005596Y026742D02*
X005262Y026742D01*
X004512Y027859D02*
X004596Y027942D01*
X004596Y028109D01*
X004512Y028193D01*
X004345Y028193D01*
X004262Y028109D01*
X004262Y027942D01*
X004345Y027859D01*
X004512Y027859D01*
X004596Y028375D02*
X004596Y028541D01*
X004596Y028458D02*
X004095Y028458D01*
X004095Y028375D01*
X004345Y028718D02*
X004262Y028802D01*
X004262Y029052D01*
X004095Y029052D02*
X004596Y029052D01*
X004596Y028802D01*
X004512Y028718D01*
X004345Y028718D01*
X004512Y029317D02*
X004596Y029317D01*
X004596Y029401D01*
X004512Y029401D01*
X004512Y029317D01*
X004596Y029401D02*
X004762Y029234D01*
X004512Y030609D02*
X004596Y030692D01*
X004596Y030859D01*
X004512Y030943D01*
X004179Y030943D01*
X004095Y030859D01*
X004095Y030692D01*
X004179Y030609D01*
X004512Y030609D01*
X004429Y031125D02*
X004429Y031375D01*
X004345Y031458D01*
X004179Y031458D01*
X004095Y031375D01*
X004095Y031125D01*
X004596Y031125D01*
X004596Y031640D02*
X004095Y031640D01*
X004095Y031974D01*
X004095Y032156D02*
X004596Y032490D01*
X004095Y032490D01*
X004095Y032156D02*
X004596Y032156D01*
X004596Y031974D02*
X004596Y031640D01*
X004345Y031640D02*
X004345Y031807D01*
X004262Y033187D02*
X004345Y033271D01*
X004345Y033437D01*
X004429Y033521D01*
X004512Y033521D01*
X004596Y033437D01*
X004596Y033271D01*
X004512Y033187D01*
X004262Y033187D02*
X004179Y033187D01*
X004095Y033271D01*
X004095Y033437D01*
X004179Y033521D01*
X004179Y033703D02*
X004512Y033703D01*
X004596Y033786D01*
X004596Y033953D01*
X004512Y034037D01*
X004179Y034037D01*
X004095Y033953D01*
X004095Y033786D01*
X004179Y033703D01*
X004095Y034219D02*
X004512Y034219D01*
X004596Y034302D01*
X004596Y034469D01*
X004512Y034552D01*
X004095Y034552D01*
X004095Y034734D02*
X004095Y034984D01*
X004179Y035068D01*
X004345Y035068D01*
X004429Y034984D01*
X004429Y034734D01*
X004596Y034734D02*
X004095Y034734D01*
X004429Y034901D02*
X004596Y035068D01*
X004512Y035250D02*
X004596Y035333D01*
X004596Y035500D01*
X004512Y035583D01*
X004596Y035765D02*
X004095Y035765D01*
X004095Y036099D01*
X004345Y035932D02*
X004345Y035765D01*
X004179Y035583D02*
X004095Y035500D01*
X004095Y035333D01*
X004179Y035250D01*
X004512Y035250D01*
X004596Y035765D02*
X004596Y036099D01*
X001925Y040380D02*
X001927Y040453D01*
X001933Y040526D01*
X001943Y040598D01*
X001957Y040670D01*
X001974Y040741D01*
X001996Y040811D01*
X002021Y040880D01*
X002050Y040947D01*
X002082Y041012D01*
X002118Y041076D01*
X002158Y041138D01*
X002200Y041197D01*
X002246Y041254D01*
X002295Y041308D01*
X002347Y041360D01*
X002401Y041409D01*
X002458Y041455D01*
X002517Y041497D01*
X002579Y041537D01*
X002643Y041573D01*
X002708Y041605D01*
X002775Y041634D01*
X002844Y041659D01*
X002914Y041681D01*
X002985Y041698D01*
X003057Y041712D01*
X003129Y041722D01*
X003202Y041728D01*
X003275Y041730D01*
X003348Y041728D01*
X003421Y041722D01*
X003493Y041712D01*
X003565Y041698D01*
X003636Y041681D01*
X003706Y041659D01*
X003775Y041634D01*
X003842Y041605D01*
X003907Y041573D01*
X003971Y041537D01*
X004033Y041497D01*
X004092Y041455D01*
X004149Y041409D01*
X004203Y041360D01*
X004255Y041308D01*
X004304Y041254D01*
X004350Y041197D01*
X004392Y041138D01*
X004432Y041076D01*
X004468Y041012D01*
X004500Y040947D01*
X004529Y040880D01*
X004554Y040811D01*
X004576Y040741D01*
X004593Y040670D01*
X004607Y040598D01*
X004617Y040526D01*
X004623Y040453D01*
X004625Y040380D01*
X004623Y040307D01*
X004617Y040234D01*
X004607Y040162D01*
X004593Y040090D01*
X004576Y040019D01*
X004554Y039949D01*
X004529Y039880D01*
X004500Y039813D01*
X004468Y039748D01*
X004432Y039684D01*
X004392Y039622D01*
X004350Y039563D01*
X004304Y039506D01*
X004255Y039452D01*
X004203Y039400D01*
X004149Y039351D01*
X004092Y039305D01*
X004033Y039263D01*
X003971Y039223D01*
X003907Y039187D01*
X003842Y039155D01*
X003775Y039126D01*
X003706Y039101D01*
X003636Y039079D01*
X003565Y039062D01*
X003493Y039048D01*
X003421Y039038D01*
X003348Y039032D01*
X003275Y039030D01*
X003202Y039032D01*
X003129Y039038D01*
X003057Y039048D01*
X002985Y039062D01*
X002914Y039079D01*
X002844Y039101D01*
X002775Y039126D01*
X002708Y039155D01*
X002643Y039187D01*
X002579Y039223D01*
X002517Y039263D01*
X002458Y039305D01*
X002401Y039351D01*
X002347Y039400D01*
X002295Y039452D01*
X002246Y039506D01*
X002200Y039563D01*
X002158Y039622D01*
X002118Y039684D01*
X002082Y039748D01*
X002050Y039813D01*
X002021Y039880D01*
X001996Y039949D01*
X001974Y040019D01*
X001957Y040090D01*
X001943Y040162D01*
X001933Y040234D01*
X001927Y040307D01*
X001925Y040380D01*
X017226Y026902D02*
X017226Y025802D01*
X017228Y025785D01*
X017232Y025768D01*
X017239Y025752D01*
X017249Y025738D01*
X017262Y025725D01*
X017276Y025715D01*
X017292Y025708D01*
X017309Y025704D01*
X017326Y025702D01*
X017926Y025702D01*
X017943Y025704D01*
X017960Y025708D01*
X017976Y025715D01*
X017990Y025725D01*
X018003Y025738D01*
X018013Y025752D01*
X018020Y025768D01*
X018024Y025785D01*
X018026Y025802D01*
X018026Y026902D01*
X018024Y026919D01*
X018020Y026936D01*
X018013Y026952D01*
X018003Y026966D01*
X017990Y026979D01*
X017976Y026989D01*
X017960Y026996D01*
X017943Y027000D01*
X017926Y027002D01*
X017326Y027002D01*
X017309Y027000D01*
X017292Y026996D01*
X017276Y026989D01*
X017262Y026979D01*
X017249Y026966D01*
X017239Y026952D01*
X017232Y026936D01*
X017228Y026919D01*
X017226Y026902D01*
X018226Y026902D02*
X018226Y025802D01*
X018228Y025785D01*
X018232Y025768D01*
X018239Y025752D01*
X018249Y025738D01*
X018262Y025725D01*
X018276Y025715D01*
X018292Y025708D01*
X018309Y025704D01*
X018326Y025702D01*
X018926Y025702D01*
X018943Y025704D01*
X018960Y025708D01*
X018976Y025715D01*
X018990Y025725D01*
X019003Y025738D01*
X019013Y025752D01*
X019020Y025768D01*
X019024Y025785D01*
X019026Y025802D01*
X019026Y026902D01*
X019024Y026919D01*
X019020Y026936D01*
X019013Y026952D01*
X019003Y026966D01*
X018990Y026979D01*
X018976Y026989D01*
X018960Y026996D01*
X018943Y027000D01*
X018926Y027002D01*
X018326Y027002D01*
X018309Y027000D01*
X018292Y026996D01*
X018276Y026989D01*
X018262Y026979D01*
X018249Y026966D01*
X018239Y026952D01*
X018232Y026936D01*
X018228Y026919D01*
X018226Y026902D01*
X019226Y026902D02*
X019226Y025802D01*
X019228Y025785D01*
X019232Y025768D01*
X019239Y025752D01*
X019249Y025738D01*
X019262Y025725D01*
X019276Y025715D01*
X019292Y025708D01*
X019309Y025704D01*
X019326Y025702D01*
X019926Y025702D01*
X019943Y025704D01*
X019960Y025708D01*
X019976Y025715D01*
X019990Y025725D01*
X020003Y025738D01*
X020013Y025752D01*
X020020Y025768D01*
X020024Y025785D01*
X020026Y025802D01*
X020026Y026902D01*
X020024Y026919D01*
X020020Y026936D01*
X020013Y026952D01*
X020003Y026966D01*
X019990Y026979D01*
X019976Y026989D01*
X019960Y026996D01*
X019943Y027000D01*
X019926Y027002D01*
X019326Y027002D01*
X019309Y027000D01*
X019292Y026996D01*
X019276Y026989D01*
X019262Y026979D01*
X019249Y026966D01*
X019239Y026952D01*
X019232Y026936D01*
X019228Y026919D01*
X019226Y026902D01*
X020226Y026902D02*
X020226Y025802D01*
X020228Y025785D01*
X020232Y025768D01*
X020239Y025752D01*
X020249Y025738D01*
X020262Y025725D01*
X020276Y025715D01*
X020292Y025708D01*
X020309Y025704D01*
X020326Y025702D01*
X020926Y025702D01*
X020943Y025704D01*
X020960Y025708D01*
X020976Y025715D01*
X020990Y025725D01*
X021003Y025738D01*
X021013Y025752D01*
X021020Y025768D01*
X021024Y025785D01*
X021026Y025802D01*
X021026Y026902D01*
X021024Y026919D01*
X021020Y026936D01*
X021013Y026952D01*
X021003Y026966D01*
X020990Y026979D01*
X020976Y026989D01*
X020960Y026996D01*
X020943Y027000D01*
X020926Y027002D01*
X020326Y027002D01*
X020309Y027000D01*
X020292Y026996D01*
X020276Y026989D01*
X020262Y026979D01*
X020249Y026966D01*
X020239Y026952D01*
X020232Y026936D01*
X020228Y026919D01*
X020226Y026902D01*
X029126Y026852D02*
X029126Y026352D01*
X029376Y026102D01*
X029126Y025852D01*
X029126Y025352D01*
X029376Y025102D01*
X029126Y024852D01*
X029126Y024352D01*
X029376Y024102D01*
X029126Y023852D01*
X029126Y023352D01*
X029376Y023102D01*
X029126Y022852D01*
X029126Y022352D01*
X029376Y022102D01*
X029126Y021852D01*
X029126Y021352D01*
X029376Y021102D01*
X029126Y020852D01*
X029126Y020352D01*
X029376Y020102D01*
X030376Y020102D01*
X030626Y020352D01*
X030626Y020852D01*
X030376Y021102D01*
X030626Y021352D01*
X030626Y021852D01*
X030376Y022102D01*
X030626Y022352D01*
X030626Y022852D01*
X030376Y023102D01*
X030626Y023352D01*
X030626Y023852D01*
X030376Y024102D01*
X030626Y024352D01*
X030626Y024852D01*
X030376Y025102D01*
X030626Y025352D01*
X030626Y025852D01*
X030376Y026102D01*
X030626Y026352D01*
X030626Y026852D01*
X030376Y027102D01*
X030626Y027352D01*
X030626Y027852D01*
X030376Y028102D01*
X030626Y028352D01*
X030626Y028852D01*
X030376Y029102D01*
X030626Y029352D01*
X030626Y029852D01*
X030376Y030102D01*
X030626Y030352D01*
X030626Y030852D01*
X030376Y031102D01*
X030626Y031352D01*
X030626Y031852D01*
X030376Y032102D01*
X030626Y032352D01*
X030626Y032852D01*
X030376Y033102D01*
X030626Y033352D01*
X030626Y033852D01*
X030376Y034102D01*
X030626Y034352D01*
X030626Y034852D01*
X030376Y035102D01*
X030626Y035352D01*
X030626Y035852D01*
X030376Y036102D01*
X030626Y036352D01*
X030626Y036852D01*
X030376Y037102D01*
X030626Y037352D01*
X030626Y037852D01*
X030376Y038102D01*
X030626Y038352D01*
X030626Y038852D01*
X030376Y039102D01*
X030626Y039352D01*
X030626Y039852D01*
X030376Y040102D01*
X030626Y040352D01*
X030626Y040852D01*
X030376Y041102D01*
X030626Y041352D01*
X030626Y041852D01*
X030376Y042102D01*
X029376Y042102D01*
X029126Y041852D01*
X029126Y041352D01*
X029376Y041102D01*
X029126Y040852D01*
X029126Y040352D01*
X029376Y040102D01*
X029126Y039852D01*
X029126Y039352D01*
X029376Y039102D01*
X029126Y038852D01*
X029126Y038352D01*
X029376Y038102D01*
X029126Y037852D01*
X029126Y037352D01*
X029376Y037102D01*
X029126Y036852D01*
X029126Y036352D01*
X029376Y036102D01*
X029126Y035852D01*
X029126Y035352D01*
X029376Y035102D01*
X029126Y034852D01*
X029126Y034352D01*
X029376Y034102D01*
X029126Y033852D01*
X029126Y033352D01*
X029376Y033102D01*
X029126Y032852D01*
X029126Y032352D01*
X029376Y032102D01*
X030376Y032102D01*
X029376Y032102D01*
X029126Y031852D01*
X029126Y031352D01*
X029376Y031102D01*
X029126Y030852D01*
X029126Y030352D01*
X029376Y030102D01*
X029126Y029852D01*
X029126Y029352D01*
X029376Y029102D01*
X029126Y028852D01*
X029126Y028352D01*
X029376Y028102D01*
X029126Y027852D01*
X029126Y027352D01*
X029376Y027102D01*
X029126Y026852D01*
X035955Y028382D02*
X036596Y028382D01*
X036596Y028809D01*
X036489Y029027D02*
X036596Y029133D01*
X036596Y029347D01*
X036489Y029454D01*
X036382Y029454D01*
X036275Y029347D01*
X036275Y029133D01*
X036169Y029027D01*
X036062Y029027D01*
X035955Y029133D01*
X035955Y029347D01*
X036062Y029454D01*
X035955Y029671D02*
X035955Y029991D01*
X036062Y030098D01*
X036275Y030098D01*
X036382Y029991D01*
X036382Y029671D01*
X036596Y029671D02*
X035955Y029671D01*
X036062Y030316D02*
X035955Y030422D01*
X035955Y030636D01*
X036062Y030743D01*
X036169Y030743D01*
X036275Y030636D01*
X036382Y030743D01*
X036489Y030743D01*
X036596Y030636D01*
X036596Y030422D01*
X036489Y030316D01*
X036275Y030529D02*
X036275Y030636D01*
X036062Y030960D02*
X035955Y031067D01*
X035955Y031281D01*
X036062Y031387D01*
X036169Y031387D01*
X036596Y030960D01*
X036596Y031387D01*
X036275Y031605D02*
X036275Y032032D01*
X036169Y032249D02*
X036275Y032356D01*
X036275Y032570D01*
X036382Y032676D01*
X036489Y032676D01*
X036596Y032570D01*
X036596Y032356D01*
X036489Y032249D01*
X036169Y032249D02*
X036062Y032249D01*
X035955Y032356D01*
X035955Y032570D01*
X036062Y032676D01*
X036062Y032894D02*
X035955Y033001D01*
X035955Y033214D01*
X036062Y033321D01*
X036169Y033321D01*
X036275Y033214D01*
X036382Y033321D01*
X036489Y033321D01*
X036596Y033214D01*
X036596Y033001D01*
X036489Y032894D01*
X036275Y033107D02*
X036275Y033214D01*
X042126Y033352D02*
X042126Y033852D01*
X042376Y034102D01*
X042126Y034352D01*
X042126Y034852D01*
X042376Y035102D01*
X042126Y035352D01*
X042126Y035852D01*
X042376Y036102D01*
X042126Y036352D01*
X042126Y036852D01*
X042376Y037102D01*
X042126Y037352D01*
X042126Y037852D01*
X042376Y038102D01*
X042126Y038352D01*
X042126Y038852D01*
X042376Y039102D01*
X042126Y039352D01*
X042126Y039852D01*
X042376Y040102D01*
X042126Y040352D01*
X042126Y040852D01*
X042376Y041102D01*
X042126Y041352D01*
X042126Y041852D01*
X042376Y042102D01*
X043376Y042102D01*
X043626Y041852D01*
X043626Y041352D01*
X043376Y041102D01*
X043626Y040852D01*
X043626Y040352D01*
X043376Y040102D01*
X043626Y039852D01*
X043626Y039352D01*
X043376Y039102D01*
X043626Y038852D01*
X043626Y038352D01*
X043376Y038102D01*
X043626Y037852D01*
X043626Y037352D01*
X043376Y037102D01*
X043626Y036852D01*
X043626Y036352D01*
X043376Y036102D01*
X043626Y035852D01*
X043626Y035352D01*
X043376Y035102D01*
X043626Y034852D01*
X043626Y034352D01*
X043376Y034102D01*
X043626Y033852D01*
X043626Y033352D01*
X043376Y033102D01*
X043626Y032852D01*
X043626Y032352D01*
X043376Y032102D01*
X042376Y032102D01*
X042126Y032352D01*
X042126Y032852D01*
X042376Y033102D01*
X042126Y033352D01*
X042376Y032102D02*
X042126Y031852D01*
X042126Y031352D01*
X042376Y031102D01*
X042126Y030852D01*
X042126Y030352D01*
X042376Y030102D01*
X042126Y029852D01*
X042126Y029352D01*
X042376Y029102D01*
X042126Y028852D01*
X042126Y028352D01*
X042376Y028102D01*
X042126Y027852D01*
X042126Y027352D01*
X042376Y027102D01*
X042126Y026852D01*
X042126Y026352D01*
X042376Y026102D01*
X042126Y025852D01*
X042126Y025352D01*
X042376Y025102D01*
X042126Y024852D01*
X042126Y024352D01*
X042376Y024102D01*
X042126Y023852D01*
X042126Y023352D01*
X042376Y023102D01*
X042126Y022852D01*
X042126Y022352D01*
X042376Y022102D01*
X042126Y021852D01*
X042126Y021352D01*
X042376Y021102D01*
X042126Y020852D01*
X042126Y020352D01*
X042376Y020102D01*
X043376Y020102D01*
X043626Y020352D01*
X043626Y020852D01*
X043376Y021102D01*
X043626Y021352D01*
X043626Y021852D01*
X043376Y022102D01*
X043626Y022352D01*
X043626Y022852D01*
X043376Y023102D01*
X043626Y023352D01*
X043626Y023852D01*
X043376Y024102D01*
X043626Y024352D01*
X043626Y024852D01*
X043376Y025102D01*
X043626Y025352D01*
X043626Y025852D01*
X043376Y026102D01*
X043626Y026352D01*
X043626Y026852D01*
X043376Y027102D01*
X043626Y027352D01*
X043626Y027852D01*
X043376Y028102D01*
X043626Y028352D01*
X043626Y028852D01*
X043376Y029102D01*
X043626Y029352D01*
X043626Y029852D01*
X043376Y030102D01*
X043626Y030352D01*
X043626Y030852D01*
X043376Y031102D01*
X043626Y031352D01*
X043626Y031852D01*
X043376Y032102D01*
X042376Y032102D01*
X044886Y028952D02*
X045486Y028952D01*
X045503Y028950D01*
X045520Y028946D01*
X045536Y028939D01*
X045550Y028929D01*
X045563Y028916D01*
X045573Y028902D01*
X045580Y028886D01*
X045584Y028869D01*
X045586Y028852D01*
X045586Y027152D01*
X045584Y027135D01*
X045580Y027118D01*
X045573Y027102D01*
X045563Y027088D01*
X045550Y027075D01*
X045536Y027065D01*
X045520Y027058D01*
X045503Y027054D01*
X045486Y027052D01*
X044886Y027052D01*
X044869Y027054D01*
X044852Y027058D01*
X044836Y027065D01*
X044822Y027075D01*
X044809Y027088D01*
X044799Y027102D01*
X044792Y027118D01*
X044788Y027135D01*
X044786Y027152D01*
X044786Y028852D01*
X044788Y028869D01*
X044792Y028886D01*
X044799Y028902D01*
X044809Y028916D01*
X044822Y028929D01*
X044836Y028939D01*
X044852Y028946D01*
X044869Y028950D01*
X044886Y028952D01*
X036275Y028596D02*
X036275Y028382D01*
X035955Y028382D02*
X035955Y028809D01*
X028813Y034621D02*
X028813Y034705D01*
X028729Y034788D01*
X028312Y034788D01*
X028312Y034705D02*
X028312Y034872D01*
X028396Y035054D02*
X028312Y035137D01*
X028312Y035304D01*
X028396Y035387D01*
X028729Y035387D01*
X028813Y035304D01*
X028813Y035137D01*
X028729Y035054D01*
X028396Y035054D01*
X028396Y035569D02*
X028312Y035569D01*
X028396Y035569D02*
X028563Y035736D01*
X028813Y035736D01*
X028563Y035736D02*
X028396Y035903D01*
X028312Y035903D01*
X028813Y034621D02*
X028729Y034538D01*
X046273Y037911D02*
X046356Y037828D01*
X046523Y037828D01*
X046607Y037911D01*
X046607Y038245D01*
X046523Y038328D01*
X046356Y038328D01*
X046273Y038245D01*
X046273Y037911D01*
X046789Y037828D02*
X046789Y038328D01*
X046789Y037828D02*
X047122Y037828D01*
X047304Y037828D02*
X047638Y037828D01*
X047820Y037828D02*
X047820Y038328D01*
X048070Y038328D01*
X048154Y038245D01*
X048154Y037911D01*
X048070Y037828D01*
X047820Y037828D01*
X047471Y038078D02*
X047304Y038078D01*
X047304Y038328D02*
X047304Y037828D01*
X047304Y038328D02*
X047638Y038328D01*
X058618Y040380D02*
X058620Y040453D01*
X058626Y040526D01*
X058636Y040598D01*
X058650Y040670D01*
X058667Y040741D01*
X058689Y040811D01*
X058714Y040880D01*
X058743Y040947D01*
X058775Y041012D01*
X058811Y041076D01*
X058851Y041138D01*
X058893Y041197D01*
X058939Y041254D01*
X058988Y041308D01*
X059040Y041360D01*
X059094Y041409D01*
X059151Y041455D01*
X059210Y041497D01*
X059272Y041537D01*
X059336Y041573D01*
X059401Y041605D01*
X059468Y041634D01*
X059537Y041659D01*
X059607Y041681D01*
X059678Y041698D01*
X059750Y041712D01*
X059822Y041722D01*
X059895Y041728D01*
X059968Y041730D01*
X060041Y041728D01*
X060114Y041722D01*
X060186Y041712D01*
X060258Y041698D01*
X060329Y041681D01*
X060399Y041659D01*
X060468Y041634D01*
X060535Y041605D01*
X060600Y041573D01*
X060664Y041537D01*
X060726Y041497D01*
X060785Y041455D01*
X060842Y041409D01*
X060896Y041360D01*
X060948Y041308D01*
X060997Y041254D01*
X061043Y041197D01*
X061085Y041138D01*
X061125Y041076D01*
X061161Y041012D01*
X061193Y040947D01*
X061222Y040880D01*
X061247Y040811D01*
X061269Y040741D01*
X061286Y040670D01*
X061300Y040598D01*
X061310Y040526D01*
X061316Y040453D01*
X061318Y040380D01*
X061316Y040307D01*
X061310Y040234D01*
X061300Y040162D01*
X061286Y040090D01*
X061269Y040019D01*
X061247Y039949D01*
X061222Y039880D01*
X061193Y039813D01*
X061161Y039748D01*
X061125Y039684D01*
X061085Y039622D01*
X061043Y039563D01*
X060997Y039506D01*
X060948Y039452D01*
X060896Y039400D01*
X060842Y039351D01*
X060785Y039305D01*
X060726Y039263D01*
X060664Y039223D01*
X060600Y039187D01*
X060535Y039155D01*
X060468Y039126D01*
X060399Y039101D01*
X060329Y039079D01*
X060258Y039062D01*
X060186Y039048D01*
X060114Y039038D01*
X060041Y039032D01*
X059968Y039030D01*
X059895Y039032D01*
X059822Y039038D01*
X059750Y039048D01*
X059678Y039062D01*
X059607Y039079D01*
X059537Y039101D01*
X059468Y039126D01*
X059401Y039155D01*
X059336Y039187D01*
X059272Y039223D01*
X059210Y039263D01*
X059151Y039305D01*
X059094Y039351D01*
X059040Y039400D01*
X058988Y039452D01*
X058939Y039506D01*
X058893Y039563D01*
X058851Y039622D01*
X058811Y039684D01*
X058775Y039748D01*
X058743Y039813D01*
X058714Y039880D01*
X058689Y039949D01*
X058667Y040019D01*
X058650Y040090D01*
X058636Y040162D01*
X058626Y040234D01*
X058620Y040307D01*
X058618Y040380D01*
X064169Y038083D02*
X064169Y037763D01*
X064275Y037656D01*
X064489Y037656D01*
X064596Y037763D01*
X064596Y038083D01*
X064702Y038083D02*
X064169Y038083D01*
X064702Y038083D02*
X064809Y037976D01*
X064809Y037870D01*
X064596Y037439D02*
X064275Y037439D01*
X064169Y037332D01*
X064169Y037012D01*
X064596Y037012D01*
X064596Y036795D02*
X064596Y036582D01*
X064596Y036689D02*
X064169Y036689D01*
X064169Y036582D01*
X064169Y036364D02*
X064169Y036044D01*
X064275Y035937D01*
X064382Y036044D01*
X064382Y036258D01*
X064489Y036364D01*
X064596Y036258D01*
X064596Y035937D01*
X064596Y035720D02*
X064169Y035720D01*
X064596Y035720D02*
X064596Y035400D01*
X064489Y035293D01*
X064169Y035293D01*
X064275Y035075D02*
X064169Y034969D01*
X064169Y034755D01*
X064275Y034648D01*
X064489Y034648D01*
X064596Y034755D01*
X064596Y034969D01*
X064489Y035075D01*
X064275Y035075D01*
X064275Y034431D02*
X064596Y034431D01*
X064275Y034431D02*
X064169Y034324D01*
X064169Y034110D01*
X064275Y034004D01*
X063955Y034004D02*
X064596Y034004D01*
X064596Y033142D02*
X063955Y033142D01*
X064169Y033142D02*
X064169Y032821D01*
X064275Y032715D01*
X064489Y032715D01*
X064596Y032821D01*
X064596Y033142D01*
X064382Y032497D02*
X064275Y032497D01*
X064169Y032390D01*
X064169Y032177D01*
X064275Y032070D01*
X064489Y032070D01*
X064596Y032177D01*
X064596Y032390D01*
X064382Y032497D02*
X064382Y032070D01*
X064169Y031854D02*
X064169Y031640D01*
X064062Y031747D02*
X064489Y031747D01*
X064596Y031854D01*
X064596Y031423D02*
X064275Y031423D01*
X064169Y031316D01*
X064169Y030996D01*
X064596Y030996D01*
X064596Y030780D02*
X064596Y030566D01*
X064596Y030673D02*
X064169Y030673D01*
X064169Y030566D01*
X064169Y030349D02*
X064169Y030242D01*
X064382Y030029D01*
X064169Y030029D02*
X064596Y030029D01*
X064489Y029811D02*
X064275Y029811D01*
X064169Y029705D01*
X064169Y029384D01*
X064809Y029384D01*
X064596Y029384D02*
X064596Y029705D01*
X064489Y029811D01*
X063955Y030673D02*
X063848Y030673D01*
X064062Y028522D02*
X063955Y028416D01*
X063955Y028095D01*
X064596Y028095D01*
X064596Y028416D01*
X064489Y028522D01*
X064062Y028522D01*
X064062Y027878D02*
X064169Y027878D01*
X064275Y027771D01*
X064382Y027878D01*
X064489Y027878D01*
X064596Y027771D01*
X064596Y027558D01*
X064489Y027451D01*
X064275Y027664D02*
X064275Y027771D01*
X064062Y027878D02*
X063955Y027771D01*
X063955Y027558D01*
X064062Y027451D01*
X064169Y026589D02*
X064169Y026483D01*
X064382Y026269D01*
X064169Y026269D02*
X064596Y026269D01*
X064489Y026052D02*
X064275Y026052D01*
X064169Y025945D01*
X064169Y025731D01*
X064275Y025625D01*
X064489Y025625D01*
X064596Y025731D01*
X064596Y025945D01*
X064489Y026052D01*
X064275Y025408D02*
X064275Y025195D01*
X064062Y025302D02*
X063955Y025408D01*
X064062Y025302D02*
X064596Y025302D01*
X064596Y024333D02*
X064275Y024333D01*
X064169Y024226D01*
X064169Y023906D01*
X064596Y023906D01*
X064489Y023688D02*
X064275Y023688D01*
X064169Y023581D01*
X064169Y023368D01*
X064275Y023261D01*
X064489Y023261D01*
X064596Y023368D01*
X064596Y023581D01*
X064489Y023688D01*
X064596Y023045D02*
X064596Y022831D01*
X064596Y022938D02*
X064169Y022938D01*
X064169Y022831D01*
X064169Y022614D02*
X064169Y022294D01*
X064275Y022187D01*
X064382Y022294D01*
X064382Y022507D01*
X064489Y022614D01*
X064596Y022507D01*
X064596Y022187D01*
X064596Y021971D02*
X064489Y021864D01*
X064062Y021864D01*
X064169Y021757D02*
X064169Y021971D01*
X064275Y021540D02*
X064596Y021540D01*
X064275Y021540D02*
X064169Y021433D01*
X064169Y021113D01*
X064596Y021113D01*
X064382Y020895D02*
X064275Y020895D01*
X064169Y020788D01*
X064169Y020575D01*
X064275Y020468D01*
X064489Y020468D01*
X064596Y020575D01*
X064596Y020788D01*
X064382Y020895D02*
X064382Y020468D01*
X064169Y020252D02*
X064169Y020038D01*
X064062Y020145D02*
X064489Y020145D01*
X064596Y020252D01*
X064596Y019821D02*
X064169Y019394D01*
X064275Y019176D02*
X064382Y019176D01*
X064382Y018749D01*
X064489Y018749D02*
X064275Y018749D01*
X064169Y018856D01*
X064169Y019070D01*
X064275Y019176D01*
X064596Y019070D02*
X064596Y018856D01*
X064489Y018749D01*
X064596Y017887D02*
X064275Y017887D01*
X064169Y017781D01*
X064275Y017674D01*
X064596Y017674D01*
X064596Y017460D02*
X064169Y017460D01*
X064169Y017567D01*
X064275Y017674D01*
X064275Y017243D02*
X064596Y017243D01*
X064596Y017029D02*
X064275Y017029D01*
X064169Y017136D01*
X064275Y017243D01*
X064275Y017029D02*
X064169Y016922D01*
X064169Y016816D01*
X064596Y016816D01*
X064489Y016598D02*
X064596Y016491D01*
X064596Y016278D01*
X064489Y016171D01*
X064275Y016171D02*
X064169Y016385D01*
X064169Y016491D01*
X064275Y016598D01*
X064489Y016598D01*
X064275Y016171D02*
X063955Y016171D01*
X063955Y016598D01*
X063955Y015954D02*
X064062Y015954D01*
X064489Y015527D01*
X064596Y015527D01*
X064596Y015309D02*
X064596Y014882D01*
X064596Y015096D02*
X063955Y015096D01*
X064169Y014882D01*
X063955Y015527D02*
X063955Y015954D01*
X058618Y012821D02*
X058620Y012894D01*
X058626Y012967D01*
X058636Y013039D01*
X058650Y013111D01*
X058667Y013182D01*
X058689Y013252D01*
X058714Y013321D01*
X058743Y013388D01*
X058775Y013453D01*
X058811Y013517D01*
X058851Y013579D01*
X058893Y013638D01*
X058939Y013695D01*
X058988Y013749D01*
X059040Y013801D01*
X059094Y013850D01*
X059151Y013896D01*
X059210Y013938D01*
X059272Y013978D01*
X059336Y014014D01*
X059401Y014046D01*
X059468Y014075D01*
X059537Y014100D01*
X059607Y014122D01*
X059678Y014139D01*
X059750Y014153D01*
X059822Y014163D01*
X059895Y014169D01*
X059968Y014171D01*
X060041Y014169D01*
X060114Y014163D01*
X060186Y014153D01*
X060258Y014139D01*
X060329Y014122D01*
X060399Y014100D01*
X060468Y014075D01*
X060535Y014046D01*
X060600Y014014D01*
X060664Y013978D01*
X060726Y013938D01*
X060785Y013896D01*
X060842Y013850D01*
X060896Y013801D01*
X060948Y013749D01*
X060997Y013695D01*
X061043Y013638D01*
X061085Y013579D01*
X061125Y013517D01*
X061161Y013453D01*
X061193Y013388D01*
X061222Y013321D01*
X061247Y013252D01*
X061269Y013182D01*
X061286Y013111D01*
X061300Y013039D01*
X061310Y012967D01*
X061316Y012894D01*
X061318Y012821D01*
X061316Y012748D01*
X061310Y012675D01*
X061300Y012603D01*
X061286Y012531D01*
X061269Y012460D01*
X061247Y012390D01*
X061222Y012321D01*
X061193Y012254D01*
X061161Y012189D01*
X061125Y012125D01*
X061085Y012063D01*
X061043Y012004D01*
X060997Y011947D01*
X060948Y011893D01*
X060896Y011841D01*
X060842Y011792D01*
X060785Y011746D01*
X060726Y011704D01*
X060664Y011664D01*
X060600Y011628D01*
X060535Y011596D01*
X060468Y011567D01*
X060399Y011542D01*
X060329Y011520D01*
X060258Y011503D01*
X060186Y011489D01*
X060114Y011479D01*
X060041Y011473D01*
X059968Y011471D01*
X059895Y011473D01*
X059822Y011479D01*
X059750Y011489D01*
X059678Y011503D01*
X059607Y011520D01*
X059537Y011542D01*
X059468Y011567D01*
X059401Y011596D01*
X059336Y011628D01*
X059272Y011664D01*
X059210Y011704D01*
X059151Y011746D01*
X059094Y011792D01*
X059040Y011841D01*
X058988Y011893D01*
X058939Y011947D01*
X058893Y012004D01*
X058851Y012063D01*
X058811Y012125D01*
X058775Y012189D01*
X058743Y012254D01*
X058714Y012321D01*
X058689Y012390D01*
X058667Y012460D01*
X058650Y012531D01*
X058636Y012603D01*
X058626Y012675D01*
X058620Y012748D01*
X058618Y012821D01*
X064596Y019394D02*
X064169Y019821D01*
X063955Y022938D02*
X063848Y022938D01*
X048174Y022303D02*
X048090Y022386D01*
X047840Y022386D01*
X047840Y021886D01*
X048090Y021886D01*
X048174Y021969D01*
X048174Y022303D01*
X047658Y022303D02*
X047575Y022386D01*
X047324Y022386D01*
X047324Y021886D01*
X047324Y022053D02*
X047575Y022053D01*
X047658Y022136D01*
X047658Y022303D01*
X047491Y022053D02*
X047658Y021886D01*
X047142Y021886D02*
X047142Y022219D01*
X046976Y022386D01*
X046809Y022219D01*
X046809Y021886D01*
X046627Y021969D02*
X046543Y021886D01*
X046376Y021886D01*
X046293Y021969D01*
X046293Y022303D01*
X046376Y022386D01*
X046543Y022386D01*
X046627Y022303D01*
X046809Y022136D02*
X047142Y022136D01*
X047054Y012840D02*
X047054Y012280D01*
X047054Y011180D02*
X047054Y010850D01*
X043434Y010850D01*
X043434Y011180D01*
X043434Y012280D02*
X043434Y012840D01*
X030272Y012821D02*
X030274Y012894D01*
X030280Y012967D01*
X030290Y013039D01*
X030304Y013111D01*
X030321Y013182D01*
X030343Y013252D01*
X030368Y013321D01*
X030397Y013388D01*
X030429Y013453D01*
X030465Y013517D01*
X030505Y013579D01*
X030547Y013638D01*
X030593Y013695D01*
X030642Y013749D01*
X030694Y013801D01*
X030748Y013850D01*
X030805Y013896D01*
X030864Y013938D01*
X030926Y013978D01*
X030990Y014014D01*
X031055Y014046D01*
X031122Y014075D01*
X031191Y014100D01*
X031261Y014122D01*
X031332Y014139D01*
X031404Y014153D01*
X031476Y014163D01*
X031549Y014169D01*
X031622Y014171D01*
X031695Y014169D01*
X031768Y014163D01*
X031840Y014153D01*
X031912Y014139D01*
X031983Y014122D01*
X032053Y014100D01*
X032122Y014075D01*
X032189Y014046D01*
X032254Y014014D01*
X032318Y013978D01*
X032380Y013938D01*
X032439Y013896D01*
X032496Y013850D01*
X032550Y013801D01*
X032602Y013749D01*
X032651Y013695D01*
X032697Y013638D01*
X032739Y013579D01*
X032779Y013517D01*
X032815Y013453D01*
X032847Y013388D01*
X032876Y013321D01*
X032901Y013252D01*
X032923Y013182D01*
X032940Y013111D01*
X032954Y013039D01*
X032964Y012967D01*
X032970Y012894D01*
X032972Y012821D01*
X032970Y012748D01*
X032964Y012675D01*
X032954Y012603D01*
X032940Y012531D01*
X032923Y012460D01*
X032901Y012390D01*
X032876Y012321D01*
X032847Y012254D01*
X032815Y012189D01*
X032779Y012125D01*
X032739Y012063D01*
X032697Y012004D01*
X032651Y011947D01*
X032602Y011893D01*
X032550Y011841D01*
X032496Y011792D01*
X032439Y011746D01*
X032380Y011704D01*
X032318Y011664D01*
X032254Y011628D01*
X032189Y011596D01*
X032122Y011567D01*
X032053Y011542D01*
X031983Y011520D01*
X031912Y011503D01*
X031840Y011489D01*
X031768Y011479D01*
X031695Y011473D01*
X031622Y011471D01*
X031549Y011473D01*
X031476Y011479D01*
X031404Y011489D01*
X031332Y011503D01*
X031261Y011520D01*
X031191Y011542D01*
X031122Y011567D01*
X031055Y011596D01*
X030990Y011628D01*
X030926Y011664D01*
X030864Y011704D01*
X030805Y011746D01*
X030748Y011792D01*
X030694Y011841D01*
X030642Y011893D01*
X030593Y011947D01*
X030547Y012004D01*
X030505Y012063D01*
X030465Y012125D01*
X030429Y012189D01*
X030397Y012254D01*
X030368Y012321D01*
X030343Y012390D01*
X030321Y012460D01*
X030304Y012531D01*
X030290Y012603D01*
X030280Y012675D01*
X030274Y012748D01*
X030272Y012821D01*
X005596Y025101D02*
X005429Y024851D01*
X004762Y024937D02*
X004596Y025104D01*
X004596Y025020D01*
X004512Y025020D01*
X004512Y025104D01*
X004596Y025104D01*
X004512Y024755D02*
X004596Y024672D01*
X004596Y024505D01*
X004512Y024421D01*
X004345Y024421D02*
X004262Y024588D01*
X004262Y024672D01*
X004345Y024755D01*
X004512Y024755D01*
X004345Y024421D02*
X004095Y024421D01*
X004095Y024755D01*
X004179Y024239D02*
X004095Y024156D01*
X004095Y023989D01*
X004179Y023906D01*
X004179Y023724D02*
X004512Y023390D01*
X004596Y023474D01*
X004596Y023640D01*
X004512Y023724D01*
X004179Y023724D01*
X004095Y023640D01*
X004095Y023474D01*
X004179Y023390D01*
X004512Y023390D01*
X004596Y023208D02*
X004596Y022874D01*
X004262Y023208D01*
X004179Y023208D01*
X004095Y023125D01*
X004095Y022958D01*
X004179Y022874D01*
X004596Y023906D02*
X004262Y024239D01*
X004179Y024239D01*
X004596Y024239D02*
X004596Y023906D01*
X001925Y012821D02*
X001927Y012894D01*
X001933Y012967D01*
X001943Y013039D01*
X001957Y013111D01*
X001974Y013182D01*
X001996Y013252D01*
X002021Y013321D01*
X002050Y013388D01*
X002082Y013453D01*
X002118Y013517D01*
X002158Y013579D01*
X002200Y013638D01*
X002246Y013695D01*
X002295Y013749D01*
X002347Y013801D01*
X002401Y013850D01*
X002458Y013896D01*
X002517Y013938D01*
X002579Y013978D01*
X002643Y014014D01*
X002708Y014046D01*
X002775Y014075D01*
X002844Y014100D01*
X002914Y014122D01*
X002985Y014139D01*
X003057Y014153D01*
X003129Y014163D01*
X003202Y014169D01*
X003275Y014171D01*
X003348Y014169D01*
X003421Y014163D01*
X003493Y014153D01*
X003565Y014139D01*
X003636Y014122D01*
X003706Y014100D01*
X003775Y014075D01*
X003842Y014046D01*
X003907Y014014D01*
X003971Y013978D01*
X004033Y013938D01*
X004092Y013896D01*
X004149Y013850D01*
X004203Y013801D01*
X004255Y013749D01*
X004304Y013695D01*
X004350Y013638D01*
X004392Y013579D01*
X004432Y013517D01*
X004468Y013453D01*
X004500Y013388D01*
X004529Y013321D01*
X004554Y013252D01*
X004576Y013182D01*
X004593Y013111D01*
X004607Y013039D01*
X004617Y012967D01*
X004623Y012894D01*
X004625Y012821D01*
X004623Y012748D01*
X004617Y012675D01*
X004607Y012603D01*
X004593Y012531D01*
X004576Y012460D01*
X004554Y012390D01*
X004529Y012321D01*
X004500Y012254D01*
X004468Y012189D01*
X004432Y012125D01*
X004392Y012063D01*
X004350Y012004D01*
X004304Y011947D01*
X004255Y011893D01*
X004203Y011841D01*
X004149Y011792D01*
X004092Y011746D01*
X004033Y011704D01*
X003971Y011664D01*
X003907Y011628D01*
X003842Y011596D01*
X003775Y011567D01*
X003706Y011542D01*
X003636Y011520D01*
X003565Y011503D01*
X003493Y011489D01*
X003421Y011479D01*
X003348Y011473D01*
X003275Y011471D01*
X003202Y011473D01*
X003129Y011479D01*
X003057Y011489D01*
X002985Y011503D01*
X002914Y011520D01*
X002844Y011542D01*
X002775Y011567D01*
X002708Y011596D01*
X002643Y011628D01*
X002579Y011664D01*
X002517Y011704D01*
X002458Y011746D01*
X002401Y011792D01*
X002347Y011841D01*
X002295Y011893D01*
X002246Y011947D01*
X002200Y012004D01*
X002158Y012063D01*
X002118Y012125D01*
X002082Y012189D01*
X002050Y012254D01*
X002021Y012321D01*
X001996Y012390D01*
X001974Y012460D01*
X001957Y012531D01*
X001943Y012603D01*
X001933Y012675D01*
X001927Y012748D01*
X001925Y012821D01*
X063848Y036689D02*
X063955Y036689D01*
D13*
X041876Y042102D02*
X039876Y042102D01*
X039899Y042126D01*
X039876Y042102D02*
X030876Y042102D01*
X030876Y020102D01*
X041876Y020102D01*
X041876Y042102D01*
X028052Y041982D02*
X028052Y041906D01*
X027751Y041606D01*
X028052Y041606D01*
X028052Y041982D02*
X027976Y042057D01*
X027826Y042057D01*
X027751Y041982D01*
X027591Y042057D02*
X027591Y041606D01*
X027291Y042057D01*
X027291Y041606D01*
X027131Y041606D02*
X026831Y041606D01*
X026831Y042057D01*
X027131Y042057D01*
X026981Y041831D02*
X026831Y041831D01*
X021612Y041607D02*
X021311Y041607D01*
X021461Y041607D02*
X021461Y042057D01*
X021311Y041907D01*
X021151Y042057D02*
X021151Y041607D01*
X020851Y042057D01*
X020851Y041607D01*
X020691Y041607D02*
X020391Y041607D01*
X020391Y042057D01*
X020691Y042057D01*
X020541Y041832D02*
X020391Y041832D01*
X014557Y041844D02*
X014482Y041769D01*
X014257Y041769D01*
X014407Y041769D02*
X014557Y041619D01*
X014557Y041844D02*
X014557Y041994D01*
X014482Y042069D01*
X014257Y042069D01*
X014257Y041619D01*
X014100Y041619D02*
X013950Y041619D01*
X014025Y041619D02*
X014025Y042069D01*
X013950Y042069D02*
X014100Y042069D01*
X010271Y041997D02*
X010271Y041922D01*
X010195Y041847D01*
X009970Y041847D01*
X009970Y042072D02*
X009970Y041621D01*
X010195Y041621D01*
X010271Y041697D01*
X010271Y041772D01*
X010195Y041847D01*
X010271Y041997D02*
X010195Y042072D01*
X009970Y042072D01*
X009810Y042072D02*
X009510Y041772D01*
X009585Y041847D02*
X009810Y041621D01*
X009510Y041621D02*
X009510Y042072D01*
X006601Y035284D02*
X006601Y035134D01*
X006601Y035209D02*
X006150Y035209D01*
X006150Y035134D01*
X006375Y034974D02*
X006601Y034974D01*
X006601Y034824D02*
X006375Y034824D01*
X006300Y034899D01*
X006375Y034974D01*
X006375Y034824D02*
X006300Y034749D01*
X006300Y034674D01*
X006601Y034674D01*
X006601Y034517D02*
X006526Y034442D01*
X006225Y034442D01*
X006300Y034367D02*
X006300Y034517D01*
X006375Y034207D02*
X006601Y034207D01*
X006375Y034207D02*
X006300Y034132D01*
X006300Y033982D01*
X006375Y033907D01*
X006526Y033751D02*
X006601Y033751D01*
X006601Y033676D01*
X006526Y033676D01*
X006526Y033751D01*
X006601Y033907D02*
X006150Y033907D01*
X006225Y033516D02*
X006150Y033441D01*
X006150Y033291D01*
X006225Y033216D01*
X006225Y033056D02*
X006526Y032756D01*
X006601Y032831D01*
X006601Y032981D01*
X006526Y033056D01*
X006225Y033056D01*
X006150Y032981D01*
X006150Y032831D01*
X006225Y032756D01*
X006526Y032756D01*
X006526Y032595D02*
X006450Y032595D01*
X006375Y032520D01*
X006375Y032295D01*
X006526Y032295D01*
X006601Y032370D01*
X006601Y032520D01*
X006526Y032595D01*
X006375Y032295D02*
X006225Y032445D01*
X006150Y032595D01*
X006150Y031985D02*
X006601Y031985D01*
X006601Y031835D02*
X006601Y032135D01*
X006300Y031835D02*
X006150Y031985D01*
X006375Y031675D02*
X006375Y031374D01*
X006150Y031600D01*
X006601Y031600D01*
X006526Y031214D02*
X006601Y031139D01*
X006601Y030989D01*
X006526Y030914D01*
X006225Y031214D01*
X006526Y031214D01*
X006526Y030914D02*
X006225Y030914D01*
X006150Y030989D01*
X006150Y031139D01*
X006225Y031214D01*
X006375Y030754D02*
X006375Y030454D01*
X006150Y030679D01*
X006601Y030679D01*
X006601Y030294D02*
X006601Y030068D01*
X006526Y029993D01*
X006375Y029993D01*
X006300Y030068D01*
X006300Y030294D01*
X006300Y029761D02*
X006601Y029761D01*
X006601Y029686D02*
X006601Y029836D01*
X006300Y029761D02*
X006300Y029686D01*
X006150Y029761D02*
X006075Y029761D01*
X006375Y029526D02*
X006300Y029451D01*
X006300Y029226D01*
X006751Y029226D01*
X006601Y029226D02*
X006601Y029451D01*
X006526Y029526D01*
X006375Y029526D01*
X006375Y029066D02*
X006300Y028991D01*
X006300Y028841D01*
X006375Y028766D01*
X006526Y028766D01*
X006601Y028841D01*
X006601Y028991D01*
X006526Y029066D01*
X006375Y029066D01*
X006300Y028609D02*
X006300Y028459D01*
X006225Y028534D02*
X006526Y028534D01*
X006601Y028609D01*
X006150Y028298D02*
X006601Y027998D01*
X006601Y027838D02*
X006375Y027838D01*
X006300Y027763D01*
X006375Y027688D01*
X006601Y027688D01*
X006601Y027538D02*
X006300Y027538D01*
X006300Y027613D01*
X006375Y027688D01*
X006300Y027378D02*
X006601Y027378D01*
X006601Y027153D01*
X006526Y027077D01*
X006300Y027077D01*
X006300Y026919D02*
X006300Y026844D01*
X006450Y026694D01*
X006300Y026694D02*
X006601Y026694D01*
X006526Y026534D02*
X006375Y026534D01*
X006300Y026459D01*
X006300Y026308D01*
X006375Y026233D01*
X006526Y026233D01*
X006601Y026308D01*
X006601Y026459D01*
X006526Y026534D01*
X006375Y026077D02*
X006375Y025926D01*
X006225Y026002D02*
X006150Y026077D01*
X006225Y026002D02*
X006601Y026002D01*
X006300Y025766D02*
X006601Y025616D01*
X006300Y025466D01*
X006300Y025309D02*
X006300Y025159D01*
X006225Y025234D02*
X006526Y025234D01*
X006601Y025309D01*
X006300Y025001D02*
X006300Y024926D01*
X006450Y024775D01*
X006300Y024775D02*
X006601Y024775D01*
X006601Y024315D02*
X006150Y024615D01*
X006601Y024158D02*
X006601Y024008D01*
X006601Y024083D02*
X006150Y024083D01*
X006150Y024008D01*
X006375Y023848D02*
X006526Y023848D01*
X006601Y023773D01*
X006601Y023548D01*
X006751Y023548D02*
X006300Y023548D01*
X006300Y023773D01*
X006375Y023848D01*
X006526Y023393D02*
X006601Y023393D01*
X006601Y023318D01*
X006526Y023318D01*
X006526Y023393D01*
X006601Y023157D02*
X006601Y022932D01*
X006526Y022857D01*
X006450Y022932D01*
X006450Y023157D01*
X006375Y023157D02*
X006601Y023157D01*
X006375Y023157D02*
X006300Y023082D01*
X006300Y022932D01*
X006300Y022697D02*
X006300Y022472D01*
X006375Y022397D01*
X006526Y022397D01*
X006601Y022472D01*
X006601Y022697D01*
X006150Y022697D01*
X006375Y022237D02*
X006300Y022162D01*
X006300Y022011D01*
X006375Y021936D01*
X006526Y021936D01*
X006601Y022011D01*
X006601Y022162D01*
X006526Y022237D01*
X006375Y022237D01*
X006300Y021778D02*
X006300Y021703D01*
X006450Y021553D01*
X006300Y021553D02*
X006601Y021553D01*
X006601Y021396D02*
X006526Y021321D01*
X006225Y021321D01*
X006300Y021246D02*
X006300Y021396D01*
X006300Y021087D02*
X006450Y020862D01*
X006601Y021087D01*
X006601Y020862D02*
X006150Y020862D01*
X006375Y020702D02*
X006450Y020702D01*
X006450Y020402D01*
X006375Y020402D02*
X006300Y020477D01*
X006300Y020627D01*
X006375Y020702D01*
X006601Y020627D02*
X006601Y020477D01*
X006526Y020402D01*
X006375Y020402D01*
X006601Y020245D02*
X006601Y020095D01*
X006601Y020170D02*
X006150Y020170D01*
X006150Y020095D01*
X006375Y019935D02*
X006450Y019935D01*
X006450Y019634D01*
X006375Y019634D02*
X006300Y019709D01*
X006300Y019860D01*
X006375Y019935D01*
X006601Y019860D02*
X006601Y019709D01*
X006526Y019634D01*
X006375Y019634D01*
X006526Y019479D02*
X006601Y019479D01*
X006601Y019404D01*
X006526Y019404D01*
X006526Y019479D01*
X006526Y019244D02*
X006300Y019244D01*
X006526Y019244D02*
X006601Y019169D01*
X006526Y019094D01*
X006601Y019019D01*
X006526Y018944D01*
X006300Y018944D01*
X006300Y018784D02*
X006526Y018784D01*
X006601Y018709D01*
X006526Y018634D01*
X006601Y018559D01*
X006526Y018483D01*
X006300Y018483D01*
X006300Y018323D02*
X006526Y018323D01*
X006601Y018248D01*
X006526Y018173D01*
X006601Y018098D01*
X006526Y018023D01*
X006300Y018023D01*
X006150Y017863D02*
X006601Y017563D01*
X006601Y017102D02*
X006150Y017403D01*
X006300Y016947D02*
X006375Y016947D01*
X006375Y016872D01*
X006300Y016872D01*
X006300Y016947D01*
X006526Y016947D02*
X006601Y016947D01*
X006601Y016872D01*
X006526Y016872D01*
X006526Y016947D01*
X006526Y016712D02*
X006450Y016637D01*
X006450Y016487D01*
X006375Y016412D01*
X006300Y016487D01*
X006300Y016712D01*
X006526Y016712D02*
X006601Y016637D01*
X006601Y016412D01*
X006526Y016252D02*
X006601Y016176D01*
X006601Y015951D01*
X006751Y015951D02*
X006300Y015951D01*
X006300Y016176D01*
X006375Y016252D01*
X006526Y016252D01*
X006601Y015794D02*
X006526Y015719D01*
X006225Y015719D01*
X006300Y015644D02*
X006300Y015794D01*
X006300Y015488D02*
X006300Y015337D01*
X006225Y015413D02*
X006526Y015413D01*
X006601Y015488D01*
X006601Y015177D02*
X006375Y015177D01*
X006300Y015102D01*
X006300Y014952D01*
X006375Y014877D01*
X006150Y014877D02*
X006601Y014877D01*
X008820Y013126D02*
X008895Y013201D01*
X009045Y013201D01*
X009120Y013126D01*
X009120Y013051D01*
X008820Y012751D01*
X009120Y012751D01*
X010320Y013251D02*
X010620Y013251D01*
X010470Y013251D02*
X010470Y013701D01*
X010320Y013551D01*
X011760Y013126D02*
X011835Y013201D01*
X011985Y013201D01*
X012060Y013126D01*
X012060Y013051D01*
X011760Y012751D01*
X012060Y012751D01*
X014332Y012751D02*
X014632Y013051D01*
X014632Y013126D01*
X014557Y013201D01*
X014407Y013201D01*
X014332Y013126D01*
X014332Y012751D02*
X014632Y012751D01*
X015832Y013251D02*
X016132Y013251D01*
X015982Y013251D02*
X015982Y013701D01*
X015832Y013551D01*
X017272Y013126D02*
X017347Y013201D01*
X017497Y013201D01*
X017572Y013126D01*
X017572Y013051D01*
X017272Y012751D01*
X017572Y012751D01*
X023626Y020102D02*
X011126Y020102D01*
X011126Y027102D01*
X023626Y027102D01*
X023626Y020102D01*
X042704Y015634D02*
X042704Y015444D01*
X042831Y015444D01*
X042925Y015476D02*
X042957Y015444D01*
X043020Y015444D01*
X043052Y015476D01*
X043052Y015507D01*
X043020Y015539D01*
X042957Y015539D01*
X042925Y015571D01*
X042925Y015603D01*
X042957Y015634D01*
X043020Y015634D01*
X043052Y015603D01*
X043146Y015634D02*
X043146Y015444D01*
X043241Y015444D01*
X043273Y015476D01*
X043273Y015603D01*
X043241Y015634D01*
X043146Y015634D01*
X042831Y015634D02*
X042704Y015634D01*
X042704Y015539D02*
X042767Y015539D01*
X043588Y015444D02*
X043683Y015444D01*
X043715Y015476D01*
X043715Y015603D01*
X043683Y015634D01*
X043588Y015634D01*
X043588Y015444D01*
X043809Y015444D02*
X043872Y015444D01*
X043841Y015444D02*
X043841Y015571D01*
X043809Y015571D01*
X043841Y015634D02*
X043841Y015666D01*
X043956Y015539D02*
X043956Y015476D01*
X043988Y015444D01*
X044051Y015444D01*
X044083Y015476D01*
X044083Y015539D01*
X044051Y015571D01*
X043988Y015571D01*
X043956Y015539D01*
X044177Y015539D02*
X044209Y015571D01*
X044304Y015571D01*
X044304Y015634D02*
X044304Y015444D01*
X044209Y015444D01*
X044177Y015476D01*
X044177Y015539D01*
X044398Y015539D02*
X044430Y015571D01*
X044493Y015571D01*
X044525Y015539D01*
X044525Y015507D01*
X044398Y015507D01*
X044398Y015476D02*
X044398Y015539D01*
X044398Y015476D02*
X044430Y015444D01*
X044493Y015444D01*
X044480Y015820D02*
X044480Y016010D01*
X044417Y015947D01*
X044322Y016010D02*
X044322Y015852D01*
X044291Y015820D01*
X044227Y015820D01*
X044196Y015852D01*
X044196Y016010D01*
X044417Y015820D02*
X044543Y015820D01*
X051110Y018403D02*
X051110Y019584D01*
X053078Y019584D01*
X053078Y018403D01*
X051110Y018403D01*
X051712Y016777D02*
X057027Y016777D01*
X057027Y016206D01*
X057539Y016206D01*
X057539Y010950D01*
X056358Y010950D01*
X055177Y011265D01*
X051712Y011265D01*
X051712Y016777D01*
X045860Y020561D02*
X045860Y021743D01*
X043891Y021743D01*
X043891Y020561D01*
X045860Y020561D01*
X006601Y033291D02*
X006526Y033216D01*
X006601Y033291D02*
X006601Y033441D01*
X006526Y033516D01*
X006450Y033516D01*
X006375Y033441D01*
X006375Y033366D01*
X006375Y033441D02*
X006300Y033516D01*
X006225Y033516D01*
D14*
X015095Y026394D02*
X015095Y026154D01*
X015275Y026154D01*
X015215Y026274D01*
X015215Y026334D01*
X015275Y026394D01*
X015396Y026394D01*
X015456Y026334D01*
X015456Y026214D01*
X015396Y026154D01*
X015396Y025966D02*
X015095Y025966D01*
X015095Y025906D02*
X015095Y026026D01*
X015396Y025966D02*
X015456Y025906D01*
X015456Y025845D01*
X015396Y025785D01*
X015595Y025906D02*
X015595Y026026D01*
X015595Y025966D02*
X015896Y025966D01*
X015956Y025906D01*
X015956Y025845D01*
X015896Y025785D01*
X016095Y025906D02*
X016095Y026026D01*
X016095Y025966D02*
X016396Y025966D01*
X016456Y025906D01*
X016456Y025845D01*
X016396Y025785D01*
X016595Y025906D02*
X016595Y026026D01*
X016595Y025966D02*
X016896Y025966D01*
X016956Y025906D01*
X016956Y025845D01*
X016896Y025785D01*
X016956Y026154D02*
X016715Y026394D01*
X016655Y026394D01*
X016595Y026334D01*
X016595Y026214D01*
X016655Y026154D01*
X016456Y026214D02*
X016396Y026154D01*
X016456Y026214D02*
X016456Y026334D01*
X016396Y026394D01*
X016335Y026394D01*
X016275Y026334D01*
X016275Y026274D01*
X016275Y026334D02*
X016215Y026394D01*
X016155Y026394D01*
X016095Y026334D01*
X016095Y026214D01*
X016155Y026154D01*
X015956Y026334D02*
X015595Y026334D01*
X015775Y026154D01*
X015775Y026394D01*
X016956Y026394D02*
X016956Y026154D01*
X016366Y025332D02*
X016539Y025159D01*
X016539Y024812D01*
X016539Y025072D02*
X016192Y025072D01*
X016192Y025159D02*
X016366Y025332D01*
X016192Y025159D02*
X016192Y024812D01*
X016024Y024812D02*
X015677Y024812D01*
X016024Y025159D01*
X016024Y025246D01*
X015937Y025332D01*
X015763Y025332D01*
X015677Y025246D01*
X015508Y025246D02*
X015161Y024899D01*
X015248Y024812D01*
X015421Y024812D01*
X015508Y024899D01*
X015508Y025246D01*
X015421Y025332D01*
X015248Y025332D01*
X015161Y025246D01*
X015161Y024899D01*
X014992Y024812D02*
X014645Y024812D01*
X014819Y024812D02*
X014819Y025332D01*
X014645Y025159D01*
X014477Y025072D02*
X014477Y024899D01*
X014390Y024812D01*
X014217Y024812D01*
X014130Y024899D01*
X014130Y025072D02*
X014303Y025159D01*
X014390Y025159D01*
X014477Y025072D01*
X014477Y025332D02*
X014130Y025332D01*
X014130Y025072D01*
X013961Y025332D02*
X013961Y024812D01*
X013614Y024812D02*
X013614Y025332D01*
X013788Y025159D01*
X013961Y025332D01*
X013445Y025246D02*
X013359Y025332D01*
X013185Y025332D01*
X013099Y025246D01*
X013099Y024899D01*
X013185Y024812D01*
X013359Y024812D01*
X013445Y024899D01*
X012930Y025072D02*
X012843Y024986D01*
X012583Y024986D01*
X012583Y024812D02*
X012583Y025332D01*
X012843Y025332D01*
X012930Y025246D01*
X012930Y025072D01*
X016220Y023737D02*
X016220Y023583D01*
X016297Y023507D01*
X016220Y023353D02*
X016527Y023353D01*
X016680Y023200D01*
X016527Y023046D01*
X016220Y023046D01*
X016297Y022893D02*
X016373Y022893D01*
X016450Y022816D01*
X016527Y022893D01*
X016604Y022893D01*
X016680Y022816D01*
X016680Y022663D01*
X016604Y022586D01*
X016680Y022432D02*
X016373Y022432D01*
X016220Y022279D01*
X016373Y022126D01*
X016680Y022126D01*
X016450Y022126D02*
X016450Y022432D01*
X016297Y022586D02*
X016220Y022663D01*
X016220Y022816D01*
X016297Y022893D01*
X016450Y022816D02*
X016450Y022739D01*
X017220Y022586D02*
X017373Y022739D01*
X017220Y022893D01*
X017680Y022893D01*
X017680Y023200D02*
X017220Y023200D01*
X017220Y023353D02*
X017220Y023046D01*
X017220Y022586D02*
X017680Y022586D01*
X017450Y022279D02*
X017450Y022126D01*
X017680Y022126D02*
X017220Y022126D01*
X017220Y022432D01*
X017450Y021512D02*
X017450Y021205D01*
X017220Y021435D01*
X017680Y021435D01*
X018220Y021435D02*
X018297Y021512D01*
X018373Y021512D01*
X018450Y021435D01*
X018527Y021512D01*
X018604Y021512D01*
X018680Y021435D01*
X018680Y021281D01*
X018604Y021205D01*
X018450Y021358D02*
X018450Y021435D01*
X018220Y021435D02*
X018220Y021281D01*
X018297Y021205D01*
X019220Y021281D02*
X019297Y021205D01*
X019220Y021281D02*
X019220Y021435D01*
X019297Y021512D01*
X019373Y021512D01*
X019680Y021205D01*
X019680Y021512D01*
X020220Y021358D02*
X020680Y021358D01*
X020680Y021205D02*
X020680Y021512D01*
X020373Y021205D02*
X020220Y021358D01*
X021182Y021081D02*
X021182Y021004D01*
X021258Y020927D01*
X021412Y020927D01*
X021489Y020850D01*
X021489Y020774D01*
X021412Y020697D01*
X021258Y020697D01*
X021182Y020774D01*
X021182Y021081D02*
X021258Y021157D01*
X021412Y021157D01*
X021489Y021081D01*
X021642Y021081D02*
X021642Y020774D01*
X021719Y020697D01*
X021872Y020697D01*
X021949Y020774D01*
X022103Y020850D02*
X022409Y021157D01*
X022103Y021157D02*
X022103Y020697D01*
X022179Y020927D02*
X022409Y020697D01*
X021949Y021081D02*
X021872Y021157D01*
X021719Y021157D01*
X021642Y021081D01*
X021719Y021697D02*
X021872Y021697D01*
X021949Y021774D01*
X022103Y021850D02*
X022409Y022157D01*
X022103Y022157D02*
X022103Y021697D01*
X022179Y021927D02*
X022409Y021697D01*
X021949Y022081D02*
X021872Y022157D01*
X021719Y022157D01*
X021642Y022081D01*
X021642Y021774D01*
X021719Y021697D01*
X021489Y021774D02*
X021412Y021697D01*
X021182Y021697D01*
X021182Y022157D01*
X021412Y022157D01*
X021489Y022081D01*
X021489Y022004D01*
X021412Y021927D01*
X021182Y021927D01*
X021412Y021927D02*
X021489Y021850D01*
X021489Y021774D01*
X020680Y022126D02*
X020220Y022126D01*
X020220Y022432D01*
X020220Y022586D02*
X020680Y022586D01*
X020680Y022893D01*
X020680Y023200D02*
X020220Y023200D01*
X020220Y023353D02*
X020220Y023046D01*
X019680Y023046D02*
X019220Y023046D01*
X019373Y023200D01*
X019220Y023353D01*
X019680Y023353D01*
X019680Y023507D02*
X019220Y023507D01*
X019220Y023737D01*
X019297Y023814D01*
X019450Y023814D01*
X019527Y023737D01*
X019527Y023507D01*
X019680Y022893D02*
X019680Y022586D01*
X019220Y022586D01*
X019220Y022893D01*
X019450Y022739D02*
X019450Y022586D01*
X019604Y022432D02*
X019297Y022432D01*
X019220Y022356D01*
X019220Y022126D01*
X019680Y022126D01*
X019680Y022356D01*
X019604Y022432D01*
X020450Y022279D02*
X020450Y022126D01*
X021335Y022697D02*
X021565Y022697D01*
X021642Y022774D01*
X021642Y023081D01*
X021565Y023157D01*
X021335Y023157D01*
X021335Y022697D01*
X021796Y022697D02*
X021949Y022697D01*
X021872Y022697D02*
X021872Y023157D01*
X021796Y023157D02*
X021949Y023157D01*
X022103Y023157D02*
X022409Y022697D01*
X022409Y023157D01*
X022103Y023157D02*
X022103Y022697D01*
X022103Y023697D02*
X022103Y024157D01*
X021949Y024081D02*
X021872Y024157D01*
X021719Y024157D01*
X021642Y024081D01*
X021642Y023774D01*
X021719Y023697D01*
X021872Y023697D01*
X021949Y023774D01*
X022103Y023850D02*
X022409Y024157D01*
X022179Y023927D02*
X022409Y023697D01*
X021489Y023697D02*
X021182Y023697D01*
X021182Y024157D01*
X021258Y024697D02*
X021412Y024697D01*
X021489Y024774D01*
X021489Y024927D01*
X021335Y024927D01*
X021182Y024774D02*
X021258Y024697D01*
X021182Y024774D02*
X021182Y025081D01*
X021258Y025157D01*
X021412Y025157D01*
X021489Y025081D01*
X021642Y025157D02*
X021949Y024697D01*
X021949Y025157D01*
X022103Y025157D02*
X022333Y025157D01*
X022409Y025081D01*
X022409Y024774D01*
X022333Y024697D01*
X022103Y024697D01*
X022103Y025157D01*
X021642Y025157D02*
X021642Y024697D01*
X021489Y025697D02*
X021335Y025850D01*
X021335Y026157D01*
X021642Y026157D02*
X021642Y025850D01*
X021489Y025697D01*
X021796Y025697D02*
X021949Y025697D01*
X021872Y025697D02*
X021872Y026157D01*
X021796Y026157D02*
X021949Y026157D01*
X022103Y026157D02*
X022409Y025697D01*
X022409Y026157D01*
X022103Y026157D02*
X022103Y025697D01*
X019977Y025072D02*
X019977Y024986D01*
X019630Y024986D01*
X019630Y025072D02*
X019630Y024899D01*
X019717Y024812D01*
X019890Y024812D01*
X019977Y025072D02*
X019890Y025159D01*
X019717Y025159D01*
X019630Y025072D01*
X019460Y024812D02*
X019286Y024812D01*
X019373Y024812D02*
X019373Y025332D01*
X019286Y025332D01*
X019118Y025159D02*
X019118Y024812D01*
X018857Y024812D01*
X018771Y024899D01*
X018771Y025159D01*
X018602Y025159D02*
X018342Y025159D01*
X018255Y025072D01*
X018255Y024899D01*
X018342Y024812D01*
X018602Y024812D01*
X018602Y025332D01*
X018086Y025072D02*
X017999Y025159D01*
X017826Y025159D01*
X017739Y025072D01*
X017739Y024899D01*
X017826Y024812D01*
X017999Y024812D01*
X018086Y024899D01*
X018086Y025072D01*
X017571Y025072D02*
X017571Y024812D01*
X017397Y024812D02*
X017397Y025072D01*
X017484Y025159D01*
X017571Y025072D01*
X017397Y025072D02*
X017310Y025159D01*
X017224Y025159D01*
X017224Y024812D01*
X016604Y023814D02*
X016527Y023814D01*
X016450Y023737D01*
X016450Y023660D01*
X016450Y023737D02*
X016373Y023814D01*
X016297Y023814D01*
X016220Y023737D01*
X016604Y023814D02*
X016680Y023737D01*
X016680Y023583D01*
X016604Y023507D01*
X018220Y023507D02*
X018220Y023814D01*
X018220Y023660D02*
X018680Y023660D01*
X018680Y023353D02*
X018220Y023353D01*
X018373Y023200D01*
X018220Y023046D01*
X018680Y023046D01*
X018604Y022893D02*
X018680Y022816D01*
X018680Y022663D01*
X018604Y022586D01*
X018680Y022432D02*
X018220Y022126D01*
X018220Y022432D02*
X018680Y022126D01*
X018373Y022586D02*
X018450Y022663D01*
X018450Y022816D01*
X018527Y022893D01*
X018604Y022893D01*
X018297Y022893D02*
X018220Y022816D01*
X018220Y022663D01*
X018297Y022586D01*
X018373Y022586D01*
X016680Y021435D02*
X016604Y021512D01*
X016450Y021512D01*
X016373Y021435D01*
X016373Y021358D01*
X016450Y021205D01*
X016220Y021205D01*
X016220Y021512D01*
X016680Y021435D02*
X016680Y021281D01*
X016604Y021205D01*
X015680Y021281D02*
X015680Y021435D01*
X015604Y021512D01*
X015450Y021512D01*
X015450Y021358D01*
X015297Y021205D02*
X015604Y021205D01*
X015680Y021281D01*
X015297Y021205D02*
X015220Y021281D01*
X015220Y021435D01*
X015297Y021512D01*
X014680Y021512D02*
X014527Y021358D01*
X014527Y021435D02*
X014527Y021205D01*
X014680Y021205D02*
X014220Y021205D01*
X014220Y021435D01*
X014297Y021512D01*
X014450Y021512D01*
X014527Y021435D01*
X013680Y021435D02*
X013604Y021512D01*
X013450Y021512D01*
X013450Y021358D01*
X013297Y021205D02*
X013604Y021205D01*
X013680Y021281D01*
X013680Y021435D01*
X013297Y021512D02*
X013220Y021435D01*
X013220Y021281D01*
X013297Y021205D01*
X012680Y021205D02*
X012680Y021512D01*
X012680Y021205D02*
X012220Y021205D01*
X015882Y018276D02*
X016002Y018396D01*
X016122Y018276D01*
X016122Y018036D01*
X016250Y018096D02*
X016310Y018036D01*
X016431Y018036D01*
X016491Y018096D01*
X016491Y018396D01*
X016619Y018396D02*
X016619Y018036D01*
X016799Y018036D01*
X016859Y018096D01*
X016859Y018336D01*
X016799Y018396D01*
X016619Y018396D01*
X016987Y018396D02*
X017107Y018396D01*
X017047Y018396D02*
X017047Y018036D01*
X016987Y018036D02*
X017107Y018036D01*
X017233Y018096D02*
X017293Y018036D01*
X017413Y018036D01*
X017473Y018096D01*
X017473Y018336D01*
X017413Y018396D01*
X017293Y018396D01*
X017233Y018336D01*
X017233Y018096D01*
X017601Y018216D02*
X017841Y018216D01*
X017969Y018336D02*
X017969Y018096D01*
X018029Y018036D01*
X018149Y018036D01*
X018209Y018096D01*
X018209Y018336D01*
X018149Y018396D01*
X018029Y018396D01*
X017969Y018336D01*
X018338Y018396D02*
X018338Y018096D01*
X018398Y018036D01*
X018518Y018036D01*
X018578Y018096D01*
X018578Y018396D01*
X018706Y018396D02*
X018946Y018396D01*
X018826Y018396D02*
X018826Y018036D01*
X016250Y018096D02*
X016250Y018396D01*
X016122Y018216D02*
X015882Y018216D01*
X015882Y018276D02*
X015882Y018036D01*
X023789Y028646D02*
X023789Y028766D01*
X023789Y028706D02*
X024149Y028706D01*
X024149Y028646D02*
X024149Y028766D01*
X024149Y028891D02*
X023909Y029132D01*
X023849Y029132D01*
X023789Y029071D01*
X023789Y028951D01*
X023849Y028891D01*
X024149Y028891D02*
X024149Y029132D01*
X024089Y029260D02*
X024149Y029320D01*
X024149Y029440D01*
X024089Y029500D01*
X024029Y029500D01*
X023969Y029440D01*
X023969Y029320D01*
X023909Y029260D01*
X023849Y029260D01*
X023789Y029320D01*
X023789Y029440D01*
X023849Y029500D01*
X032146Y029449D02*
X032222Y029372D01*
X032376Y029372D01*
X032453Y029449D01*
X032453Y029602D01*
X032299Y029602D01*
X032146Y029449D02*
X032146Y029756D01*
X032222Y029832D01*
X032376Y029832D01*
X032453Y029756D01*
X032606Y029832D02*
X032606Y029372D01*
X032606Y029526D02*
X032836Y029526D01*
X032913Y029602D01*
X032913Y029756D01*
X032836Y029832D01*
X032606Y029832D01*
X033066Y029832D02*
X033220Y029832D01*
X033143Y029832D02*
X033143Y029372D01*
X033066Y029372D02*
X033220Y029372D01*
X033373Y029449D02*
X033450Y029372D01*
X033603Y029372D01*
X033680Y029449D01*
X033680Y029756D01*
X033603Y029832D01*
X033450Y029832D01*
X033373Y029756D01*
X033373Y029449D01*
X033450Y028832D02*
X033373Y028756D01*
X033373Y028449D01*
X033450Y028372D01*
X033603Y028372D01*
X033680Y028449D01*
X033680Y028756D01*
X033603Y028832D01*
X033450Y028832D01*
X033220Y028832D02*
X033066Y028832D01*
X033143Y028832D02*
X033143Y028372D01*
X033066Y028372D02*
X033220Y028372D01*
X032913Y028602D02*
X032836Y028526D01*
X032606Y028526D01*
X032606Y028372D02*
X032606Y028832D01*
X032836Y028832D01*
X032913Y028756D01*
X032913Y028602D01*
X032453Y028602D02*
X032453Y028449D01*
X032376Y028372D01*
X032222Y028372D01*
X032146Y028449D01*
X032146Y028756D01*
X032222Y028832D01*
X032376Y028832D01*
X032453Y028756D01*
X032453Y028602D02*
X032299Y028602D01*
X032222Y027832D02*
X032146Y027756D01*
X032146Y027449D01*
X032222Y027372D01*
X032376Y027372D01*
X032453Y027449D01*
X032453Y027602D01*
X032299Y027602D01*
X032453Y027756D02*
X032376Y027832D01*
X032222Y027832D01*
X032606Y027832D02*
X032606Y027372D01*
X032606Y027526D02*
X032836Y027526D01*
X032913Y027602D01*
X032913Y027756D01*
X032836Y027832D01*
X032606Y027832D01*
X033066Y027832D02*
X033220Y027832D01*
X033143Y027832D02*
X033143Y027372D01*
X033066Y027372D02*
X033220Y027372D01*
X033373Y027449D02*
X033450Y027372D01*
X033603Y027372D01*
X033680Y027449D01*
X033680Y027756D01*
X033603Y027832D01*
X033450Y027832D01*
X033373Y027756D01*
X033373Y027449D01*
X033450Y026832D02*
X033373Y026756D01*
X033373Y026449D01*
X033450Y026372D01*
X033603Y026372D01*
X033680Y026449D01*
X033680Y026756D01*
X033603Y026832D01*
X033450Y026832D01*
X033220Y026832D02*
X033066Y026832D01*
X033143Y026832D02*
X033143Y026372D01*
X033066Y026372D02*
X033220Y026372D01*
X032913Y026602D02*
X032836Y026526D01*
X032606Y026526D01*
X032606Y026372D02*
X032606Y026832D01*
X032836Y026832D01*
X032913Y026756D01*
X032913Y026602D01*
X032453Y026602D02*
X032299Y026602D01*
X032453Y026602D02*
X032453Y026449D01*
X032376Y026372D01*
X032222Y026372D01*
X032146Y026449D01*
X032146Y026756D01*
X032222Y026832D01*
X032376Y026832D01*
X032453Y026756D01*
X032376Y025832D02*
X032222Y025832D01*
X032146Y025756D01*
X032146Y025449D01*
X032222Y025372D01*
X032376Y025372D01*
X032453Y025449D01*
X032453Y025602D01*
X032299Y025602D01*
X032453Y025756D02*
X032376Y025832D01*
X032606Y025832D02*
X032606Y025372D01*
X032606Y025526D02*
X032836Y025526D01*
X032913Y025602D01*
X032913Y025756D01*
X032836Y025832D01*
X032606Y025832D01*
X033066Y025832D02*
X033220Y025832D01*
X033143Y025832D02*
X033143Y025372D01*
X033066Y025372D02*
X033220Y025372D01*
X033373Y025449D02*
X033450Y025372D01*
X033603Y025372D01*
X033680Y025449D01*
X033680Y025756D01*
X033603Y025832D01*
X033450Y025832D01*
X033373Y025756D01*
X033373Y025449D01*
X033450Y024832D02*
X033373Y024756D01*
X033373Y024449D01*
X033450Y024372D01*
X033603Y024372D01*
X033680Y024449D01*
X033680Y024756D01*
X033603Y024832D01*
X033450Y024832D01*
X033220Y024832D02*
X033066Y024832D01*
X033143Y024832D02*
X033143Y024372D01*
X033066Y024372D02*
X033220Y024372D01*
X032913Y024602D02*
X032836Y024526D01*
X032606Y024526D01*
X032606Y024372D02*
X032606Y024832D01*
X032836Y024832D01*
X032913Y024756D01*
X032913Y024602D01*
X032453Y024602D02*
X032453Y024449D01*
X032376Y024372D01*
X032222Y024372D01*
X032146Y024449D01*
X032146Y024756D01*
X032222Y024832D01*
X032376Y024832D01*
X032453Y024756D01*
X032453Y024602D02*
X032299Y024602D01*
X032222Y023832D02*
X032146Y023756D01*
X032146Y023449D01*
X032222Y023372D01*
X032376Y023372D01*
X032453Y023449D01*
X032453Y023602D01*
X032299Y023602D01*
X032453Y023756D02*
X032376Y023832D01*
X032222Y023832D01*
X032606Y023832D02*
X032606Y023372D01*
X032606Y023526D02*
X032836Y023526D01*
X032913Y023602D01*
X032913Y023756D01*
X032836Y023832D01*
X032606Y023832D01*
X033066Y023832D02*
X033220Y023832D01*
X033143Y023832D02*
X033143Y023372D01*
X033066Y023372D02*
X033220Y023372D01*
X033373Y023449D02*
X033450Y023372D01*
X033603Y023372D01*
X033680Y023449D01*
X033680Y023756D01*
X033603Y023832D01*
X033450Y023832D01*
X033373Y023756D01*
X033373Y023449D01*
X033450Y022832D02*
X033373Y022756D01*
X033373Y022449D01*
X033450Y022372D01*
X033603Y022372D01*
X033680Y022449D01*
X033680Y022756D01*
X033603Y022832D01*
X033450Y022832D01*
X033220Y022832D02*
X033066Y022832D01*
X033143Y022832D02*
X033143Y022372D01*
X033066Y022372D02*
X033220Y022372D01*
X032913Y022602D02*
X032836Y022526D01*
X032606Y022526D01*
X032606Y022372D02*
X032606Y022832D01*
X032836Y022832D01*
X032913Y022756D01*
X032913Y022602D01*
X032453Y022602D02*
X032299Y022602D01*
X032453Y022602D02*
X032453Y022449D01*
X032376Y022372D01*
X032222Y022372D01*
X032146Y022449D01*
X032146Y022756D01*
X032222Y022832D01*
X032376Y022832D01*
X032453Y022756D01*
X032453Y021832D02*
X032146Y021832D01*
X032146Y021602D01*
X032299Y021679D01*
X032376Y021679D01*
X032453Y021602D01*
X032453Y021449D01*
X032376Y021372D01*
X032222Y021372D01*
X032146Y021449D01*
X032606Y021526D02*
X032759Y021372D01*
X032913Y021526D01*
X032913Y021832D01*
X032606Y021832D02*
X032606Y021526D01*
X032606Y020832D02*
X032913Y020372D01*
X032913Y020832D01*
X033066Y020832D02*
X033297Y020832D01*
X033373Y020756D01*
X033373Y020449D01*
X033297Y020372D01*
X033066Y020372D01*
X033066Y020832D01*
X032606Y020832D02*
X032606Y020372D01*
X032453Y020449D02*
X032453Y020602D01*
X032299Y020602D01*
X032146Y020449D02*
X032146Y020756D01*
X032222Y020832D01*
X032376Y020832D01*
X032453Y020756D01*
X032453Y020449D02*
X032376Y020372D01*
X032222Y020372D01*
X032146Y020449D01*
X034294Y022372D02*
X034601Y022372D01*
X034448Y022372D02*
X034448Y022832D01*
X034294Y022679D01*
X034754Y022602D02*
X034985Y022832D01*
X034985Y022372D01*
X035061Y022602D02*
X034754Y022602D01*
X034831Y023372D02*
X034754Y023449D01*
X034831Y023372D02*
X034985Y023372D01*
X035061Y023449D01*
X035061Y023526D01*
X034985Y023602D01*
X034908Y023602D01*
X034985Y023602D02*
X035061Y023679D01*
X035061Y023756D01*
X034985Y023832D01*
X034831Y023832D01*
X034754Y023756D01*
X034448Y023832D02*
X034448Y023372D01*
X034601Y023372D02*
X034294Y023372D01*
X034294Y023679D02*
X034448Y023832D01*
X034448Y024372D02*
X034448Y024832D01*
X034294Y024679D01*
X034294Y024372D02*
X034601Y024372D01*
X034754Y024372D02*
X035061Y024679D01*
X035061Y024756D01*
X034985Y024832D01*
X034831Y024832D01*
X034754Y024756D01*
X034754Y024372D02*
X035061Y024372D01*
X035061Y025372D02*
X034754Y025372D01*
X034601Y025372D02*
X034294Y025372D01*
X034448Y025372D02*
X034448Y025832D01*
X034294Y025679D01*
X034754Y025679D02*
X034908Y025832D01*
X034908Y025372D01*
X034985Y026372D02*
X034831Y026372D01*
X034754Y026449D01*
X035061Y026756D01*
X035061Y026449D01*
X034985Y026372D01*
X034754Y026449D02*
X034754Y026756D01*
X034831Y026832D01*
X034985Y026832D01*
X035061Y026756D01*
X034601Y026372D02*
X034294Y026372D01*
X034448Y026372D02*
X034448Y026832D01*
X034294Y026679D01*
X034371Y027372D02*
X034524Y027372D01*
X034601Y027449D01*
X034601Y027756D01*
X034524Y027832D01*
X034371Y027832D01*
X034294Y027756D01*
X034294Y027679D01*
X034371Y027602D01*
X034601Y027602D01*
X034371Y027372D02*
X034294Y027449D01*
X034524Y028372D02*
X034524Y028832D01*
X034294Y028602D01*
X034601Y028602D01*
X034754Y028602D02*
X034985Y028602D01*
X035061Y028526D01*
X035061Y028449D01*
X034985Y028372D01*
X034831Y028372D01*
X034754Y028449D01*
X034754Y028602D01*
X034908Y028756D01*
X035061Y028832D01*
X034524Y029372D02*
X034371Y029372D01*
X034294Y029449D01*
X034448Y029602D02*
X034524Y029602D01*
X034601Y029526D01*
X034601Y029449D01*
X034524Y029372D01*
X034524Y029602D02*
X034601Y029679D01*
X034601Y029756D01*
X034524Y029832D01*
X034371Y029832D01*
X034294Y029756D01*
X034371Y030372D02*
X034294Y030449D01*
X034294Y030526D01*
X034371Y030602D01*
X034524Y030602D01*
X034601Y030526D01*
X034601Y030449D01*
X034524Y030372D01*
X034371Y030372D01*
X034371Y030602D02*
X034294Y030679D01*
X034294Y030756D01*
X034371Y030832D01*
X034524Y030832D01*
X034601Y030756D01*
X034601Y030679D01*
X034524Y030602D01*
X033680Y030449D02*
X033680Y030756D01*
X033603Y030832D01*
X033450Y030832D01*
X033373Y030756D01*
X033373Y030449D01*
X033450Y030372D01*
X033603Y030372D01*
X033680Y030449D01*
X033220Y030372D02*
X033066Y030372D01*
X033143Y030372D02*
X033143Y030832D01*
X033066Y030832D02*
X033220Y030832D01*
X032913Y030756D02*
X032913Y030602D01*
X032836Y030526D01*
X032606Y030526D01*
X032606Y030372D02*
X032606Y030832D01*
X032836Y030832D01*
X032913Y030756D01*
X032453Y030756D02*
X032376Y030832D01*
X032222Y030832D01*
X032146Y030756D01*
X032146Y030449D01*
X032222Y030372D01*
X032376Y030372D01*
X032453Y030449D01*
X032453Y030602D01*
X032299Y030602D01*
X032222Y031372D02*
X032376Y031372D01*
X032453Y031449D01*
X032453Y031602D01*
X032299Y031602D01*
X032146Y031449D02*
X032222Y031372D01*
X032146Y031449D02*
X032146Y031756D01*
X032222Y031832D01*
X032376Y031832D01*
X032453Y031756D01*
X032606Y031832D02*
X032606Y031372D01*
X032606Y031526D02*
X032836Y031526D01*
X032913Y031602D01*
X032913Y031756D01*
X032836Y031832D01*
X032606Y031832D01*
X033066Y031832D02*
X033220Y031832D01*
X033143Y031832D02*
X033143Y031372D01*
X033066Y031372D02*
X033220Y031372D01*
X033373Y031449D02*
X033450Y031372D01*
X033603Y031372D01*
X033680Y031449D01*
X033680Y031756D01*
X033603Y031832D01*
X033450Y031832D01*
X033373Y031756D01*
X033373Y031449D01*
X034294Y031372D02*
X034601Y031372D01*
X034448Y031372D02*
X034448Y031832D01*
X034294Y031679D01*
X034754Y031679D02*
X034754Y031756D01*
X034831Y031832D01*
X034985Y031832D01*
X035061Y031756D01*
X035061Y031679D01*
X034985Y031602D01*
X034831Y031602D01*
X034754Y031679D01*
X034831Y031602D02*
X034754Y031526D01*
X034754Y031449D01*
X034831Y031372D01*
X034985Y031372D01*
X035061Y031449D01*
X035061Y031526D01*
X034985Y031602D01*
X034754Y032372D02*
X034754Y032449D01*
X035061Y032756D01*
X035061Y032832D01*
X034754Y032832D01*
X034448Y032832D02*
X034448Y032372D01*
X034601Y032372D02*
X034294Y032372D01*
X034294Y032679D02*
X034448Y032832D01*
X034448Y033372D02*
X034448Y033832D01*
X034294Y033679D01*
X034294Y033372D02*
X034601Y033372D01*
X034754Y033449D02*
X034831Y033372D01*
X034985Y033372D01*
X035061Y033449D01*
X035061Y033526D01*
X034985Y033602D01*
X034754Y033602D01*
X034754Y033449D01*
X034754Y033602D02*
X034908Y033756D01*
X035061Y033832D01*
X034985Y034372D02*
X034831Y034372D01*
X034754Y034449D01*
X034754Y034602D02*
X034908Y034679D01*
X034985Y034679D01*
X035061Y034602D01*
X035061Y034449D01*
X034985Y034372D01*
X034754Y034602D02*
X034754Y034832D01*
X035061Y034832D01*
X034448Y034832D02*
X034448Y034372D01*
X034601Y034372D02*
X034294Y034372D01*
X034294Y034679D02*
X034448Y034832D01*
X033680Y034756D02*
X033603Y034832D01*
X033450Y034832D01*
X033373Y034756D01*
X033373Y034449D01*
X033450Y034372D01*
X033603Y034372D01*
X033680Y034449D01*
X033680Y034756D01*
X033220Y034832D02*
X033066Y034832D01*
X033143Y034832D02*
X033143Y034372D01*
X033066Y034372D02*
X033220Y034372D01*
X032913Y034602D02*
X032836Y034526D01*
X032606Y034526D01*
X032606Y034372D02*
X032606Y034832D01*
X032836Y034832D01*
X032913Y034756D01*
X032913Y034602D01*
X032453Y034602D02*
X032299Y034602D01*
X032453Y034602D02*
X032453Y034449D01*
X032376Y034372D01*
X032222Y034372D01*
X032146Y034449D01*
X032146Y034756D01*
X032222Y034832D01*
X032376Y034832D01*
X032453Y034756D01*
X032376Y035372D02*
X032453Y035449D01*
X032453Y035602D01*
X032299Y035602D01*
X032146Y035449D02*
X032222Y035372D01*
X032376Y035372D01*
X032606Y035372D02*
X032606Y035832D01*
X032836Y035832D01*
X032913Y035756D01*
X032913Y035602D01*
X032836Y035526D01*
X032606Y035526D01*
X032453Y035756D02*
X032376Y035832D01*
X032222Y035832D01*
X032146Y035756D01*
X032146Y035449D01*
X033066Y035372D02*
X033220Y035372D01*
X033143Y035372D02*
X033143Y035832D01*
X033066Y035832D02*
X033220Y035832D01*
X033373Y035756D02*
X033373Y035449D01*
X033450Y035372D01*
X033603Y035372D01*
X033680Y035449D01*
X033680Y035756D01*
X033603Y035832D01*
X033450Y035832D01*
X033373Y035756D01*
X033450Y036372D02*
X033603Y036372D01*
X033680Y036449D01*
X033680Y036756D01*
X033603Y036832D01*
X033450Y036832D01*
X033373Y036756D01*
X033373Y036449D01*
X033450Y036372D01*
X033220Y036372D02*
X033066Y036372D01*
X033143Y036372D02*
X033143Y036832D01*
X033066Y036832D02*
X033220Y036832D01*
X032913Y036756D02*
X032913Y036602D01*
X032836Y036526D01*
X032606Y036526D01*
X032606Y036372D02*
X032606Y036832D01*
X032836Y036832D01*
X032913Y036756D01*
X032453Y036756D02*
X032376Y036832D01*
X032222Y036832D01*
X032146Y036756D01*
X032146Y036449D01*
X032222Y036372D01*
X032376Y036372D01*
X032453Y036449D01*
X032453Y036602D01*
X032299Y036602D01*
X032222Y037372D02*
X032376Y037372D01*
X032453Y037449D01*
X032453Y037602D01*
X032299Y037602D01*
X032146Y037449D02*
X032146Y037756D01*
X032222Y037832D01*
X032376Y037832D01*
X032453Y037756D01*
X032606Y037832D02*
X032606Y037372D01*
X032606Y037526D02*
X032836Y037526D01*
X032913Y037602D01*
X032913Y037756D01*
X032836Y037832D01*
X032606Y037832D01*
X033066Y037832D02*
X033220Y037832D01*
X033143Y037832D02*
X033143Y037372D01*
X033066Y037372D02*
X033220Y037372D01*
X033373Y037449D02*
X033450Y037372D01*
X033603Y037372D01*
X033680Y037449D01*
X033680Y037756D01*
X033603Y037832D01*
X033450Y037832D01*
X033373Y037756D01*
X033373Y037449D01*
X034294Y037449D02*
X034371Y037372D01*
X034524Y037372D01*
X034601Y037449D01*
X034601Y037602D01*
X034524Y037679D01*
X034448Y037679D01*
X034294Y037602D01*
X034294Y037832D01*
X034601Y037832D01*
X034524Y038372D02*
X034524Y038832D01*
X034294Y038602D01*
X034601Y038602D01*
X033680Y038449D02*
X033603Y038372D01*
X033450Y038372D01*
X033373Y038449D01*
X033373Y038756D01*
X033450Y038832D01*
X033603Y038832D01*
X033680Y038756D01*
X033680Y038449D01*
X033220Y038372D02*
X033066Y038372D01*
X033143Y038372D02*
X033143Y038832D01*
X033066Y038832D02*
X033220Y038832D01*
X032913Y038756D02*
X032913Y038602D01*
X032836Y038526D01*
X032606Y038526D01*
X032606Y038372D02*
X032606Y038832D01*
X032836Y038832D01*
X032913Y038756D01*
X032453Y038756D02*
X032376Y038832D01*
X032222Y038832D01*
X032146Y038756D01*
X032146Y038449D01*
X032222Y038372D01*
X032376Y038372D01*
X032453Y038449D01*
X032453Y038602D01*
X032299Y038602D01*
X032146Y039372D02*
X032146Y039832D01*
X032376Y039832D01*
X032453Y039756D01*
X032453Y039602D01*
X032376Y039526D01*
X032146Y039526D01*
X032299Y039526D02*
X032453Y039372D01*
X032606Y039449D02*
X032683Y039372D01*
X032836Y039372D01*
X032913Y039449D01*
X032913Y039526D01*
X032836Y039602D01*
X032683Y039602D01*
X032606Y039679D01*
X032606Y039756D01*
X032683Y039832D01*
X032836Y039832D01*
X032913Y039756D01*
X033066Y039832D02*
X033373Y039832D01*
X033220Y039832D02*
X033220Y039372D01*
X033297Y040372D02*
X033143Y040372D01*
X033066Y040449D01*
X032913Y040526D02*
X032913Y040832D01*
X033066Y040756D02*
X033143Y040832D01*
X033297Y040832D01*
X033373Y040756D01*
X033373Y040679D01*
X033297Y040602D01*
X033373Y040526D01*
X033373Y040449D01*
X033297Y040372D01*
X033297Y040602D02*
X033220Y040602D01*
X032913Y040526D02*
X032759Y040372D01*
X032606Y040526D01*
X032606Y040832D01*
X032453Y040756D02*
X032453Y040679D01*
X032376Y040602D01*
X032453Y040526D01*
X032453Y040449D01*
X032376Y040372D01*
X032222Y040372D01*
X032146Y040449D01*
X032299Y040602D02*
X032376Y040602D01*
X032453Y040756D02*
X032376Y040832D01*
X032222Y040832D01*
X032146Y040756D01*
X032222Y041372D02*
X032146Y041449D01*
X032222Y041372D02*
X032376Y041372D01*
X032453Y041449D01*
X032453Y041526D01*
X032376Y041602D01*
X032299Y041602D01*
X032376Y041602D02*
X032453Y041679D01*
X032453Y041756D01*
X032376Y041832D01*
X032222Y041832D01*
X032146Y041756D01*
X032606Y041832D02*
X032606Y041526D01*
X032759Y041372D01*
X032913Y041526D01*
X032913Y041832D01*
X033066Y041756D02*
X033143Y041832D01*
X033297Y041832D01*
X033373Y041756D01*
X033373Y041679D01*
X033297Y041602D01*
X033373Y041526D01*
X033373Y041449D01*
X033297Y041372D01*
X033143Y041372D01*
X033066Y041449D01*
X033220Y041602D02*
X033297Y041602D01*
X037896Y040756D02*
X037896Y040449D01*
X037972Y040372D01*
X038126Y040372D01*
X038203Y040449D01*
X038203Y040602D01*
X038049Y040602D01*
X037896Y040756D02*
X037972Y040832D01*
X038126Y040832D01*
X038203Y040756D01*
X038356Y040832D02*
X038586Y040832D01*
X038663Y040756D01*
X038663Y040602D01*
X038586Y040526D01*
X038356Y040526D01*
X038356Y040372D02*
X038356Y040832D01*
X038816Y040832D02*
X038970Y040832D01*
X038893Y040832D02*
X038893Y040372D01*
X038816Y040372D02*
X038970Y040372D01*
X039123Y040449D02*
X039200Y040372D01*
X039353Y040372D01*
X039430Y040449D01*
X039430Y040756D01*
X039353Y040832D01*
X039200Y040832D01*
X039123Y040756D01*
X039123Y040449D01*
X039200Y039832D02*
X039123Y039756D01*
X039123Y039449D01*
X039200Y039372D01*
X039353Y039372D01*
X039430Y039449D01*
X039430Y039756D01*
X039353Y039832D01*
X039200Y039832D01*
X038970Y039832D02*
X038816Y039832D01*
X038893Y039832D02*
X038893Y039372D01*
X038816Y039372D02*
X038970Y039372D01*
X038663Y039602D02*
X038663Y039756D01*
X038586Y039832D01*
X038356Y039832D01*
X038356Y039372D01*
X038356Y039526D02*
X038586Y039526D01*
X038663Y039602D01*
X038203Y039602D02*
X038049Y039602D01*
X038203Y039602D02*
X038203Y039449D01*
X038126Y039372D01*
X037972Y039372D01*
X037896Y039449D01*
X037896Y039756D01*
X037972Y039832D01*
X038126Y039832D01*
X038203Y039756D01*
X040044Y039602D02*
X040351Y039602D01*
X040504Y039602D02*
X040811Y039602D01*
X040735Y039372D02*
X040735Y039832D01*
X040504Y039602D01*
X040274Y039372D02*
X040274Y039832D01*
X040044Y039602D01*
X040274Y040372D02*
X040274Y040832D01*
X040044Y040602D01*
X040351Y040602D01*
X040504Y040449D02*
X040581Y040372D01*
X040735Y040372D01*
X040811Y040449D01*
X040811Y040526D01*
X040735Y040602D01*
X040658Y040602D01*
X040735Y040602D02*
X040811Y040679D01*
X040811Y040756D01*
X040735Y040832D01*
X040581Y040832D01*
X040504Y040756D01*
X040297Y041372D02*
X040066Y041372D01*
X040066Y041832D01*
X040297Y041832D01*
X040373Y041756D01*
X040373Y041449D01*
X040297Y041372D01*
X039913Y041372D02*
X039913Y041832D01*
X039606Y041832D02*
X039913Y041372D01*
X039606Y041372D02*
X039606Y041832D01*
X039453Y041756D02*
X039376Y041832D01*
X039222Y041832D01*
X039146Y041756D01*
X039146Y041449D01*
X039222Y041372D01*
X039376Y041372D01*
X039453Y041449D01*
X039453Y041602D01*
X039299Y041602D01*
X039220Y038832D02*
X039066Y038832D01*
X039143Y038832D02*
X039143Y038372D01*
X039066Y038372D02*
X039220Y038372D01*
X039373Y038449D02*
X039450Y038372D01*
X039603Y038372D01*
X039680Y038449D01*
X039680Y038756D01*
X039603Y038832D01*
X039450Y038832D01*
X039373Y038756D01*
X039373Y038449D01*
X038913Y038602D02*
X038836Y038526D01*
X038606Y038526D01*
X038606Y038372D02*
X038606Y038832D01*
X038836Y038832D01*
X038913Y038756D01*
X038913Y038602D01*
X038453Y038602D02*
X038299Y038602D01*
X038453Y038602D02*
X038453Y038449D01*
X038376Y038372D01*
X038222Y038372D01*
X038146Y038449D01*
X038146Y038756D01*
X038222Y038832D01*
X038376Y038832D01*
X038453Y038756D01*
X038376Y037832D02*
X038222Y037832D01*
X038146Y037756D01*
X038146Y037449D01*
X038222Y037372D01*
X038376Y037372D01*
X038453Y037449D01*
X038453Y037602D01*
X038299Y037602D01*
X038453Y037756D02*
X038376Y037832D01*
X038606Y037832D02*
X038836Y037832D01*
X038913Y037756D01*
X038913Y037602D01*
X038836Y037526D01*
X038606Y037526D01*
X038606Y037372D02*
X038606Y037832D01*
X039066Y037832D02*
X039220Y037832D01*
X039143Y037832D02*
X039143Y037372D01*
X039066Y037372D02*
X039220Y037372D01*
X039373Y037449D02*
X039450Y037372D01*
X039603Y037372D01*
X039680Y037449D01*
X039680Y037756D01*
X039603Y037832D01*
X039450Y037832D01*
X039373Y037756D01*
X039373Y037449D01*
X039353Y036832D02*
X039430Y036756D01*
X039430Y036449D01*
X039353Y036372D01*
X039200Y036372D01*
X039123Y036449D01*
X039123Y036756D01*
X039200Y036832D01*
X039353Y036832D01*
X038970Y036832D02*
X038816Y036832D01*
X038893Y036832D02*
X038893Y036372D01*
X038816Y036372D02*
X038970Y036372D01*
X038663Y036602D02*
X038663Y036756D01*
X038586Y036832D01*
X038356Y036832D01*
X038356Y036372D01*
X038356Y036526D02*
X038586Y036526D01*
X038663Y036602D01*
X038203Y036602D02*
X038049Y036602D01*
X038203Y036602D02*
X038203Y036449D01*
X038126Y036372D01*
X037972Y036372D01*
X037896Y036449D01*
X037896Y036756D01*
X037972Y036832D01*
X038126Y036832D01*
X038203Y036756D01*
X038126Y035832D02*
X037972Y035832D01*
X037896Y035756D01*
X037896Y035449D01*
X037972Y035372D01*
X038126Y035372D01*
X038203Y035449D01*
X038203Y035602D01*
X038049Y035602D01*
X038203Y035756D02*
X038126Y035832D01*
X038356Y035832D02*
X038586Y035832D01*
X038663Y035756D01*
X038663Y035602D01*
X038586Y035526D01*
X038356Y035526D01*
X038356Y035372D02*
X038356Y035832D01*
X038816Y035832D02*
X038970Y035832D01*
X038893Y035832D02*
X038893Y035372D01*
X038816Y035372D02*
X038970Y035372D01*
X039123Y035449D02*
X039200Y035372D01*
X039353Y035372D01*
X039430Y035449D01*
X039430Y035756D01*
X039353Y035832D01*
X039200Y035832D01*
X039123Y035756D01*
X039123Y035449D01*
X040044Y035602D02*
X040351Y035602D01*
X040504Y035679D02*
X040658Y035832D01*
X040658Y035372D01*
X040811Y035372D02*
X040504Y035372D01*
X040274Y035372D02*
X040274Y035832D01*
X040044Y035602D01*
X040274Y034832D02*
X040044Y034602D01*
X040351Y034602D01*
X040504Y034449D02*
X040811Y034756D01*
X040811Y034449D01*
X040735Y034372D01*
X040581Y034372D01*
X040504Y034449D01*
X040504Y034756D01*
X040581Y034832D01*
X040735Y034832D01*
X040811Y034756D01*
X040274Y034832D02*
X040274Y034372D01*
X040274Y033832D02*
X040351Y033756D01*
X040351Y033679D01*
X040274Y033602D01*
X040351Y033526D01*
X040351Y033449D01*
X040274Y033372D01*
X040121Y033372D01*
X040044Y033449D01*
X040198Y033602D02*
X040274Y033602D01*
X040274Y033832D02*
X040121Y033832D01*
X040044Y033756D01*
X040504Y033756D02*
X040504Y033679D01*
X040581Y033602D01*
X040811Y033602D01*
X040811Y033449D02*
X040811Y033756D01*
X040735Y033832D01*
X040581Y033832D01*
X040504Y033756D01*
X040504Y033449D02*
X040581Y033372D01*
X040735Y033372D01*
X040811Y033449D01*
X040735Y032832D02*
X040811Y032756D01*
X040811Y032679D01*
X040735Y032602D01*
X040581Y032602D01*
X040504Y032679D01*
X040504Y032756D01*
X040581Y032832D01*
X040735Y032832D01*
X040735Y032602D02*
X040811Y032526D01*
X040811Y032449D01*
X040735Y032372D01*
X040581Y032372D01*
X040504Y032449D01*
X040504Y032526D01*
X040581Y032602D01*
X040351Y032526D02*
X040274Y032602D01*
X040198Y032602D01*
X040274Y032602D02*
X040351Y032679D01*
X040351Y032756D01*
X040274Y032832D01*
X040121Y032832D01*
X040044Y032756D01*
X040044Y032449D02*
X040121Y032372D01*
X040274Y032372D01*
X040351Y032449D01*
X040351Y032526D01*
X040274Y031832D02*
X040351Y031756D01*
X040351Y031679D01*
X040274Y031602D01*
X040351Y031526D01*
X040351Y031449D01*
X040274Y031372D01*
X040121Y031372D01*
X040044Y031449D01*
X040198Y031602D02*
X040274Y031602D01*
X040274Y031832D02*
X040121Y031832D01*
X040044Y031756D01*
X040504Y031832D02*
X040811Y031832D01*
X040811Y031756D01*
X040504Y031449D01*
X040504Y031372D01*
X040274Y030832D02*
X040351Y030756D01*
X040351Y030679D01*
X040274Y030602D01*
X040351Y030526D01*
X040351Y030449D01*
X040274Y030372D01*
X040121Y030372D01*
X040044Y030449D01*
X040198Y030602D02*
X040274Y030602D01*
X040274Y030832D02*
X040121Y030832D01*
X040044Y030756D01*
X040504Y030602D02*
X040735Y030602D01*
X040811Y030526D01*
X040811Y030449D01*
X040735Y030372D01*
X040581Y030372D01*
X040504Y030449D01*
X040504Y030602D01*
X040658Y030756D01*
X040811Y030832D01*
X039430Y030756D02*
X039353Y030832D01*
X039200Y030832D01*
X039123Y030756D01*
X039123Y030449D01*
X039200Y030372D01*
X039353Y030372D01*
X039430Y030449D01*
X039430Y030756D01*
X038970Y030832D02*
X038816Y030832D01*
X038893Y030832D02*
X038893Y030372D01*
X038816Y030372D02*
X038970Y030372D01*
X038663Y030602D02*
X038586Y030526D01*
X038356Y030526D01*
X038356Y030372D02*
X038356Y030832D01*
X038586Y030832D01*
X038663Y030756D01*
X038663Y030602D01*
X038203Y030602D02*
X038049Y030602D01*
X038203Y030602D02*
X038203Y030449D01*
X038126Y030372D01*
X037972Y030372D01*
X037896Y030449D01*
X037896Y030756D01*
X037972Y030832D01*
X038126Y030832D01*
X038203Y030756D01*
X038126Y031372D02*
X037972Y031372D01*
X037896Y031449D01*
X037896Y031756D01*
X037972Y031832D01*
X038126Y031832D01*
X038203Y031756D01*
X038203Y031602D02*
X038049Y031602D01*
X038203Y031602D02*
X038203Y031449D01*
X038126Y031372D01*
X038356Y031372D02*
X038356Y031832D01*
X038586Y031832D01*
X038663Y031756D01*
X038663Y031602D01*
X038586Y031526D01*
X038356Y031526D01*
X038816Y031372D02*
X038970Y031372D01*
X038893Y031372D02*
X038893Y031832D01*
X038816Y031832D02*
X038970Y031832D01*
X039123Y031756D02*
X039123Y031449D01*
X039200Y031372D01*
X039353Y031372D01*
X039430Y031449D01*
X039430Y031756D01*
X039353Y031832D01*
X039200Y031832D01*
X039123Y031756D01*
X039200Y032372D02*
X039353Y032372D01*
X039430Y032449D01*
X039430Y032756D01*
X039353Y032832D01*
X039200Y032832D01*
X039123Y032756D01*
X039123Y032449D01*
X039200Y032372D01*
X038970Y032372D02*
X038816Y032372D01*
X038893Y032372D02*
X038893Y032832D01*
X038816Y032832D02*
X038970Y032832D01*
X038663Y032756D02*
X038663Y032602D01*
X038586Y032526D01*
X038356Y032526D01*
X038356Y032372D02*
X038356Y032832D01*
X038586Y032832D01*
X038663Y032756D01*
X038203Y032756D02*
X038126Y032832D01*
X037972Y032832D01*
X037896Y032756D01*
X037896Y032449D01*
X037972Y032372D01*
X038126Y032372D01*
X038203Y032449D01*
X038203Y032602D01*
X038049Y032602D01*
X037972Y033372D02*
X038126Y033372D01*
X038203Y033449D01*
X038203Y033602D01*
X038049Y033602D01*
X037896Y033449D02*
X037972Y033372D01*
X037896Y033449D02*
X037896Y033756D01*
X037972Y033832D01*
X038126Y033832D01*
X038203Y033756D01*
X038356Y033832D02*
X038586Y033832D01*
X038663Y033756D01*
X038663Y033602D01*
X038586Y033526D01*
X038356Y033526D01*
X038356Y033372D02*
X038356Y033832D01*
X038816Y033832D02*
X038970Y033832D01*
X038893Y033832D02*
X038893Y033372D01*
X038816Y033372D02*
X038970Y033372D01*
X039123Y033449D02*
X039200Y033372D01*
X039353Y033372D01*
X039430Y033449D01*
X039430Y033756D01*
X039353Y033832D01*
X039200Y033832D01*
X039123Y033756D01*
X039123Y033449D01*
X039200Y034372D02*
X039353Y034372D01*
X039430Y034449D01*
X039430Y034756D01*
X039353Y034832D01*
X039200Y034832D01*
X039123Y034756D01*
X039123Y034449D01*
X039200Y034372D01*
X038970Y034372D02*
X038816Y034372D01*
X038893Y034372D02*
X038893Y034832D01*
X038816Y034832D02*
X038970Y034832D01*
X038663Y034756D02*
X038663Y034602D01*
X038586Y034526D01*
X038356Y034526D01*
X038356Y034372D02*
X038356Y034832D01*
X038586Y034832D01*
X038663Y034756D01*
X038203Y034756D02*
X038126Y034832D01*
X037972Y034832D01*
X037896Y034756D01*
X037896Y034449D01*
X037972Y034372D01*
X038126Y034372D01*
X038203Y034449D01*
X038203Y034602D01*
X038049Y034602D01*
X040044Y036602D02*
X040351Y036602D01*
X040504Y036756D02*
X040581Y036832D01*
X040735Y036832D01*
X040811Y036756D01*
X040811Y036679D01*
X040504Y036372D01*
X040811Y036372D01*
X040274Y036372D02*
X040274Y036832D01*
X040044Y036602D01*
X040294Y037372D02*
X040601Y037679D01*
X040601Y037756D01*
X040524Y037832D01*
X040371Y037832D01*
X040294Y037756D01*
X040294Y037372D02*
X040601Y037372D01*
X040601Y038372D02*
X040294Y038372D01*
X040448Y038372D02*
X040448Y038832D01*
X040294Y038679D01*
X034601Y036832D02*
X034448Y036756D01*
X034294Y036602D01*
X034524Y036602D01*
X034601Y036526D01*
X034601Y036449D01*
X034524Y036372D01*
X034371Y036372D01*
X034294Y036449D01*
X034294Y036602D01*
X034294Y035832D02*
X034601Y035832D01*
X034601Y035756D01*
X034294Y035449D01*
X034294Y035372D01*
X033603Y033832D02*
X033680Y033756D01*
X033680Y033449D01*
X033603Y033372D01*
X033450Y033372D01*
X033373Y033449D01*
X033373Y033756D01*
X033450Y033832D01*
X033603Y033832D01*
X033220Y033832D02*
X033066Y033832D01*
X033143Y033832D02*
X033143Y033372D01*
X033066Y033372D02*
X033220Y033372D01*
X032913Y033602D02*
X032836Y033526D01*
X032606Y033526D01*
X032606Y033372D02*
X032606Y033832D01*
X032836Y033832D01*
X032913Y033756D01*
X032913Y033602D01*
X032453Y033602D02*
X032453Y033449D01*
X032376Y033372D01*
X032222Y033372D01*
X032146Y033449D01*
X032146Y033756D01*
X032222Y033832D01*
X032376Y033832D01*
X032453Y033756D01*
X032453Y033602D02*
X032299Y033602D01*
X032222Y032832D02*
X032146Y032756D01*
X032146Y032449D01*
X032222Y032372D01*
X032376Y032372D01*
X032453Y032449D01*
X032453Y032602D01*
X032299Y032602D01*
X032453Y032756D02*
X032376Y032832D01*
X032222Y032832D01*
X032606Y032832D02*
X032606Y032372D01*
X032606Y032526D02*
X032836Y032526D01*
X032913Y032602D01*
X032913Y032756D01*
X032836Y032832D01*
X032606Y032832D01*
X033066Y032832D02*
X033220Y032832D01*
X033143Y032832D02*
X033143Y032372D01*
X033066Y032372D02*
X033220Y032372D01*
X033373Y032449D02*
X033450Y032372D01*
X033603Y032372D01*
X033680Y032449D01*
X033680Y032756D01*
X033603Y032832D01*
X033450Y032832D01*
X033373Y032756D01*
X033373Y032449D01*
X037896Y029756D02*
X037896Y029449D01*
X037972Y029372D01*
X038126Y029372D01*
X038203Y029449D01*
X038203Y029602D01*
X038049Y029602D01*
X037896Y029756D02*
X037972Y029832D01*
X038126Y029832D01*
X038203Y029756D01*
X038356Y029832D02*
X038586Y029832D01*
X038663Y029756D01*
X038663Y029602D01*
X038586Y029526D01*
X038356Y029526D01*
X038356Y029372D02*
X038356Y029832D01*
X038816Y029832D02*
X038970Y029832D01*
X038893Y029832D02*
X038893Y029372D01*
X038816Y029372D02*
X038970Y029372D01*
X039123Y029449D02*
X039200Y029372D01*
X039353Y029372D01*
X039430Y029449D01*
X039430Y029756D01*
X039353Y029832D01*
X039200Y029832D01*
X039123Y029756D01*
X039123Y029449D01*
X039143Y028832D02*
X039143Y028372D01*
X039066Y028372D02*
X039220Y028372D01*
X039373Y028449D02*
X039450Y028372D01*
X039603Y028372D01*
X039680Y028449D01*
X039680Y028756D01*
X039603Y028832D01*
X039450Y028832D01*
X039373Y028756D01*
X039373Y028449D01*
X039220Y028832D02*
X039066Y028832D01*
X038913Y028756D02*
X038913Y028602D01*
X038836Y028526D01*
X038606Y028526D01*
X038606Y028372D02*
X038606Y028832D01*
X038836Y028832D01*
X038913Y028756D01*
X038453Y028756D02*
X038376Y028832D01*
X038222Y028832D01*
X038146Y028756D01*
X038146Y028449D01*
X038222Y028372D01*
X038376Y028372D01*
X038453Y028449D01*
X038453Y028602D01*
X038299Y028602D01*
X038356Y027832D02*
X038586Y027832D01*
X038663Y027756D01*
X038663Y027602D01*
X038586Y027526D01*
X038356Y027526D01*
X038356Y027372D02*
X038356Y027832D01*
X038203Y027756D02*
X038126Y027832D01*
X037972Y027832D01*
X037896Y027756D01*
X037896Y027449D01*
X037972Y027372D01*
X038126Y027372D01*
X038203Y027449D01*
X038203Y027602D01*
X038049Y027602D01*
X037972Y026832D02*
X037896Y026756D01*
X037896Y026449D01*
X037972Y026372D01*
X038126Y026372D01*
X038203Y026449D01*
X038203Y026602D01*
X038049Y026602D01*
X038203Y026756D02*
X038126Y026832D01*
X037972Y026832D01*
X038356Y026832D02*
X038356Y026372D01*
X038356Y026526D02*
X038586Y026526D01*
X038663Y026602D01*
X038663Y026756D01*
X038586Y026832D01*
X038356Y026832D01*
X038816Y026832D02*
X038970Y026832D01*
X038893Y026832D02*
X038893Y026372D01*
X038816Y026372D02*
X038970Y026372D01*
X039123Y026449D02*
X039200Y026372D01*
X039353Y026372D01*
X039430Y026449D01*
X039430Y026756D01*
X039353Y026832D01*
X039200Y026832D01*
X039123Y026756D01*
X039123Y026449D01*
X040044Y026602D02*
X040351Y026602D01*
X040504Y026526D02*
X040581Y026602D01*
X040735Y026602D01*
X040811Y026526D01*
X040811Y026449D01*
X040735Y026372D01*
X040581Y026372D01*
X040504Y026449D01*
X040504Y026526D01*
X040581Y026602D02*
X040504Y026679D01*
X040504Y026756D01*
X040581Y026832D01*
X040735Y026832D01*
X040811Y026756D01*
X040811Y026679D01*
X040735Y026602D01*
X040274Y026372D02*
X040274Y026832D01*
X040044Y026602D01*
X040274Y025832D02*
X040044Y025602D01*
X040351Y025602D01*
X040504Y025449D02*
X040504Y025372D01*
X040504Y025449D02*
X040811Y025756D01*
X040811Y025832D01*
X040504Y025832D01*
X040274Y025832D02*
X040274Y025372D01*
X040274Y024832D02*
X040121Y024832D01*
X040044Y024756D01*
X040274Y024832D02*
X040351Y024756D01*
X040351Y024679D01*
X040044Y024372D01*
X040351Y024372D01*
X040504Y024372D02*
X040811Y024372D01*
X040658Y024372D02*
X040658Y024832D01*
X040504Y024679D01*
X039430Y024756D02*
X039430Y024449D01*
X039353Y024372D01*
X039200Y024372D01*
X039123Y024449D01*
X039123Y024756D01*
X039200Y024832D01*
X039353Y024832D01*
X039430Y024756D01*
X038970Y024832D02*
X038816Y024832D01*
X038893Y024832D02*
X038893Y024372D01*
X038816Y024372D02*
X038970Y024372D01*
X038663Y024602D02*
X038586Y024526D01*
X038356Y024526D01*
X038356Y024372D02*
X038356Y024832D01*
X038586Y024832D01*
X038663Y024756D01*
X038663Y024602D01*
X038203Y024602D02*
X038049Y024602D01*
X038203Y024602D02*
X038203Y024449D01*
X038126Y024372D01*
X037972Y024372D01*
X037896Y024449D01*
X037896Y024756D01*
X037972Y024832D01*
X038126Y024832D01*
X038203Y024756D01*
X038126Y025372D02*
X037972Y025372D01*
X037896Y025449D01*
X037896Y025756D01*
X037972Y025832D01*
X038126Y025832D01*
X038203Y025756D01*
X038203Y025602D02*
X038049Y025602D01*
X038203Y025602D02*
X038203Y025449D01*
X038126Y025372D01*
X038356Y025372D02*
X038356Y025832D01*
X038586Y025832D01*
X038663Y025756D01*
X038663Y025602D01*
X038586Y025526D01*
X038356Y025526D01*
X038816Y025372D02*
X038970Y025372D01*
X038893Y025372D02*
X038893Y025832D01*
X038816Y025832D02*
X038970Y025832D01*
X039123Y025756D02*
X039123Y025449D01*
X039200Y025372D01*
X039353Y025372D01*
X039430Y025449D01*
X039430Y025756D01*
X039353Y025832D01*
X039200Y025832D01*
X039123Y025756D01*
X039200Y027372D02*
X039353Y027372D01*
X039430Y027449D01*
X039430Y027756D01*
X039353Y027832D01*
X039200Y027832D01*
X039123Y027756D01*
X039123Y027449D01*
X039200Y027372D01*
X038970Y027372D02*
X038816Y027372D01*
X038893Y027372D02*
X038893Y027832D01*
X038816Y027832D02*
X038970Y027832D01*
X040044Y027602D02*
X040351Y027602D01*
X040504Y027602D02*
X040658Y027679D01*
X040735Y027679D01*
X040811Y027602D01*
X040811Y027449D01*
X040735Y027372D01*
X040581Y027372D01*
X040504Y027449D01*
X040504Y027602D02*
X040504Y027832D01*
X040811Y027832D01*
X040274Y027832D02*
X040274Y027372D01*
X040044Y027602D02*
X040274Y027832D01*
X040371Y028372D02*
X040294Y028449D01*
X040601Y028756D01*
X040601Y028449D01*
X040524Y028372D01*
X040371Y028372D01*
X040294Y028449D02*
X040294Y028756D01*
X040371Y028832D01*
X040524Y028832D01*
X040601Y028756D01*
X040581Y029372D02*
X040504Y029449D01*
X040581Y029372D02*
X040735Y029372D01*
X040811Y029449D01*
X040811Y029602D01*
X040735Y029679D01*
X040658Y029679D01*
X040504Y029602D01*
X040504Y029832D01*
X040811Y029832D01*
X040351Y029756D02*
X040351Y029679D01*
X040274Y029602D01*
X040351Y029526D01*
X040351Y029449D01*
X040274Y029372D01*
X040121Y029372D01*
X040044Y029449D01*
X040198Y029602D02*
X040274Y029602D01*
X040351Y029756D02*
X040274Y029832D01*
X040121Y029832D01*
X040044Y029756D01*
X045695Y027984D02*
X046056Y027984D01*
X046056Y027864D02*
X046056Y028104D01*
X045815Y027864D02*
X045695Y027984D01*
X045695Y027736D02*
X045695Y027616D01*
X045695Y027676D02*
X045996Y027676D01*
X046056Y027616D01*
X046056Y027555D01*
X045996Y027495D01*
X040811Y023756D02*
X040735Y023832D01*
X040581Y023832D01*
X040504Y023756D01*
X040504Y023449D01*
X040811Y023756D01*
X040811Y023449D01*
X040735Y023372D01*
X040581Y023372D01*
X040504Y023449D01*
X040351Y023372D02*
X040044Y023372D01*
X040351Y023679D01*
X040351Y023756D01*
X040274Y023832D01*
X040121Y023832D01*
X040044Y023756D01*
X039430Y023756D02*
X039353Y023832D01*
X039200Y023832D01*
X039123Y023756D01*
X039123Y023449D01*
X039200Y023372D01*
X039353Y023372D01*
X039430Y023449D01*
X039430Y023756D01*
X038970Y023832D02*
X038816Y023832D01*
X038893Y023832D02*
X038893Y023372D01*
X038816Y023372D02*
X038970Y023372D01*
X038663Y023602D02*
X038663Y023756D01*
X038586Y023832D01*
X038356Y023832D01*
X038356Y023372D01*
X038356Y023526D02*
X038586Y023526D01*
X038663Y023602D01*
X038203Y023602D02*
X038049Y023602D01*
X038203Y023602D02*
X038203Y023449D01*
X038126Y023372D01*
X037972Y023372D01*
X037896Y023449D01*
X037896Y023756D01*
X037972Y023832D01*
X038126Y023832D01*
X038203Y023756D01*
X038126Y022832D02*
X037972Y022832D01*
X037896Y022756D01*
X037896Y022449D01*
X037972Y022372D01*
X038126Y022372D01*
X038203Y022449D01*
X038203Y022602D01*
X038049Y022602D01*
X038203Y022756D02*
X038126Y022832D01*
X038356Y022832D02*
X038586Y022832D01*
X038663Y022756D01*
X038663Y022602D01*
X038586Y022526D01*
X038356Y022526D01*
X038356Y022372D02*
X038356Y022832D01*
X038816Y022832D02*
X038970Y022832D01*
X038893Y022832D02*
X038893Y022372D01*
X038816Y022372D02*
X038970Y022372D01*
X039123Y022449D02*
X039200Y022372D01*
X039353Y022372D01*
X039430Y022449D01*
X039430Y022756D01*
X039353Y022832D01*
X039200Y022832D01*
X039123Y022756D01*
X039123Y022449D01*
X040044Y022372D02*
X040351Y022372D01*
X040198Y022372D02*
X040198Y022832D01*
X040044Y022679D01*
X040504Y022679D02*
X040581Y022602D01*
X040811Y022602D01*
X040811Y022449D02*
X040811Y022756D01*
X040735Y022832D01*
X040581Y022832D01*
X040504Y022756D01*
X040504Y022679D01*
X040504Y022449D02*
X040581Y022372D01*
X040735Y022372D01*
X040811Y022449D01*
X040297Y021832D02*
X040066Y021832D01*
X040066Y021372D01*
X040297Y021372D01*
X040373Y021449D01*
X040373Y021756D01*
X040297Y021832D01*
X039913Y021832D02*
X039913Y021372D01*
X039606Y021832D01*
X039606Y021372D01*
X039453Y021449D02*
X039453Y021602D01*
X039299Y021602D01*
X039146Y021449D02*
X039222Y021372D01*
X039376Y021372D01*
X039453Y021449D01*
X039453Y021756D02*
X039376Y021832D01*
X039222Y021832D01*
X039146Y021756D01*
X039146Y021449D01*
X039222Y020832D02*
X039146Y020756D01*
X039146Y020449D01*
X039222Y020372D01*
X039376Y020372D01*
X039453Y020449D01*
X039453Y020602D01*
X039299Y020602D01*
X039453Y020756D02*
X039376Y020832D01*
X039222Y020832D01*
X039606Y020832D02*
X039913Y020372D01*
X039913Y020832D01*
X040066Y020832D02*
X040297Y020832D01*
X040373Y020756D01*
X040373Y020449D01*
X040297Y020372D01*
X040066Y020372D01*
X040066Y020832D01*
X039606Y020832D02*
X039606Y020372D01*
X039348Y016103D02*
X039168Y016103D01*
X039168Y015743D01*
X039348Y015743D01*
X039408Y015803D01*
X039408Y016043D01*
X039348Y016103D01*
X039596Y015983D02*
X039716Y015983D01*
X039776Y015923D01*
X039776Y015743D01*
X039596Y015743D01*
X039536Y015803D01*
X039596Y015863D01*
X039776Y015863D01*
X039904Y015983D02*
X040024Y015983D01*
X039964Y016043D02*
X039964Y015803D01*
X040024Y015743D01*
X040150Y015803D02*
X040210Y015863D01*
X040390Y015863D01*
X040390Y015923D02*
X040390Y015743D01*
X040210Y015743D01*
X040150Y015803D01*
X040210Y015983D02*
X040330Y015983D01*
X040390Y015923D01*
X038671Y015983D02*
X038611Y015923D01*
X038431Y015923D01*
X038303Y015863D02*
X038303Y015803D01*
X038243Y015743D01*
X038123Y015743D01*
X038063Y015803D01*
X037935Y015803D02*
X037935Y016103D01*
X038063Y016043D02*
X038063Y015983D01*
X038123Y015923D01*
X038243Y015923D01*
X038303Y015863D01*
X038431Y015743D02*
X038611Y015743D01*
X038671Y015803D01*
X038671Y015863D01*
X038611Y015923D01*
X038671Y015983D02*
X038671Y016043D01*
X038611Y016103D01*
X038431Y016103D01*
X038431Y015743D01*
X038303Y016043D02*
X038243Y016103D01*
X038123Y016103D01*
X038063Y016043D01*
X037935Y015803D02*
X037875Y015743D01*
X037754Y015743D01*
X037694Y015803D01*
X037694Y016103D01*
X037748Y011930D02*
X037929Y011930D01*
X037989Y011869D01*
X037989Y011749D01*
X037929Y011689D01*
X037748Y011689D01*
X037748Y011569D02*
X037748Y011930D01*
X038117Y011930D02*
X038117Y011569D01*
X038237Y011689D01*
X038357Y011569D01*
X038357Y011930D01*
X038485Y011509D02*
X038725Y011509D01*
X038853Y011629D02*
X038913Y011569D01*
X039034Y011569D01*
X039094Y011629D01*
X039094Y011689D01*
X039034Y011749D01*
X038913Y011749D01*
X038853Y011809D01*
X038853Y011869D01*
X038913Y011930D01*
X039034Y011930D01*
X039094Y011869D01*
X039222Y011930D02*
X039222Y011569D01*
X039342Y011689D01*
X039462Y011569D01*
X039462Y011930D01*
X048273Y018926D02*
X048333Y018866D01*
X048453Y018866D01*
X048513Y018926D01*
X048513Y019226D01*
X048641Y019226D02*
X048822Y019226D01*
X048882Y019166D01*
X048882Y019106D01*
X048822Y019046D01*
X048641Y019046D01*
X048641Y018866D02*
X048641Y019226D01*
X048822Y019046D02*
X048882Y018986D01*
X048882Y018926D01*
X048822Y018866D01*
X048641Y018866D01*
X048273Y018926D02*
X048273Y019226D01*
X049010Y019166D02*
X049010Y019106D01*
X049070Y019046D01*
X049190Y019046D01*
X049250Y018986D01*
X049250Y018926D01*
X049190Y018866D01*
X049070Y018866D01*
X049010Y018926D01*
X049010Y019166D02*
X049070Y019226D01*
X049190Y019226D01*
X049250Y019166D01*
X049378Y019166D02*
X049438Y019226D01*
X049558Y019226D01*
X049618Y019166D01*
X049618Y019106D01*
X049378Y018866D01*
X049618Y018866D01*
X032222Y037372D02*
X032146Y037449D01*
D15*
X028202Y039662D02*
X028202Y039909D01*
X028202Y039785D02*
X027831Y039785D01*
X027955Y039662D01*
X027722Y039691D02*
X027351Y039691D01*
X027351Y039877D01*
X027413Y039938D01*
X027536Y039938D01*
X027598Y039877D01*
X027598Y039691D01*
X027598Y039815D02*
X027722Y039938D01*
X027660Y040060D02*
X027598Y040060D01*
X027536Y040121D01*
X027536Y040245D01*
X027598Y040307D01*
X027660Y040307D01*
X027722Y040245D01*
X027722Y040121D01*
X027660Y040060D01*
X027536Y040121D02*
X027475Y040060D01*
X027413Y040060D01*
X027351Y040121D01*
X027351Y040245D01*
X027413Y040307D01*
X027475Y040307D01*
X027536Y040245D01*
X027831Y040216D02*
X027831Y040092D01*
X027893Y040030D01*
X028140Y040030D01*
X027893Y040277D01*
X028140Y040277D01*
X028202Y040216D01*
X028202Y040092D01*
X028140Y040030D01*
X027893Y040277D02*
X027831Y040216D01*
X027831Y040399D02*
X028202Y040399D01*
X028078Y040399D02*
X027955Y040584D01*
X028078Y040399D02*
X028202Y040584D01*
X027660Y039570D02*
X027413Y039323D01*
X027536Y039323D02*
X027536Y039570D01*
X027413Y039570D02*
X027660Y039323D01*
X027660Y039447D02*
X027413Y039447D01*
X027016Y037755D02*
X026830Y037755D01*
X026830Y037508D01*
X026709Y037569D02*
X026647Y037508D01*
X026524Y037508D01*
X026462Y037569D01*
X026709Y037816D01*
X026709Y037569D01*
X026462Y037569D02*
X026462Y037816D01*
X026524Y037878D01*
X026647Y037878D01*
X026709Y037816D01*
X027016Y037755D02*
X027077Y037693D01*
X027077Y037508D01*
X026971Y037208D02*
X027032Y037146D01*
X027032Y037085D01*
X026971Y037023D01*
X027032Y036961D01*
X027032Y036899D01*
X026971Y036838D01*
X026847Y036838D01*
X026785Y036899D01*
X026664Y036838D02*
X026417Y036838D01*
X026541Y036838D02*
X026541Y037208D01*
X026417Y037085D01*
X026296Y037146D02*
X026234Y037208D01*
X026111Y037208D01*
X026049Y037146D01*
X026049Y036899D01*
X026111Y036838D01*
X026234Y036838D01*
X026296Y036899D01*
X026785Y037146D02*
X026847Y037208D01*
X026971Y037208D01*
X026971Y037023D02*
X026909Y037023D01*
X026341Y037508D02*
X026094Y037508D01*
X026217Y037508D02*
X026217Y037878D01*
X026094Y037755D01*
X025377Y037695D02*
X025377Y037509D01*
X025377Y037695D02*
X025316Y037756D01*
X025131Y037756D01*
X025131Y037509D01*
X025009Y037571D02*
X024947Y037509D01*
X024824Y037509D01*
X024762Y037571D01*
X025009Y037818D01*
X025009Y037571D01*
X024762Y037571D02*
X024762Y037818D01*
X024824Y037880D01*
X024947Y037880D01*
X025009Y037818D01*
X024641Y037509D02*
X024394Y037509D01*
X024517Y037509D02*
X024517Y037880D01*
X024394Y037756D01*
X024496Y037195D02*
X024434Y037133D01*
X024434Y036886D01*
X024496Y036824D01*
X024619Y036824D01*
X024681Y036886D01*
X024802Y036886D02*
X024864Y036824D01*
X024987Y036824D01*
X025049Y036886D01*
X025049Y037133D01*
X024987Y037195D01*
X024864Y037195D01*
X024802Y037133D01*
X024802Y037071D01*
X024864Y037010D01*
X025049Y037010D01*
X024681Y037133D02*
X024619Y037195D01*
X024496Y037195D01*
X023548Y037543D02*
X023548Y037728D01*
X023487Y037790D01*
X023302Y037790D01*
X023302Y037543D01*
X023180Y037604D02*
X023118Y037543D01*
X022995Y037543D01*
X022933Y037604D01*
X023180Y037851D01*
X023180Y037604D01*
X022933Y037604D02*
X022933Y037851D01*
X022995Y037913D01*
X023118Y037913D01*
X023180Y037851D01*
X022812Y037851D02*
X022565Y037604D01*
X022627Y037543D01*
X022750Y037543D01*
X022812Y037604D01*
X022812Y037851D01*
X022750Y037913D01*
X022627Y037913D01*
X022565Y037851D01*
X022565Y037604D01*
X022443Y037543D02*
X022197Y037543D01*
X022320Y037543D02*
X022320Y037913D01*
X022197Y037790D01*
X022316Y037250D02*
X022255Y037188D01*
X022255Y036941D01*
X022316Y036880D01*
X022440Y036880D01*
X022501Y036941D01*
X022623Y036880D02*
X022870Y037127D01*
X022870Y037188D01*
X022808Y037250D01*
X022685Y037250D01*
X022623Y037188D01*
X022501Y037188D02*
X022440Y037250D01*
X022316Y037250D01*
X022623Y036880D02*
X022870Y036880D01*
X022991Y036880D02*
X023238Y036880D01*
X023115Y036880D02*
X023115Y037250D01*
X022991Y037127D01*
X020942Y036903D02*
X020695Y036903D01*
X020574Y036903D02*
X020327Y036903D01*
X020450Y036903D02*
X020450Y037274D01*
X020327Y037150D01*
X020205Y037212D02*
X020144Y037274D01*
X020020Y037274D01*
X019958Y037212D01*
X019958Y036965D01*
X020020Y036903D01*
X020144Y036903D01*
X020205Y036965D01*
X020695Y037150D02*
X020819Y037274D01*
X020819Y036903D01*
X020718Y037553D02*
X020718Y037800D01*
X020903Y037800D01*
X020965Y037739D01*
X020965Y037553D01*
X020597Y037615D02*
X020535Y037553D01*
X020411Y037553D01*
X020350Y037615D01*
X020597Y037862D01*
X020597Y037615D01*
X020597Y037862D02*
X020535Y037924D01*
X020411Y037924D01*
X020350Y037862D01*
X020350Y037615D01*
X020228Y037553D02*
X019981Y037553D01*
X020105Y037553D02*
X020105Y037924D01*
X019981Y037800D01*
X019469Y037738D02*
X019469Y037553D01*
X019469Y037738D02*
X019407Y037800D01*
X019222Y037800D01*
X019222Y037553D01*
X019101Y037614D02*
X019039Y037553D01*
X018915Y037553D01*
X018854Y037614D01*
X019101Y037861D01*
X019101Y037614D01*
X019101Y037861D02*
X019039Y037923D01*
X018915Y037923D01*
X018854Y037861D01*
X018854Y037614D01*
X018732Y037553D02*
X018485Y037553D01*
X018609Y037553D02*
X018609Y037923D01*
X018485Y037800D01*
X018502Y037255D02*
X018440Y037193D01*
X018440Y036946D01*
X018502Y036885D01*
X018626Y036885D01*
X018687Y036946D01*
X018809Y036885D02*
X019056Y036885D01*
X018932Y036885D02*
X018932Y037255D01*
X018809Y037132D01*
X018687Y037193D02*
X018626Y037255D01*
X018502Y037255D01*
X019177Y037193D02*
X019177Y036946D01*
X019424Y037193D01*
X019424Y036946D01*
X019362Y036885D01*
X019239Y036885D01*
X019177Y036946D01*
X019177Y037193D02*
X019239Y037255D01*
X019362Y037255D01*
X019424Y037193D01*
X016568Y037537D02*
X016568Y037722D01*
X016507Y037784D01*
X016322Y037784D01*
X016322Y037537D01*
X016200Y037598D02*
X016138Y037537D01*
X016015Y037537D01*
X015953Y037598D01*
X016200Y037845D01*
X016200Y037598D01*
X015953Y037598D02*
X015953Y037845D01*
X016015Y037907D01*
X016138Y037907D01*
X016200Y037845D01*
X015832Y037845D02*
X015585Y037598D01*
X015647Y037537D01*
X015770Y037537D01*
X015832Y037598D01*
X015832Y037845D01*
X015770Y037907D01*
X015647Y037907D01*
X015585Y037845D01*
X015585Y037598D01*
X015463Y037537D02*
X015217Y037537D01*
X015340Y037537D02*
X015340Y037907D01*
X015217Y037784D01*
X015393Y037254D02*
X015332Y037192D01*
X015332Y036945D01*
X015393Y036884D01*
X015517Y036884D01*
X015578Y036945D01*
X015700Y036884D02*
X015947Y037131D01*
X015947Y037192D01*
X015885Y037254D01*
X015762Y037254D01*
X015700Y037192D01*
X015578Y037192D02*
X015517Y037254D01*
X015393Y037254D01*
X015700Y036884D02*
X015947Y036884D01*
X016068Y036945D02*
X016315Y037192D01*
X016315Y036945D01*
X016253Y036884D01*
X016130Y036884D01*
X016068Y036945D01*
X016068Y037192D01*
X016130Y037254D01*
X016253Y037254D01*
X016315Y037192D01*
X013673Y036812D02*
X013426Y036812D01*
X013611Y036997D01*
X013611Y036627D01*
X013305Y036627D02*
X013058Y036627D01*
X012936Y036627D02*
X012813Y036750D01*
X012875Y036750D02*
X012689Y036750D01*
X012689Y036627D02*
X012689Y036997D01*
X012875Y036997D01*
X012936Y036935D01*
X012936Y036812D01*
X012875Y036750D01*
X013058Y036874D02*
X013181Y036997D01*
X013181Y036627D01*
X012455Y036232D02*
X012270Y036108D01*
X012455Y035985D01*
X012270Y035985D02*
X012270Y036355D01*
X012149Y036293D02*
X011902Y036047D01*
X011963Y035985D01*
X012087Y035985D01*
X012149Y036047D01*
X012149Y036293D01*
X012087Y036355D01*
X011963Y036355D01*
X011902Y036293D01*
X011902Y036047D01*
X011780Y035985D02*
X011533Y035985D01*
X011657Y035985D02*
X011657Y036355D01*
X011533Y036232D01*
X010601Y036955D02*
X010539Y036893D01*
X010416Y036893D01*
X010354Y036955D01*
X010601Y037202D01*
X010601Y036955D01*
X010354Y036955D02*
X010354Y037202D01*
X010416Y037264D01*
X010539Y037264D01*
X010601Y037202D01*
X010626Y037510D02*
X010441Y037634D01*
X010626Y037757D01*
X010441Y037881D02*
X010441Y037510D01*
X010320Y037572D02*
X010258Y037510D01*
X010135Y037510D01*
X010073Y037572D01*
X010320Y037819D01*
X010320Y037572D01*
X010320Y037819D02*
X010258Y037881D01*
X010135Y037881D01*
X010073Y037819D01*
X010073Y037572D01*
X009951Y037510D02*
X009705Y037510D01*
X009828Y037510D02*
X009828Y037881D01*
X009705Y037757D01*
X009618Y037264D02*
X009803Y037264D01*
X009864Y037202D01*
X009864Y037079D01*
X009803Y037017D01*
X009618Y037017D01*
X009741Y037017D02*
X009864Y036893D01*
X009986Y036893D02*
X010233Y036893D01*
X010109Y036893D02*
X010109Y037264D01*
X009986Y037140D01*
X009618Y037264D02*
X009618Y036893D01*
X008570Y036878D02*
X008385Y037001D01*
X008570Y037125D01*
X008385Y037248D02*
X008385Y036878D01*
X008264Y036939D02*
X008264Y037186D01*
X008017Y036939D01*
X008079Y036878D01*
X008202Y036878D01*
X008264Y036939D01*
X008017Y036939D02*
X008017Y037186D01*
X008079Y037248D01*
X008202Y037248D01*
X008264Y037186D01*
X008215Y037536D02*
X007968Y037536D01*
X007846Y037536D02*
X007723Y037659D01*
X007785Y037659D02*
X007600Y037659D01*
X007600Y037536D02*
X007600Y037906D01*
X007785Y037906D01*
X007846Y037844D01*
X007846Y037721D01*
X007785Y037659D01*
X007968Y037783D02*
X008091Y037906D01*
X008091Y037536D01*
X008336Y037536D02*
X008583Y037536D01*
X008460Y037536D02*
X008460Y037906D01*
X008336Y037783D01*
X007772Y037248D02*
X007772Y036878D01*
X007649Y036878D02*
X007895Y036878D01*
X007649Y037125D02*
X007772Y037248D01*
X007161Y037548D02*
X007161Y037734D01*
X007100Y037795D01*
X006914Y037795D01*
X006914Y037548D01*
X006793Y037610D02*
X006731Y037548D01*
X006608Y037548D01*
X006546Y037610D01*
X006793Y037857D01*
X006793Y037610D01*
X006546Y037610D02*
X006546Y037857D01*
X006608Y037919D01*
X006731Y037919D01*
X006793Y037857D01*
X006425Y037857D02*
X006178Y037610D01*
X006239Y037548D01*
X006363Y037548D01*
X006425Y037610D01*
X006425Y037857D01*
X006363Y037919D01*
X006239Y037919D01*
X006178Y037857D01*
X006178Y037610D01*
X006056Y037548D02*
X005809Y037548D01*
X005933Y037548D02*
X005933Y037919D01*
X005809Y037795D01*
X006000Y037268D02*
X005938Y037206D01*
X005938Y036959D01*
X006000Y036897D01*
X006124Y036897D01*
X006185Y036959D01*
X006307Y036897D02*
X006554Y036897D01*
X006430Y036897D02*
X006430Y037268D01*
X006307Y037144D01*
X006185Y037206D02*
X006124Y037268D01*
X006000Y037268D01*
X006675Y037206D02*
X006675Y037144D01*
X006737Y037083D01*
X006860Y037083D01*
X006922Y037021D01*
X006922Y036959D01*
X006860Y036897D01*
X006737Y036897D01*
X006675Y036959D01*
X006675Y037021D01*
X006737Y037083D01*
X006860Y037083D02*
X006922Y037144D01*
X006922Y037206D01*
X006860Y037268D01*
X006737Y037268D01*
X006675Y037206D01*
X011332Y037507D02*
X011579Y037507D01*
X011455Y037507D02*
X011455Y037878D01*
X011332Y037754D01*
X011700Y037816D02*
X011762Y037878D01*
X011885Y037878D01*
X011947Y037816D01*
X011700Y037569D01*
X011762Y037507D01*
X011885Y037507D01*
X011947Y037569D01*
X011947Y037816D01*
X012068Y037816D02*
X012130Y037878D01*
X012254Y037878D01*
X012315Y037816D01*
X012068Y037569D01*
X012130Y037507D01*
X012254Y037507D01*
X012315Y037569D01*
X012315Y037816D01*
X012437Y037754D02*
X012622Y037754D01*
X012684Y037693D01*
X012684Y037507D01*
X012437Y037507D02*
X012437Y037754D01*
X012068Y037816D02*
X012068Y037569D01*
X011700Y037569D02*
X011700Y037816D01*
X012654Y038193D02*
X012654Y038440D01*
X012715Y038502D01*
X012839Y038502D01*
X012901Y038440D01*
X013022Y038378D02*
X013145Y038502D01*
X013145Y038131D01*
X013022Y038131D02*
X013269Y038131D01*
X013390Y038193D02*
X013452Y038131D01*
X013576Y038131D01*
X013637Y038193D01*
X013637Y038440D01*
X013576Y038502D01*
X013452Y038502D01*
X013390Y038440D01*
X013390Y038378D01*
X013452Y038317D01*
X013637Y038317D01*
X012901Y038193D02*
X012839Y038131D01*
X012715Y038131D01*
X012654Y038193D01*
X012532Y041437D02*
X012581Y041485D01*
X012581Y041582D01*
X012532Y041631D01*
X012484Y041631D01*
X012435Y041582D01*
X012435Y041534D01*
X012435Y041582D02*
X012387Y041631D01*
X012339Y041631D01*
X012290Y041582D01*
X012290Y041485D01*
X012339Y041437D01*
X012290Y041732D02*
X012484Y041732D01*
X012581Y041828D01*
X012484Y041925D01*
X012290Y041925D01*
X012339Y042026D02*
X012290Y042075D01*
X012290Y042171D01*
X012339Y042220D01*
X012387Y042220D01*
X012435Y042171D01*
X012484Y042220D01*
X012532Y042220D01*
X012581Y042171D01*
X012581Y042075D01*
X012532Y042026D01*
X012435Y042123D02*
X012435Y042171D01*
X011591Y042081D02*
X011591Y041936D01*
X011300Y041936D01*
X011300Y042081D01*
X011349Y042130D01*
X011542Y042130D01*
X011591Y042081D01*
X011591Y041835D02*
X011300Y041835D01*
X011300Y041642D02*
X011591Y041835D01*
X011591Y041642D02*
X011300Y041642D01*
X011349Y041541D02*
X011300Y041492D01*
X011300Y041395D01*
X011349Y041347D01*
X011542Y041347D01*
X011591Y041395D01*
X011591Y041492D01*
X011542Y041541D01*
X011445Y041541D01*
X011445Y041444D01*
X013290Y041437D02*
X013290Y041534D01*
X013290Y041485D02*
X013581Y041485D01*
X013581Y041437D02*
X013581Y041534D01*
X013581Y041633D02*
X013290Y041633D01*
X013581Y041827D01*
X013290Y041827D01*
X015720Y041835D02*
X016011Y041835D01*
X015720Y041642D01*
X016011Y041642D01*
X015962Y041541D02*
X015865Y041541D01*
X015865Y041444D01*
X015769Y041541D02*
X015720Y041492D01*
X015720Y041395D01*
X015769Y041347D01*
X015962Y041347D01*
X016011Y041395D01*
X016011Y041492D01*
X015962Y041541D01*
X016011Y041936D02*
X016011Y042081D01*
X015962Y042130D01*
X015769Y042130D01*
X015720Y042081D01*
X015720Y041936D01*
X016011Y041936D01*
X016680Y041915D02*
X016874Y041915D01*
X016971Y041818D01*
X016874Y041722D01*
X016680Y041722D01*
X016729Y041621D02*
X016777Y041621D01*
X016825Y041572D01*
X016874Y041621D01*
X016922Y041621D01*
X016971Y041572D01*
X016971Y041475D01*
X016922Y041427D01*
X016825Y041524D02*
X016825Y041572D01*
X016729Y041621D02*
X016680Y041572D01*
X016680Y041475D01*
X016729Y041427D01*
X017710Y041485D02*
X017710Y041582D01*
X017759Y041631D01*
X017855Y041582D02*
X017904Y041631D01*
X017952Y041631D01*
X018001Y041582D01*
X018001Y041485D01*
X017952Y041437D01*
X017855Y041485D02*
X017855Y041582D01*
X017855Y041485D02*
X017807Y041437D01*
X017759Y041437D01*
X017710Y041485D01*
X017710Y041732D02*
X018001Y041732D01*
X017904Y041828D01*
X018001Y041925D01*
X017710Y041925D01*
X016971Y042065D02*
X016922Y042016D01*
X016971Y042065D02*
X016971Y042161D01*
X016922Y042210D01*
X016874Y042210D01*
X016825Y042161D01*
X016825Y042113D01*
X016825Y042161D02*
X016777Y042210D01*
X016729Y042210D01*
X016680Y042161D01*
X016680Y042065D01*
X016729Y042016D01*
X018693Y041584D02*
X018790Y041487D01*
X018984Y041487D01*
X018838Y041487D02*
X018838Y041681D01*
X018790Y041681D02*
X018984Y041681D01*
X018790Y041681D02*
X018693Y041584D01*
X019683Y041633D02*
X019683Y041488D01*
X019974Y041488D01*
X019974Y041633D01*
X019925Y041682D01*
X019877Y041682D01*
X019828Y041633D01*
X019828Y041488D01*
X019828Y041633D02*
X019780Y041682D01*
X019732Y041682D01*
X019683Y041633D01*
X021990Y041662D02*
X022281Y041855D01*
X021990Y041855D01*
X021990Y041956D02*
X021990Y042101D01*
X022039Y042150D01*
X022232Y042150D01*
X022281Y042101D01*
X022281Y041956D01*
X021990Y041956D01*
X021990Y041662D02*
X022281Y041662D01*
X022232Y041561D02*
X022135Y041561D01*
X022135Y041464D01*
X022039Y041561D02*
X021990Y041512D01*
X021990Y041415D01*
X022039Y041367D01*
X022232Y041367D01*
X022281Y041415D01*
X022281Y041512D01*
X022232Y041561D01*
X023000Y041602D02*
X023000Y041505D01*
X023049Y041457D01*
X023145Y041554D02*
X023145Y041602D01*
X023194Y041651D01*
X023242Y041651D01*
X023291Y041602D01*
X023291Y041505D01*
X023242Y041457D01*
X023145Y041602D02*
X023097Y041651D01*
X023049Y041651D01*
X023000Y041602D01*
X023000Y041752D02*
X023194Y041752D01*
X023291Y041848D01*
X023194Y041945D01*
X023000Y041945D01*
X023049Y042046D02*
X023000Y042095D01*
X023000Y042191D01*
X023049Y042240D01*
X023097Y042240D01*
X023145Y042191D01*
X023194Y042240D01*
X023242Y042240D01*
X023291Y042191D01*
X023291Y042095D01*
X023242Y042046D01*
X023145Y042143D02*
X023145Y042191D01*
X023940Y041925D02*
X024231Y041925D01*
X024134Y041828D01*
X024231Y041732D01*
X023940Y041732D01*
X023989Y041631D02*
X023940Y041582D01*
X023940Y041485D01*
X023989Y041437D01*
X024037Y041437D01*
X024085Y041485D01*
X024085Y041582D01*
X024134Y041631D01*
X024182Y041631D01*
X024231Y041582D01*
X024231Y041485D01*
X024182Y041437D01*
X024948Y041589D02*
X025045Y041492D01*
X025239Y041492D01*
X025093Y041492D02*
X025093Y041686D01*
X025045Y041686D02*
X025239Y041686D01*
X025045Y041686D02*
X024948Y041589D01*
X025935Y041636D02*
X025935Y041491D01*
X026226Y041491D01*
X026226Y041636D01*
X026177Y041685D01*
X026129Y041685D01*
X026080Y041636D01*
X026080Y041491D01*
X026080Y041636D02*
X026032Y041685D01*
X025984Y041685D01*
X025935Y041636D01*
X024493Y035553D02*
X024307Y035553D01*
X024246Y035491D01*
X024246Y035306D01*
X024493Y035306D01*
X024431Y035185D02*
X024184Y035185D01*
X024431Y034938D01*
X024493Y034999D01*
X024493Y035123D01*
X024431Y035185D01*
X024184Y035185D02*
X024122Y035123D01*
X024122Y034999D01*
X024184Y034938D01*
X024431Y034938D01*
X024431Y034816D02*
X024184Y034816D01*
X024431Y034569D01*
X024493Y034631D01*
X024493Y034755D01*
X024431Y034816D01*
X024431Y034569D02*
X024184Y034569D01*
X024122Y034631D01*
X024122Y034755D01*
X024184Y034816D01*
X024493Y034448D02*
X024493Y034201D01*
X024493Y034324D02*
X024122Y034324D01*
X024246Y034201D01*
X023926Y034323D02*
X023680Y034076D01*
X023680Y034014D01*
X023558Y034014D02*
X023435Y034137D01*
X023496Y034137D02*
X023311Y034137D01*
X023311Y034014D02*
X023311Y034384D01*
X023496Y034384D01*
X023558Y034323D01*
X023558Y034199D01*
X023496Y034137D01*
X023680Y034384D02*
X023926Y034384D01*
X023926Y034323D01*
X023025Y033780D02*
X023025Y033719D01*
X022779Y033472D01*
X022779Y033410D01*
X022657Y033410D02*
X022472Y033533D01*
X022657Y033657D01*
X022779Y033780D02*
X023025Y033780D01*
X022472Y033780D02*
X022472Y033410D01*
X022288Y033410D02*
X022288Y033780D01*
X022103Y033595D01*
X022350Y033595D01*
X024120Y033281D02*
X024120Y033034D01*
X024120Y032912D02*
X024367Y032665D01*
X024305Y032727D02*
X024491Y032912D01*
X024491Y033034D02*
X024429Y033034D01*
X024182Y033281D01*
X024120Y033281D01*
X024120Y032665D02*
X024491Y032665D01*
X024491Y032482D02*
X024120Y032482D01*
X024305Y032297D01*
X024305Y032544D01*
X023856Y032335D02*
X023610Y032335D01*
X023610Y032150D01*
X023733Y032212D01*
X023795Y032212D01*
X023856Y032150D01*
X023856Y032026D01*
X023795Y031965D01*
X023671Y031965D01*
X023610Y032026D01*
X023488Y031965D02*
X023365Y032088D01*
X023426Y032088D02*
X023241Y032088D01*
X023241Y031965D02*
X023241Y032335D01*
X023426Y032335D01*
X023488Y032273D01*
X023488Y032150D01*
X023426Y032088D01*
X022973Y031719D02*
X022973Y031657D01*
X022726Y031410D01*
X022726Y031349D01*
X022604Y031349D02*
X022419Y031534D01*
X022358Y031472D02*
X022604Y031719D01*
X022726Y031719D02*
X022973Y031719D01*
X022358Y031719D02*
X022358Y031349D01*
X022174Y031349D02*
X022174Y031719D01*
X021989Y031534D01*
X022236Y031534D01*
X021716Y030744D02*
X021522Y030744D01*
X021474Y030696D01*
X021474Y030551D01*
X021764Y030551D01*
X021764Y030696D01*
X021716Y030744D01*
X021764Y030450D02*
X021474Y030450D01*
X021474Y030256D02*
X021764Y030450D01*
X021764Y030256D02*
X021474Y030256D01*
X021522Y030155D02*
X021474Y030107D01*
X021474Y030010D01*
X021522Y029962D01*
X021716Y029962D01*
X021764Y030010D01*
X021764Y030107D01*
X021716Y030155D01*
X021619Y030155D01*
X021619Y030058D01*
X020764Y029962D02*
X020764Y030155D01*
X020716Y030256D02*
X020764Y030305D01*
X020764Y030401D01*
X020716Y030450D01*
X020764Y030551D02*
X020474Y030551D01*
X020522Y030450D02*
X020474Y030401D01*
X020474Y030305D01*
X020522Y030256D01*
X020716Y030256D01*
X020764Y029962D02*
X020474Y029962D01*
X020667Y030551D02*
X020474Y030744D01*
X020619Y030599D02*
X020764Y030744D01*
X019764Y030648D02*
X019474Y030648D01*
X019474Y030744D02*
X019474Y030551D01*
X019571Y030450D02*
X019764Y030450D01*
X019619Y030450D02*
X019619Y030256D01*
X019571Y030256D02*
X019474Y030353D01*
X019571Y030450D01*
X019571Y030256D02*
X019764Y030256D01*
X019716Y030155D02*
X019522Y030155D01*
X019474Y030107D01*
X019474Y029962D01*
X019764Y029962D01*
X019764Y030107D01*
X019716Y030155D01*
X018764Y030107D02*
X018764Y029962D01*
X018474Y029962D01*
X018474Y030107D01*
X018522Y030155D01*
X018571Y030155D01*
X018619Y030107D01*
X018619Y029962D01*
X018619Y030107D02*
X018667Y030155D01*
X018716Y030155D01*
X018764Y030107D01*
X018716Y030256D02*
X018764Y030305D01*
X018764Y030401D01*
X018716Y030450D01*
X018764Y030551D02*
X018474Y030551D01*
X018522Y030450D02*
X018474Y030401D01*
X018474Y030305D01*
X018522Y030256D01*
X018716Y030256D01*
X018667Y030551D02*
X018474Y030744D01*
X018619Y030599D02*
X018764Y030744D01*
X019474Y030942D02*
X019571Y031039D01*
X019764Y031039D01*
X019619Y031039D02*
X019619Y030845D01*
X019571Y030845D02*
X019474Y030942D01*
X019571Y030845D02*
X019764Y030845D01*
X017764Y030845D02*
X017474Y030845D01*
X017619Y030894D02*
X017764Y031039D01*
X017667Y030845D02*
X017474Y031039D01*
X017764Y030744D02*
X017764Y030551D01*
X017474Y030551D01*
X017522Y030450D02*
X017474Y030401D01*
X017474Y030305D01*
X017522Y030256D01*
X017716Y030256D01*
X017764Y030305D01*
X017764Y030401D01*
X017716Y030450D01*
X017764Y030155D02*
X017474Y030155D01*
X017571Y030058D01*
X017474Y029962D01*
X017764Y029962D01*
X022474Y029962D02*
X022619Y029962D01*
X022571Y030058D01*
X022571Y030107D01*
X022619Y030155D01*
X022716Y030155D01*
X022764Y030107D01*
X022764Y030010D01*
X022716Y029962D01*
X022474Y029962D02*
X022474Y030155D01*
X022474Y030256D02*
X022667Y030256D01*
X022764Y030353D01*
X022667Y030450D01*
X022474Y030450D01*
X024710Y030432D02*
X024895Y030247D01*
X024895Y030494D01*
X024957Y030615D02*
X024710Y030862D01*
X024710Y030984D02*
X024710Y031231D01*
X024772Y031231D01*
X025019Y030984D01*
X025081Y030984D01*
X025081Y030862D02*
X024895Y030677D01*
X024710Y030615D02*
X025081Y030615D01*
X025081Y030432D02*
X024710Y030432D01*
X025200Y031567D02*
X025200Y031752D01*
X025262Y031814D01*
X025385Y031814D01*
X025447Y031752D01*
X025447Y031567D01*
X025447Y031690D02*
X025571Y031814D01*
X025385Y031935D02*
X025385Y032182D01*
X025200Y032121D02*
X025385Y031935D01*
X025200Y032121D02*
X025571Y032121D01*
X025571Y031567D02*
X025200Y031567D01*
X025220Y032910D02*
X025220Y033096D01*
X025282Y033157D01*
X025405Y033157D01*
X025467Y033096D01*
X025467Y032910D01*
X025591Y032910D02*
X025220Y032910D01*
X025467Y033034D02*
X025591Y033157D01*
X025529Y033279D02*
X025591Y033340D01*
X025591Y033464D01*
X025529Y033526D01*
X025467Y033526D01*
X025405Y033464D01*
X025405Y033279D01*
X025529Y033279D01*
X025405Y033279D02*
X025282Y033402D01*
X025220Y033526D01*
X025272Y034282D02*
X025519Y034282D01*
X025581Y034344D01*
X025581Y034467D01*
X025519Y034529D01*
X025581Y034650D02*
X025581Y034897D01*
X025581Y035019D02*
X025519Y035019D01*
X025272Y035266D01*
X025210Y035266D01*
X025210Y035019D01*
X025210Y034774D02*
X025581Y034774D01*
X025334Y034650D02*
X025210Y034774D01*
X025272Y034529D02*
X025210Y034467D01*
X025210Y034344D01*
X025272Y034282D01*
X028182Y029857D02*
X028306Y029857D01*
X028367Y029796D01*
X028121Y029549D01*
X028182Y029487D01*
X028306Y029487D01*
X028367Y029549D01*
X028367Y029796D01*
X028182Y029857D02*
X028121Y029796D01*
X028121Y029549D01*
X027544Y029256D02*
X027482Y029317D01*
X027359Y029317D01*
X027297Y029256D01*
X027544Y029256D02*
X027544Y029194D01*
X027297Y028947D01*
X027544Y028947D01*
X027176Y028947D02*
X026929Y028947D01*
X026807Y028947D02*
X026684Y029070D01*
X026746Y029070D02*
X026561Y029070D01*
X026561Y028947D02*
X026561Y029317D01*
X026746Y029317D01*
X026807Y029256D01*
X026807Y029132D01*
X026746Y029070D01*
X026929Y029194D02*
X027052Y029317D01*
X027052Y028947D01*
X027691Y028224D02*
X027814Y028347D01*
X027814Y027977D01*
X027691Y027977D02*
X027937Y027977D01*
X028059Y028039D02*
X028306Y028286D01*
X028306Y028039D01*
X028244Y027977D01*
X028121Y027977D01*
X028059Y028039D01*
X028059Y028286D01*
X028121Y028347D01*
X028244Y028347D01*
X028306Y028286D01*
X028427Y028286D02*
X028427Y028039D01*
X028674Y028286D01*
X028674Y028039D01*
X028612Y027977D01*
X028489Y027977D01*
X028427Y028039D01*
X028427Y028286D02*
X028489Y028347D01*
X028612Y028347D01*
X028674Y028286D01*
X028796Y028347D02*
X028796Y027977D01*
X028796Y028100D02*
X028981Y028224D01*
X028796Y028100D02*
X028981Y027977D01*
X029022Y027197D02*
X028776Y027197D01*
X028776Y026827D01*
X028654Y026827D02*
X028654Y027012D01*
X028592Y027074D01*
X028407Y027074D01*
X028407Y026827D01*
X028286Y026889D02*
X028224Y026827D01*
X028101Y026827D01*
X028039Y026889D01*
X028286Y027136D01*
X028286Y026889D01*
X028286Y027136D02*
X028224Y027197D01*
X028101Y027197D01*
X028039Y027136D01*
X028039Y026889D01*
X027917Y026827D02*
X027671Y026827D01*
X027794Y026827D02*
X027794Y027197D01*
X027671Y027074D01*
X027591Y026663D02*
X027653Y026602D01*
X027653Y026540D01*
X027591Y026478D01*
X027468Y026478D01*
X027406Y026540D01*
X027406Y026602D01*
X027468Y026663D01*
X027591Y026663D01*
X027591Y026478D02*
X027653Y026416D01*
X027653Y026355D01*
X027591Y026293D01*
X027468Y026293D01*
X027406Y026355D01*
X027406Y026416D01*
X027468Y026478D01*
X027285Y026355D02*
X027223Y026293D01*
X027100Y026293D01*
X027038Y026355D01*
X027038Y026602D01*
X027100Y026663D01*
X027223Y026663D01*
X027285Y026602D01*
X026916Y026602D02*
X026670Y026355D01*
X026793Y026355D02*
X026793Y026602D01*
X026670Y026602D02*
X026916Y026355D01*
X026916Y026478D02*
X026670Y026478D01*
X026281Y026465D02*
X026034Y026465D01*
X026034Y026651D01*
X026095Y026712D01*
X026281Y026712D01*
X026281Y026834D02*
X025910Y026834D01*
X025910Y027081D01*
X026095Y026957D02*
X026095Y026834D01*
X025271Y026814D02*
X025024Y026814D01*
X025024Y026999D01*
X025085Y027061D01*
X025271Y027061D01*
X025271Y027182D02*
X024900Y027182D01*
X024900Y027429D01*
X025085Y027305D02*
X025085Y027182D01*
X024962Y026692D02*
X025209Y026445D01*
X025271Y026507D01*
X025271Y026631D01*
X025209Y026692D01*
X024962Y026692D01*
X024900Y026631D01*
X024900Y026507D01*
X024962Y026445D01*
X025209Y026445D01*
X025271Y026324D02*
X025271Y026077D01*
X025271Y026200D02*
X024900Y026200D01*
X025024Y026077D01*
X024271Y026047D02*
X024271Y026294D01*
X024271Y026170D02*
X023900Y026170D01*
X024024Y026047D01*
X023962Y026415D02*
X023900Y026477D01*
X023900Y026601D01*
X023962Y026662D01*
X024209Y026415D01*
X024271Y026477D01*
X024271Y026601D01*
X024209Y026662D01*
X023962Y026662D01*
X023962Y026784D02*
X023900Y026845D01*
X023900Y026969D01*
X023962Y027031D01*
X024209Y026784D01*
X024271Y026845D01*
X024271Y026969D01*
X024209Y027031D01*
X023962Y027031D01*
X024024Y027152D02*
X024024Y027337D01*
X024085Y027399D01*
X024271Y027399D01*
X024271Y027520D02*
X023900Y027520D01*
X023900Y027767D01*
X024085Y027644D02*
X024085Y027520D01*
X024024Y027152D02*
X024271Y027152D01*
X024209Y026784D02*
X023962Y026784D01*
X023962Y026415D02*
X024209Y026415D01*
X025910Y026220D02*
X026281Y026220D01*
X026281Y026097D02*
X026281Y026344D01*
X026034Y026097D02*
X025910Y026220D01*
X026849Y027405D02*
X026849Y027775D01*
X027034Y027775D01*
X027095Y027714D01*
X027095Y027590D01*
X027034Y027528D01*
X026849Y027528D01*
X026972Y027528D02*
X027095Y027405D01*
X027217Y027467D02*
X027279Y027405D01*
X027402Y027405D01*
X027464Y027467D01*
X027464Y027714D01*
X027402Y027775D01*
X027279Y027775D01*
X027217Y027714D01*
X027217Y027652D01*
X027279Y027590D01*
X027464Y027590D01*
X028776Y027012D02*
X028899Y027012D01*
X026331Y024451D02*
X025960Y024451D01*
X026145Y024265D01*
X026145Y024512D01*
X026022Y024144D02*
X025960Y024082D01*
X025960Y023959D01*
X026022Y023897D01*
X026269Y023897D01*
X026331Y023959D01*
X026331Y024082D01*
X026269Y024144D01*
X025361Y024042D02*
X025299Y024104D01*
X025361Y024042D02*
X025361Y023919D01*
X025299Y023857D01*
X025052Y023857D01*
X024990Y023919D01*
X024990Y024042D01*
X025052Y024104D01*
X024990Y024225D02*
X025175Y024225D01*
X025114Y024349D01*
X025114Y024411D01*
X025175Y024472D01*
X025299Y024472D01*
X025361Y024411D01*
X025361Y024287D01*
X025299Y024225D01*
X024990Y024225D02*
X024990Y024472D01*
X024301Y024411D02*
X024239Y024472D01*
X024177Y024472D01*
X024115Y024411D01*
X024115Y024225D01*
X024239Y024225D01*
X024301Y024287D01*
X024301Y024411D01*
X024115Y024225D02*
X023992Y024349D01*
X023930Y024472D01*
X023992Y024104D02*
X023930Y024042D01*
X023930Y023919D01*
X023992Y023857D01*
X024239Y023857D01*
X024301Y023919D01*
X024301Y024042D01*
X024239Y024104D01*
X025626Y018830D02*
X025873Y018830D01*
X025996Y018706D01*
X025873Y018583D01*
X025626Y018583D01*
X025626Y018461D02*
X025688Y018338D01*
X025811Y018215D01*
X025811Y018400D01*
X025873Y018461D01*
X025935Y018461D01*
X025996Y018400D01*
X025996Y018276D01*
X025935Y018215D01*
X025811Y018215D01*
X025996Y018093D02*
X025996Y017846D01*
X025996Y017970D02*
X025626Y017970D01*
X025750Y017846D01*
X025626Y017725D02*
X025996Y017478D01*
X025811Y017233D02*
X025811Y017110D01*
X025750Y016988D02*
X025996Y016988D01*
X025996Y016803D01*
X025935Y016741D01*
X025750Y016741D01*
X025688Y016620D02*
X025935Y016373D01*
X025996Y016435D01*
X025996Y016558D01*
X025935Y016620D01*
X025688Y016620D01*
X025626Y016558D01*
X025626Y016435D01*
X025688Y016373D01*
X025935Y016373D01*
X025688Y016252D02*
X025935Y016005D01*
X025996Y016005D01*
X025996Y015822D02*
X025626Y015822D01*
X025811Y015636D01*
X025811Y015883D01*
X025626Y016005D02*
X025626Y016252D01*
X025688Y016252D01*
X025270Y016057D02*
X025209Y016057D01*
X024962Y016304D01*
X024900Y016304D01*
X024900Y016057D01*
X024962Y015936D02*
X024900Y015874D01*
X024900Y015751D01*
X024962Y015689D01*
X025209Y015689D01*
X025270Y015751D01*
X025270Y015874D01*
X025209Y015936D01*
X026309Y014778D02*
X026247Y014716D01*
X026247Y014469D01*
X026309Y014407D01*
X026432Y014407D01*
X026494Y014469D01*
X026616Y014469D02*
X026677Y014407D01*
X026801Y014407D01*
X026862Y014469D01*
X026862Y014531D01*
X026801Y014592D01*
X026739Y014592D01*
X026801Y014592D02*
X026862Y014654D01*
X026862Y014716D01*
X026801Y014778D01*
X026677Y014778D01*
X026616Y014716D01*
X026494Y014716D02*
X026432Y014778D01*
X026309Y014778D01*
X026299Y013990D02*
X026237Y013928D01*
X026237Y013682D01*
X026299Y013620D01*
X026422Y013620D01*
X026484Y013682D01*
X026606Y013620D02*
X026852Y013867D01*
X026852Y013928D01*
X026791Y013990D01*
X026667Y013990D01*
X026606Y013928D01*
X026484Y013928D02*
X026422Y013990D01*
X026299Y013990D01*
X026606Y013620D02*
X026852Y013620D01*
X026799Y013203D02*
X026799Y012832D01*
X026676Y012832D02*
X026922Y012832D01*
X026676Y013079D02*
X026799Y013203D01*
X026554Y013141D02*
X026492Y013203D01*
X026369Y013203D01*
X026307Y013141D01*
X026307Y012894D01*
X026369Y012832D01*
X026492Y012832D01*
X026554Y012894D01*
X028467Y012882D02*
X028714Y012882D01*
X028836Y012882D02*
X028836Y013129D01*
X029021Y013129D01*
X029082Y013068D01*
X029082Y012882D01*
X029204Y012882D02*
X029204Y013253D01*
X029451Y013253D01*
X029327Y013068D02*
X029204Y013068D01*
X029184Y013610D02*
X029184Y013857D01*
X029369Y013857D01*
X029431Y013795D01*
X029431Y013610D01*
X029552Y013610D02*
X029552Y013980D01*
X029799Y013980D01*
X029676Y013795D02*
X029552Y013795D01*
X029062Y013918D02*
X029062Y013672D01*
X029001Y013610D01*
X028877Y013610D01*
X028816Y013672D01*
X029062Y013918D01*
X029001Y013980D01*
X028877Y013980D01*
X028816Y013918D01*
X028816Y013672D01*
X028694Y013610D02*
X028447Y013610D01*
X028571Y013610D02*
X028571Y013980D01*
X028447Y013857D01*
X028427Y014417D02*
X028674Y014417D01*
X028551Y014417D02*
X028551Y014788D01*
X028427Y014664D01*
X028796Y014726D02*
X028857Y014788D01*
X028981Y014788D01*
X029042Y014726D01*
X028796Y014479D01*
X028857Y014417D01*
X028981Y014417D01*
X029042Y014479D01*
X029042Y014726D01*
X029164Y014726D02*
X029226Y014788D01*
X029349Y014788D01*
X029411Y014726D01*
X029164Y014479D01*
X029226Y014417D01*
X029349Y014417D01*
X029411Y014479D01*
X029411Y014726D01*
X029532Y014664D02*
X029717Y014664D01*
X029779Y014602D01*
X029779Y014417D01*
X029901Y014417D02*
X029901Y014788D01*
X030147Y014788D01*
X030024Y014602D02*
X029901Y014602D01*
X029532Y014664D02*
X029532Y014417D01*
X029164Y014479D02*
X029164Y014726D01*
X028796Y014726D02*
X028796Y014479D01*
X028591Y013253D02*
X028591Y012882D01*
X028467Y013129D02*
X028591Y013253D01*
X033039Y015133D02*
X033101Y015071D01*
X033039Y015133D02*
X033039Y015256D01*
X033101Y015318D01*
X033163Y015318D01*
X033410Y015071D01*
X033410Y015318D01*
X033410Y015439D02*
X033039Y015439D01*
X033163Y015624D02*
X033286Y015439D01*
X033410Y015624D01*
X033410Y015746D02*
X033163Y015993D01*
X033101Y015993D01*
X033039Y015931D01*
X033039Y015808D01*
X033101Y015746D01*
X033410Y015746D02*
X033410Y015993D01*
X034337Y015941D02*
X034337Y015818D01*
X034398Y015756D01*
X034460Y015634D02*
X034583Y015449D01*
X034707Y015634D01*
X034707Y015756D02*
X034460Y016003D01*
X034398Y016003D01*
X034337Y015941D01*
X034707Y016003D02*
X034707Y015756D01*
X034707Y015449D02*
X034337Y015449D01*
X034398Y015328D02*
X034337Y015266D01*
X034337Y015143D01*
X034398Y015081D01*
X034398Y015328D02*
X034460Y015328D01*
X034707Y015081D01*
X034707Y015328D01*
X034968Y016566D02*
X034968Y016937D01*
X035154Y016937D01*
X035215Y016875D01*
X035215Y016752D01*
X035154Y016690D01*
X034968Y016690D01*
X035092Y016690D02*
X035215Y016566D01*
X035337Y016628D02*
X035337Y016690D01*
X035398Y016752D01*
X035522Y016752D01*
X035584Y016690D01*
X035584Y016628D01*
X035522Y016566D01*
X035398Y016566D01*
X035337Y016628D01*
X035398Y016752D02*
X035337Y016813D01*
X035337Y016875D01*
X035398Y016937D01*
X035522Y016937D01*
X035584Y016875D01*
X035584Y016813D01*
X035522Y016752D01*
X035502Y018246D02*
X035440Y018246D01*
X035440Y018308D01*
X035502Y018308D01*
X035502Y018246D01*
X035624Y018308D02*
X035686Y018246D01*
X035809Y018246D01*
X035871Y018308D01*
X035871Y018370D01*
X035809Y018432D01*
X035748Y018432D01*
X035809Y018432D02*
X035871Y018493D01*
X035871Y018555D01*
X035809Y018617D01*
X035686Y018617D01*
X035624Y018555D01*
X035319Y018555D02*
X035319Y018493D01*
X035257Y018432D01*
X035319Y018370D01*
X035319Y018308D01*
X035257Y018246D01*
X035134Y018246D01*
X035072Y018308D01*
X035195Y018432D02*
X035257Y018432D01*
X035319Y018555D02*
X035257Y018617D01*
X035134Y018617D01*
X035072Y018555D01*
X035993Y018617D02*
X035993Y018370D01*
X036116Y018246D01*
X036240Y018370D01*
X036240Y018617D01*
X032757Y018654D02*
X032757Y018407D01*
X032634Y018284D01*
X032510Y018407D01*
X032510Y018654D01*
X032389Y018654D02*
X032142Y018654D01*
X032142Y018469D01*
X032265Y018531D01*
X032327Y018531D01*
X032389Y018469D01*
X032389Y018346D01*
X032327Y018284D01*
X032204Y018284D01*
X032142Y018346D01*
X032215Y016913D02*
X032215Y016542D01*
X032338Y016542D02*
X032091Y016542D01*
X031970Y016542D02*
X031847Y016666D01*
X031908Y016666D02*
X031723Y016666D01*
X031723Y016542D02*
X031723Y016913D01*
X031908Y016913D01*
X031970Y016851D01*
X031970Y016727D01*
X031908Y016666D01*
X032091Y016789D02*
X032215Y016913D01*
X032460Y016851D02*
X032521Y016913D01*
X032645Y016913D01*
X032707Y016851D01*
X032707Y016789D01*
X032645Y016727D01*
X032707Y016666D01*
X032707Y016604D01*
X032645Y016542D01*
X032521Y016542D01*
X032460Y016604D01*
X032583Y016727D02*
X032645Y016727D01*
X025996Y017110D02*
X025626Y017110D01*
X025626Y017357D01*
X042438Y013517D02*
X042438Y013360D01*
X042517Y013282D01*
X042830Y013282D01*
X042909Y013360D01*
X042909Y013517D01*
X042830Y013595D01*
X042517Y013595D02*
X042438Y013517D01*
X042673Y013135D02*
X042673Y012821D01*
X042595Y012675D02*
X042673Y012596D01*
X042673Y012361D01*
X042752Y012214D02*
X042830Y012214D01*
X042909Y012136D01*
X042909Y011979D01*
X042830Y011901D01*
X042830Y011754D02*
X042438Y011754D01*
X042517Y011901D02*
X042595Y011901D01*
X042673Y011979D01*
X042673Y012136D01*
X042752Y012214D01*
X042909Y012361D02*
X042438Y012361D01*
X042438Y012596D01*
X042517Y012675D01*
X042595Y012675D01*
X042673Y012596D02*
X042752Y012675D01*
X042830Y012675D01*
X042909Y012596D01*
X042909Y012361D01*
X042517Y012214D02*
X042438Y012136D01*
X042438Y011979D01*
X042517Y011901D01*
X042830Y011754D02*
X042909Y011675D01*
X042909Y011519D01*
X042830Y011440D01*
X042438Y011440D01*
X043582Y016601D02*
X043767Y016601D01*
X043706Y016724D01*
X043706Y016786D01*
X043767Y016848D01*
X043891Y016848D01*
X043953Y016786D01*
X043953Y016663D01*
X043891Y016601D01*
X043582Y016601D02*
X043582Y016848D01*
X043706Y017154D02*
X043582Y017277D01*
X043953Y017277D01*
X043953Y017154D02*
X043953Y017400D01*
X043953Y017522D02*
X043953Y017769D01*
X043953Y017890D02*
X043582Y017890D01*
X043706Y018075D02*
X043829Y017890D01*
X043953Y018075D01*
X044259Y018030D02*
X044259Y017845D01*
X044630Y017845D01*
X044506Y017845D02*
X044506Y018030D01*
X044444Y018092D01*
X044321Y018092D01*
X044259Y018030D01*
X044383Y018213D02*
X044259Y018337D01*
X044630Y018337D01*
X044630Y018460D02*
X044630Y018213D01*
X044630Y018092D02*
X044506Y017969D01*
X044506Y018582D02*
X044444Y018643D01*
X044444Y018767D01*
X044506Y018829D01*
X044568Y018829D01*
X044630Y018767D01*
X044630Y018643D01*
X044568Y018582D01*
X044506Y018582D01*
X044444Y018643D02*
X044383Y018582D01*
X044321Y018582D01*
X044259Y018643D01*
X044259Y018767D01*
X044321Y018829D01*
X044383Y018829D01*
X044444Y018767D01*
X044472Y019877D02*
X044349Y019877D01*
X044287Y019939D01*
X044534Y020186D01*
X044534Y019939D01*
X044472Y019877D01*
X044655Y019939D02*
X044717Y019877D01*
X044902Y019877D01*
X044902Y020124D01*
X045024Y020062D02*
X045147Y020062D01*
X045024Y019877D02*
X045024Y020247D01*
X045270Y020247D01*
X045639Y020247D02*
X045392Y019877D01*
X045760Y019939D02*
X045822Y019877D01*
X045945Y019877D01*
X046007Y019939D01*
X046007Y020000D01*
X045945Y020062D01*
X045760Y020062D01*
X045760Y019939D01*
X045760Y020062D02*
X045884Y020186D01*
X046007Y020247D01*
X046313Y020186D02*
X046374Y020247D01*
X046498Y020247D01*
X046560Y020186D01*
X046560Y020124D01*
X046498Y020062D01*
X046560Y020000D01*
X046560Y019939D01*
X046498Y019877D01*
X046374Y019877D01*
X046313Y019939D01*
X046190Y019939D02*
X046190Y019877D01*
X046128Y019877D01*
X046128Y019939D01*
X046190Y019939D01*
X046436Y020062D02*
X046498Y020062D01*
X046681Y020000D02*
X046804Y019877D01*
X046928Y020000D01*
X046928Y020247D01*
X046681Y020247D02*
X046681Y020000D01*
X045944Y018948D02*
X046191Y018701D01*
X046253Y018701D01*
X046253Y018579D02*
X046253Y018332D01*
X046253Y018211D02*
X046129Y018087D01*
X046129Y018149D02*
X046129Y017964D01*
X046253Y017964D02*
X045882Y017964D01*
X045882Y018149D01*
X045944Y018211D01*
X046067Y018211D01*
X046129Y018149D01*
X046006Y018332D02*
X045882Y018456D01*
X046253Y018456D01*
X045882Y018701D02*
X045882Y018948D01*
X045944Y018948D01*
X046650Y018072D02*
X046773Y017887D01*
X046897Y018072D01*
X046897Y017887D02*
X046526Y017887D01*
X046526Y017642D02*
X046897Y017642D01*
X046897Y017519D02*
X046897Y017766D01*
X046650Y017519D02*
X046526Y017642D01*
X046526Y017274D02*
X046897Y017274D01*
X046897Y017151D02*
X046897Y017397D01*
X046650Y017151D02*
X046526Y017274D01*
X046835Y017028D02*
X046897Y017028D01*
X046897Y016966D01*
X046835Y016966D01*
X046835Y017028D01*
X046835Y016845D02*
X046897Y016783D01*
X046897Y016660D01*
X046835Y016598D01*
X046711Y016598D02*
X046650Y016721D01*
X046650Y016783D01*
X046711Y016845D01*
X046835Y016845D01*
X046711Y016598D02*
X046526Y016598D01*
X046526Y016845D01*
X043953Y016969D02*
X043953Y017031D01*
X043891Y017031D01*
X043891Y016969D01*
X043953Y016969D01*
X043706Y017522D02*
X043582Y017645D01*
X043953Y017645D01*
X043919Y019877D02*
X044165Y019877D01*
X044042Y019877D02*
X044042Y020247D01*
X043919Y020124D01*
X044287Y020186D02*
X044287Y019939D01*
X044287Y020186D02*
X044349Y020247D01*
X044472Y020247D01*
X044534Y020186D01*
X044655Y020124D02*
X044655Y019939D01*
X044613Y022023D02*
X044674Y022085D01*
X044613Y022023D02*
X044489Y022023D01*
X044428Y022085D01*
X044428Y022332D01*
X044489Y022393D01*
X044613Y022393D01*
X044674Y022332D01*
X044796Y022270D02*
X044919Y022393D01*
X044919Y022023D01*
X044796Y022023D02*
X045043Y022023D01*
X045164Y022208D02*
X045411Y022208D01*
X045349Y022023D02*
X045349Y022393D01*
X045164Y022208D01*
X048641Y023429D02*
X048702Y023367D01*
X048826Y023367D01*
X048887Y023429D01*
X048887Y023552D01*
X048764Y023552D01*
X048641Y023429D02*
X048641Y023676D01*
X048702Y023737D01*
X048826Y023737D01*
X048887Y023676D01*
X049009Y023737D02*
X049256Y023367D01*
X049256Y023737D01*
X049377Y023737D02*
X049562Y023737D01*
X049624Y023676D01*
X049624Y023429D01*
X049562Y023367D01*
X049377Y023367D01*
X049377Y023737D01*
X049009Y023737D02*
X049009Y023367D01*
X049009Y024367D02*
X049132Y024367D01*
X049071Y024367D02*
X049071Y024737D01*
X049132Y024737D02*
X049009Y024737D01*
X048887Y024737D02*
X048887Y024367D01*
X048641Y024367D02*
X048641Y024737D01*
X048764Y024614D01*
X048887Y024737D01*
X049254Y024676D02*
X049254Y024614D01*
X049316Y024552D01*
X049440Y024552D01*
X049501Y024490D01*
X049501Y024429D01*
X049440Y024367D01*
X049316Y024367D01*
X049254Y024429D01*
X049254Y024676D02*
X049316Y024737D01*
X049440Y024737D01*
X049501Y024676D01*
X049623Y024676D02*
X049623Y024429D01*
X049684Y024367D01*
X049808Y024367D01*
X049870Y024429D01*
X049870Y024676D01*
X049808Y024737D01*
X049684Y024737D01*
X049623Y024676D01*
X049194Y025367D02*
X049071Y025367D01*
X049009Y025429D01*
X048887Y025429D02*
X048826Y025367D01*
X048702Y025367D01*
X048641Y025429D01*
X048641Y025676D01*
X048702Y025737D01*
X048826Y025737D01*
X048887Y025676D01*
X049009Y025676D02*
X049009Y025614D01*
X049071Y025552D01*
X049194Y025552D01*
X049256Y025490D01*
X049256Y025429D01*
X049194Y025367D01*
X049256Y025676D02*
X049194Y025737D01*
X049071Y025737D01*
X049009Y025676D01*
X049071Y026367D02*
X049194Y026367D01*
X049256Y026429D01*
X049256Y026676D01*
X049194Y026737D01*
X049071Y026737D01*
X049009Y026676D01*
X049009Y026429D01*
X049071Y026367D01*
X048887Y026367D02*
X048887Y026737D01*
X048764Y026614D01*
X048641Y026737D01*
X048641Y026367D01*
X049377Y026429D02*
X049439Y026367D01*
X049562Y026367D01*
X049624Y026429D01*
X049624Y026490D01*
X049562Y026552D01*
X049439Y026552D01*
X049377Y026614D01*
X049377Y026676D01*
X049439Y026737D01*
X049562Y026737D01*
X049624Y026676D01*
X049746Y026737D02*
X049869Y026737D01*
X049807Y026737D02*
X049807Y026367D01*
X049746Y026367D02*
X049869Y026367D01*
X049624Y027367D02*
X049439Y027552D01*
X049377Y027490D02*
X049624Y027737D01*
X049377Y027737D02*
X049377Y027367D01*
X049256Y027367D02*
X049009Y027367D01*
X049009Y027737D01*
X048887Y027676D02*
X048826Y027737D01*
X048702Y027737D01*
X048641Y027676D01*
X048641Y027429D01*
X048702Y027367D01*
X048826Y027367D01*
X048887Y027429D01*
X048764Y028367D02*
X048887Y028490D01*
X048887Y028737D01*
X049009Y028676D02*
X049009Y028429D01*
X049071Y028367D01*
X049194Y028367D01*
X049256Y028429D01*
X049377Y028429D02*
X049439Y028367D01*
X049562Y028367D01*
X049624Y028429D01*
X049624Y028676D02*
X049562Y028737D01*
X049439Y028737D01*
X049377Y028676D01*
X049377Y028429D01*
X049256Y028676D02*
X049194Y028737D01*
X049071Y028737D01*
X049009Y028676D01*
X048641Y028737D02*
X048641Y028490D01*
X048764Y028367D01*
X048702Y030367D02*
X048641Y030429D01*
X048702Y030367D02*
X048826Y030367D01*
X048887Y030429D01*
X048887Y030552D01*
X048826Y030614D01*
X048764Y030614D01*
X048641Y030552D01*
X048641Y030737D01*
X048887Y030737D01*
X049009Y030737D02*
X049009Y030490D01*
X049132Y030367D01*
X049256Y030490D01*
X049256Y030737D01*
X049256Y031367D02*
X049256Y031737D01*
X049377Y031737D02*
X049562Y031737D01*
X049624Y031676D01*
X049624Y031429D01*
X049562Y031367D01*
X049377Y031367D01*
X049377Y031737D01*
X049009Y031737D02*
X049009Y031367D01*
X048887Y031429D02*
X048887Y031552D01*
X048764Y031552D01*
X048641Y031429D02*
X048702Y031367D01*
X048826Y031367D01*
X048887Y031429D01*
X048641Y031429D02*
X048641Y031676D01*
X048702Y031737D01*
X048826Y031737D01*
X048887Y031676D01*
X049009Y031737D02*
X049256Y031367D01*
X049256Y032367D02*
X049009Y032367D01*
X049009Y032737D01*
X048887Y032676D02*
X048826Y032737D01*
X048702Y032737D01*
X048641Y032676D01*
X048641Y032429D01*
X048702Y032367D01*
X048826Y032367D01*
X048887Y032429D01*
X049377Y032490D02*
X049624Y032737D01*
X049377Y032737D02*
X049377Y032367D01*
X049439Y032552D02*
X049624Y032367D01*
X049562Y033367D02*
X049439Y033367D01*
X049377Y033429D01*
X049256Y033429D02*
X049256Y033676D01*
X049194Y033737D01*
X049071Y033737D01*
X049009Y033676D01*
X049009Y033429D01*
X049071Y033367D01*
X049194Y033367D01*
X049256Y033429D01*
X049439Y033552D02*
X049562Y033552D01*
X049624Y033490D01*
X049624Y033429D01*
X049562Y033367D01*
X049746Y033367D02*
X049869Y033367D01*
X049807Y033367D02*
X049807Y033737D01*
X049746Y033737D02*
X049869Y033737D01*
X049624Y033676D02*
X049562Y033737D01*
X049439Y033737D01*
X049377Y033676D01*
X049377Y033614D01*
X049439Y033552D01*
X048887Y033737D02*
X048887Y033367D01*
X048641Y033367D02*
X048641Y033737D01*
X048764Y033614D01*
X048887Y033737D01*
X048826Y034367D02*
X048887Y034429D01*
X048887Y034676D01*
X048826Y034737D01*
X048641Y034737D01*
X048641Y034367D01*
X048826Y034367D01*
X049009Y034429D02*
X049071Y034367D01*
X049194Y034367D01*
X049256Y034429D01*
X049256Y034676D02*
X049194Y034737D01*
X049071Y034737D01*
X049009Y034676D01*
X049009Y034429D01*
X049071Y035367D02*
X049009Y035429D01*
X049071Y035367D02*
X049194Y035367D01*
X049256Y035429D01*
X049256Y035490D01*
X049194Y035552D01*
X049071Y035552D01*
X049009Y035614D01*
X049009Y035676D01*
X049071Y035737D01*
X049194Y035737D01*
X049256Y035676D01*
X049377Y035737D02*
X049624Y035737D01*
X049501Y035737D02*
X049501Y035367D01*
X048887Y035367D02*
X048764Y035490D01*
X048826Y035490D02*
X048641Y035490D01*
X048641Y035367D02*
X048641Y035737D01*
X048826Y035737D01*
X048887Y035676D01*
X048887Y035552D01*
X048826Y035490D01*
X048826Y036367D02*
X048887Y036429D01*
X048826Y036367D02*
X048702Y036367D01*
X048641Y036429D01*
X048641Y036676D01*
X048702Y036737D01*
X048826Y036737D01*
X048887Y036676D01*
X049009Y036676D02*
X049009Y036614D01*
X049071Y036552D01*
X049194Y036552D01*
X049256Y036490D01*
X049256Y036429D01*
X049194Y036367D01*
X049071Y036367D01*
X049009Y036429D01*
X049009Y036676D02*
X049071Y036737D01*
X049194Y036737D01*
X049256Y036676D01*
X045956Y034726D02*
X045956Y034664D01*
X045894Y034602D01*
X045956Y034540D01*
X045956Y034479D01*
X045894Y034417D01*
X045771Y034417D01*
X045709Y034479D01*
X045587Y034417D02*
X045464Y034540D01*
X045526Y034540D02*
X045341Y034540D01*
X045341Y034417D02*
X045341Y034787D01*
X045526Y034787D01*
X045587Y034726D01*
X045587Y034602D01*
X045526Y034540D01*
X045709Y034726D02*
X045771Y034787D01*
X045894Y034787D01*
X045956Y034726D01*
X045894Y034602D02*
X045832Y034602D01*
X044956Y034216D02*
X044709Y033969D01*
X044771Y033907D01*
X044894Y033907D01*
X044956Y033969D01*
X044956Y034216D01*
X044894Y034277D01*
X044771Y034277D01*
X044709Y034216D01*
X044709Y033969D01*
X044587Y033907D02*
X044341Y033907D01*
X044464Y033907D02*
X044464Y034277D01*
X044341Y034154D01*
X045361Y033767D02*
X045546Y033767D01*
X045607Y033706D01*
X045607Y033582D01*
X045546Y033520D01*
X045361Y033520D01*
X045361Y033397D02*
X045361Y033767D01*
X045484Y033520D02*
X045607Y033397D01*
X045729Y033397D02*
X045976Y033644D01*
X045976Y033706D01*
X045914Y033767D01*
X045791Y033767D01*
X045729Y033706D01*
X045729Y033397D02*
X045976Y033397D01*
X045842Y032807D02*
X045842Y032437D01*
X045719Y032437D02*
X045966Y032437D01*
X045719Y032684D02*
X045842Y032807D01*
X045597Y032746D02*
X045597Y032622D01*
X045536Y032560D01*
X045351Y032560D01*
X045351Y032437D02*
X045351Y032807D01*
X045536Y032807D01*
X045597Y032746D01*
X045474Y032560D02*
X045597Y032437D01*
X044946Y032969D02*
X044884Y032907D01*
X044761Y032907D01*
X044699Y032969D01*
X044946Y033216D01*
X044946Y032969D01*
X044946Y033216D02*
X044884Y033277D01*
X044761Y033277D01*
X044699Y033216D01*
X044699Y032969D01*
X044577Y032907D02*
X044331Y032907D01*
X044454Y032907D02*
X044454Y033277D01*
X044331Y033154D01*
X044341Y034937D02*
X044587Y034937D01*
X044464Y034937D02*
X044464Y035307D01*
X044341Y035184D01*
X044709Y035246D02*
X044771Y035307D01*
X044894Y035307D01*
X044956Y035246D01*
X044709Y034999D01*
X044771Y034937D01*
X044894Y034937D01*
X044956Y034999D01*
X044956Y035246D01*
X044709Y035246D02*
X044709Y034999D01*
X044804Y031161D02*
X044742Y031100D01*
X044804Y031161D02*
X044927Y031161D01*
X044989Y031100D01*
X044989Y031038D01*
X044742Y030791D01*
X044989Y030791D01*
X045110Y030791D02*
X045357Y031038D01*
X045357Y031100D01*
X045295Y031161D01*
X045172Y031161D01*
X045110Y031100D01*
X045110Y030791D02*
X045357Y030791D01*
X044620Y030853D02*
X044559Y030791D01*
X044435Y030791D01*
X044374Y030853D01*
X044374Y031100D01*
X044435Y031161D01*
X044559Y031161D01*
X044620Y031100D01*
X044705Y029916D02*
X044828Y029916D01*
X044890Y029855D01*
X044643Y029608D01*
X044705Y029546D01*
X044828Y029546D01*
X044890Y029608D01*
X044890Y029855D01*
X045011Y029855D02*
X045073Y029916D01*
X045196Y029916D01*
X045258Y029855D01*
X045011Y029608D01*
X045073Y029546D01*
X045196Y029546D01*
X045258Y029608D01*
X045258Y029855D01*
X045380Y029793D02*
X045565Y029793D01*
X045626Y029731D01*
X045626Y029546D01*
X045380Y029546D02*
X045380Y029793D01*
X045011Y029855D02*
X045011Y029608D01*
X044681Y029505D02*
X044557Y029381D01*
X044310Y029381D01*
X044310Y029260D02*
X044310Y029013D01*
X044495Y029013D01*
X044434Y029136D01*
X044434Y029198D01*
X044495Y029260D01*
X044619Y029260D01*
X044681Y029198D01*
X044681Y029074D01*
X044619Y029013D01*
X044310Y028523D02*
X044681Y028276D01*
X044557Y028155D02*
X044310Y028155D01*
X044557Y028155D02*
X044681Y028031D01*
X044557Y027908D01*
X044310Y027908D01*
X044372Y027786D02*
X044434Y027786D01*
X044495Y027725D01*
X044557Y027786D01*
X044619Y027786D01*
X044681Y027725D01*
X044681Y027601D01*
X044619Y027540D01*
X044619Y027417D02*
X044681Y027417D01*
X044681Y027355D01*
X044619Y027355D01*
X044619Y027417D01*
X044619Y027234D02*
X044681Y027172D01*
X044681Y027049D01*
X044619Y026987D01*
X044495Y027110D02*
X044495Y027172D01*
X044557Y027234D01*
X044619Y027234D01*
X044495Y027172D02*
X044434Y027234D01*
X044372Y027234D01*
X044310Y027172D01*
X044310Y027049D01*
X044372Y026987D01*
X044372Y027540D02*
X044310Y027601D01*
X044310Y027725D01*
X044372Y027786D01*
X044495Y027725D02*
X044495Y027663D01*
X044522Y026241D02*
X044398Y026241D01*
X044337Y026180D01*
X044337Y025933D01*
X044398Y025871D01*
X044522Y025871D01*
X044583Y025933D01*
X044705Y025871D02*
X044952Y025871D01*
X044828Y025871D02*
X044828Y026241D01*
X044705Y026118D01*
X044583Y026180D02*
X044522Y026241D01*
X045073Y026241D02*
X045073Y026056D01*
X045197Y026118D01*
X045258Y026118D01*
X045320Y026056D01*
X045320Y025933D01*
X045258Y025871D01*
X045135Y025871D01*
X045073Y025933D01*
X045073Y026241D02*
X045320Y026241D01*
X045154Y024976D02*
X045216Y024915D01*
X044969Y024668D01*
X045031Y024606D01*
X045154Y024606D01*
X045216Y024668D01*
X045216Y024915D01*
X045154Y024976D02*
X045031Y024976D01*
X044969Y024915D01*
X044969Y024668D01*
X044848Y024668D02*
X044786Y024606D01*
X044663Y024606D01*
X044601Y024668D01*
X044848Y024915D01*
X044848Y024668D01*
X044848Y024915D02*
X044786Y024976D01*
X044663Y024976D01*
X044601Y024915D01*
X044601Y024668D01*
X044479Y024606D02*
X044233Y024606D01*
X044356Y024606D02*
X044356Y024976D01*
X044233Y024853D01*
X045338Y024853D02*
X045523Y024853D01*
X045584Y024791D01*
X045584Y024606D01*
X045338Y024606D02*
X045338Y024853D01*
X051149Y021240D02*
X051149Y020993D01*
X051211Y020931D01*
X051334Y020931D01*
X051396Y020993D01*
X051517Y020931D02*
X051764Y020931D01*
X051886Y020931D02*
X052133Y021178D01*
X052133Y021240D01*
X052071Y021301D01*
X051947Y021301D01*
X051886Y021240D01*
X051641Y021301D02*
X051641Y020931D01*
X051886Y020931D02*
X052133Y020931D01*
X052379Y020931D02*
X052626Y020931D01*
X052503Y020931D02*
X052503Y021301D01*
X052379Y021178D01*
X052747Y021240D02*
X052809Y021301D01*
X052933Y021301D01*
X052994Y021240D01*
X052747Y020993D01*
X052809Y020931D01*
X052933Y020931D01*
X052994Y020993D01*
X052994Y021240D01*
X053116Y021240D02*
X053177Y021301D01*
X053301Y021301D01*
X053363Y021240D01*
X053116Y020993D01*
X053177Y020931D01*
X053301Y020931D01*
X053363Y020993D01*
X053363Y021240D01*
X053484Y021178D02*
X053669Y021178D01*
X053731Y021116D01*
X053731Y020931D01*
X053484Y020931D02*
X053484Y021178D01*
X053116Y021240D02*
X053116Y020993D01*
X052747Y020993D02*
X052747Y021240D01*
X051641Y021301D02*
X051517Y021178D01*
X051396Y021240D02*
X051334Y021301D01*
X051211Y021301D01*
X051149Y021240D01*
X050876Y020061D02*
X050938Y019999D01*
X050691Y019752D01*
X050752Y019691D01*
X050876Y019691D01*
X050938Y019752D01*
X050938Y019999D01*
X050876Y020061D02*
X050752Y020061D01*
X050691Y019999D01*
X050691Y019752D01*
X050569Y019691D02*
X050322Y019691D01*
X050446Y019691D02*
X050446Y020061D01*
X050322Y019938D01*
X051059Y019938D02*
X051059Y019752D01*
X051121Y019691D01*
X051306Y019691D01*
X051306Y019938D01*
X051427Y019876D02*
X051551Y019876D01*
X051427Y020061D02*
X051674Y020061D01*
X051427Y020061D02*
X051427Y019691D01*
X051796Y019691D02*
X052043Y020061D01*
X052164Y019876D02*
X052349Y019876D01*
X052411Y019814D01*
X052411Y019752D01*
X052349Y019691D01*
X052226Y019691D01*
X052164Y019752D01*
X052164Y019876D01*
X052287Y019999D01*
X052411Y020061D01*
X052716Y019999D02*
X052778Y020061D01*
X052902Y020061D01*
X052963Y019999D01*
X052963Y019938D01*
X052902Y019876D01*
X052963Y019814D01*
X052963Y019752D01*
X052902Y019691D01*
X052778Y019691D01*
X052716Y019752D01*
X052594Y019752D02*
X052594Y019691D01*
X052532Y019691D01*
X052532Y019752D01*
X052594Y019752D01*
X052840Y019876D02*
X052902Y019876D01*
X053085Y019814D02*
X053208Y019691D01*
X053332Y019814D01*
X053332Y020061D01*
X053085Y020061D02*
X053085Y019814D01*
X051717Y018102D02*
X051778Y018040D01*
X051778Y017978D01*
X051717Y017916D01*
X051593Y017916D01*
X051531Y017978D01*
X051531Y018040D01*
X051593Y018102D01*
X051717Y018102D01*
X051717Y017916D02*
X051778Y017855D01*
X051778Y017793D01*
X051717Y017731D01*
X051593Y017731D01*
X051531Y017793D01*
X051531Y017855D01*
X051593Y017916D01*
X051410Y017793D02*
X051348Y017731D01*
X051225Y017731D01*
X051163Y017793D01*
X051163Y018040D01*
X051225Y018102D01*
X051348Y018102D01*
X051410Y018040D01*
X051614Y024394D02*
X051614Y024764D01*
X051799Y024764D01*
X051861Y024703D01*
X051861Y024579D01*
X051799Y024517D01*
X051614Y024517D01*
X051737Y024517D02*
X051861Y024394D01*
X051982Y024394D02*
X052229Y024641D01*
X052229Y024703D01*
X052167Y024764D01*
X052044Y024764D01*
X051982Y024703D01*
X051982Y024394D02*
X052229Y024394D01*
X052351Y024394D02*
X052597Y024394D01*
X052474Y024394D02*
X052474Y024764D01*
X052351Y024641D01*
X052906Y024678D02*
X053029Y024801D01*
X053029Y024431D01*
X052906Y024431D02*
X053153Y024431D01*
X053274Y024493D02*
X053521Y024740D01*
X053521Y024493D01*
X053459Y024431D01*
X053336Y024431D01*
X053274Y024493D01*
X053274Y024740D01*
X053336Y024801D01*
X053459Y024801D01*
X053521Y024740D01*
X053486Y025388D02*
X053363Y025388D01*
X053301Y025450D01*
X053548Y025697D01*
X053548Y025450D01*
X053486Y025388D01*
X053301Y025450D02*
X053301Y025697D01*
X053363Y025758D01*
X053486Y025758D01*
X053548Y025697D01*
X053180Y025388D02*
X052933Y025388D01*
X053056Y025388D02*
X053056Y025758D01*
X052933Y025635D01*
X052627Y025722D02*
X052381Y025475D01*
X052442Y025413D01*
X052566Y025413D01*
X052627Y025475D01*
X052627Y025722D01*
X052566Y025783D01*
X052442Y025783D01*
X052381Y025722D01*
X052381Y025475D01*
X052259Y025413D02*
X052012Y025413D01*
X052259Y025660D01*
X052259Y025722D01*
X052197Y025783D01*
X052074Y025783D01*
X052012Y025722D01*
X051891Y025722D02*
X051891Y025598D01*
X051829Y025536D01*
X051644Y025536D01*
X051644Y025413D02*
X051644Y025783D01*
X051829Y025783D01*
X051891Y025722D01*
X051767Y025536D02*
X051891Y025413D01*
X051900Y026387D02*
X051776Y026510D01*
X051838Y026510D02*
X051653Y026510D01*
X051653Y026387D02*
X051653Y026757D01*
X051838Y026757D01*
X051900Y026696D01*
X051900Y026572D01*
X051838Y026510D01*
X052021Y026387D02*
X052268Y026387D01*
X052145Y026387D02*
X052145Y026757D01*
X052021Y026634D01*
X052390Y026634D02*
X052451Y026572D01*
X052636Y026572D01*
X052636Y026449D02*
X052636Y026696D01*
X052575Y026757D01*
X052451Y026757D01*
X052390Y026696D01*
X052390Y026634D01*
X052390Y026449D02*
X052451Y026387D01*
X052575Y026387D01*
X052636Y026449D01*
X052947Y026377D02*
X053194Y026377D01*
X053070Y026377D02*
X053070Y026747D01*
X052947Y026624D01*
X053315Y026686D02*
X053377Y026747D01*
X053500Y026747D01*
X053562Y026686D01*
X053315Y026439D01*
X053377Y026377D01*
X053500Y026377D01*
X053562Y026439D01*
X053562Y026686D01*
X053315Y026686D02*
X053315Y026439D01*
X053340Y027365D02*
X053278Y027427D01*
X053525Y027674D01*
X053525Y027427D01*
X053463Y027365D01*
X053340Y027365D01*
X053278Y027427D02*
X053278Y027674D01*
X053340Y027735D01*
X053463Y027735D01*
X053525Y027674D01*
X053157Y027365D02*
X052910Y027365D01*
X053033Y027365D02*
X053033Y027735D01*
X052910Y027612D01*
X052625Y027506D02*
X052564Y027568D01*
X052379Y027568D01*
X052379Y027445D01*
X052440Y027383D01*
X052564Y027383D01*
X052625Y027445D01*
X052625Y027506D01*
X052502Y027692D02*
X052379Y027568D01*
X052502Y027692D02*
X052625Y027753D01*
X052134Y027753D02*
X052134Y027383D01*
X052257Y027383D02*
X052010Y027383D01*
X051889Y027383D02*
X051765Y027506D01*
X051827Y027506D02*
X051642Y027506D01*
X051642Y027383D02*
X051642Y027753D01*
X051827Y027753D01*
X051889Y027692D01*
X051889Y027568D01*
X051827Y027506D01*
X052010Y027630D02*
X052134Y027753D01*
X044681Y029505D02*
X044557Y029628D01*
X044310Y029628D01*
X044275Y029546D02*
X044521Y029546D01*
X044398Y029546D02*
X044398Y029916D01*
X044275Y029793D01*
X044643Y029855D02*
X044705Y029916D01*
X044643Y029855D02*
X044643Y029608D01*
X009121Y041415D02*
X009072Y041367D01*
X009121Y041415D02*
X009121Y041512D01*
X009072Y041561D01*
X009024Y041561D01*
X008975Y041512D01*
X008975Y041415D01*
X008927Y041367D01*
X008879Y041367D01*
X008830Y041415D01*
X008830Y041512D01*
X008879Y041561D01*
X008830Y041662D02*
X008830Y041807D01*
X008879Y041855D01*
X009072Y041855D01*
X009121Y041807D01*
X009121Y041662D01*
X008830Y041662D01*
X008927Y041956D02*
X008830Y042053D01*
X008927Y042150D01*
X009121Y042150D01*
X008975Y042150D02*
X008975Y041956D01*
X008927Y041956D02*
X009121Y041956D01*
X008101Y042025D02*
X008052Y041976D01*
X007859Y041976D01*
X007810Y042025D01*
X007810Y042121D01*
X007859Y042170D01*
X008052Y042170D02*
X008101Y042121D01*
X008101Y042025D01*
X008052Y041875D02*
X007859Y041875D01*
X007810Y041827D01*
X007810Y041682D01*
X008101Y041682D01*
X008101Y041827D01*
X008052Y041875D01*
X008101Y041581D02*
X007907Y041581D01*
X007810Y041484D01*
X007907Y041387D01*
X008101Y041387D01*
X007955Y041387D02*
X007955Y041581D01*
X007131Y041622D02*
X007131Y041525D01*
X007082Y041477D01*
X006985Y041574D02*
X006985Y041622D01*
X007034Y041671D01*
X007082Y041671D01*
X007131Y041622D01*
X006985Y041622D02*
X006937Y041671D01*
X006889Y041671D01*
X006840Y041622D01*
X006840Y041525D01*
X006889Y041477D01*
X006840Y041772D02*
X007034Y041772D01*
X007131Y041868D01*
X007034Y041965D01*
X006840Y041965D01*
X006889Y042066D02*
X006840Y042115D01*
X006840Y042211D01*
X006889Y042260D01*
X006937Y042260D01*
X006985Y042211D01*
X007034Y042260D01*
X007082Y042260D01*
X007131Y042211D01*
X007131Y042115D01*
X007082Y042066D01*
X006985Y042163D02*
X006985Y042211D01*
X006101Y042071D02*
X006101Y041926D01*
X005810Y041926D01*
X005810Y042071D01*
X005859Y042120D01*
X006052Y042120D01*
X006101Y042071D01*
X006101Y041825D02*
X005810Y041825D01*
X005810Y041632D02*
X006101Y041825D01*
X006101Y041632D02*
X005810Y041632D01*
X005859Y041531D02*
X005810Y041482D01*
X005810Y041385D01*
X005859Y041337D01*
X006052Y041337D01*
X006101Y041385D01*
X006101Y041482D01*
X006052Y041531D01*
X005955Y041531D01*
X005955Y041434D01*
D16*
X002586Y040380D02*
X002588Y040432D01*
X002594Y040484D01*
X002604Y040535D01*
X002617Y040585D01*
X002635Y040635D01*
X002656Y040682D01*
X002680Y040728D01*
X002709Y040772D01*
X002740Y040814D01*
X002774Y040853D01*
X002811Y040890D01*
X002851Y040923D01*
X002894Y040954D01*
X002938Y040981D01*
X002984Y041005D01*
X003033Y041025D01*
X003082Y041041D01*
X003133Y041054D01*
X003184Y041063D01*
X003236Y041068D01*
X003288Y041069D01*
X003340Y041066D01*
X003392Y041059D01*
X003443Y041048D01*
X003493Y041034D01*
X003542Y041015D01*
X003589Y040993D01*
X003634Y040968D01*
X003678Y040939D01*
X003719Y040907D01*
X003758Y040872D01*
X003793Y040834D01*
X003826Y040793D01*
X003856Y040751D01*
X003882Y040706D01*
X003905Y040659D01*
X003924Y040610D01*
X003940Y040560D01*
X003952Y040510D01*
X003960Y040458D01*
X003964Y040406D01*
X003964Y040354D01*
X003960Y040302D01*
X003952Y040250D01*
X003940Y040200D01*
X003924Y040150D01*
X003905Y040101D01*
X003882Y040054D01*
X003856Y040009D01*
X003826Y039967D01*
X003793Y039926D01*
X003758Y039888D01*
X003719Y039853D01*
X003678Y039821D01*
X003634Y039792D01*
X003589Y039767D01*
X003542Y039745D01*
X003493Y039726D01*
X003443Y039712D01*
X003392Y039701D01*
X003340Y039694D01*
X003288Y039691D01*
X003236Y039692D01*
X003184Y039697D01*
X003133Y039706D01*
X003082Y039719D01*
X003033Y039735D01*
X002984Y039755D01*
X002938Y039779D01*
X002894Y039806D01*
X002851Y039837D01*
X002811Y039870D01*
X002774Y039907D01*
X002740Y039946D01*
X002709Y039988D01*
X002680Y040032D01*
X002656Y040078D01*
X002635Y040125D01*
X002617Y040175D01*
X002604Y040225D01*
X002594Y040276D01*
X002588Y040328D01*
X002586Y040380D01*
X026592Y018809D02*
X027163Y019380D01*
X031159Y019380D01*
X031159Y017923D01*
X031159Y016781D02*
X031159Y015324D01*
X027163Y015324D01*
X026592Y015895D01*
X026592Y016781D01*
X026592Y017923D02*
X026592Y018809D01*
X027025Y016801D02*
X027052Y016718D01*
X027082Y016637D01*
X027116Y016557D01*
X027154Y016479D01*
X027195Y016402D01*
X027239Y016328D01*
X027287Y016255D01*
X027338Y016185D01*
X027392Y016117D01*
X027449Y016051D01*
X027509Y015988D01*
X027571Y015928D01*
X027637Y015871D01*
X027704Y015817D01*
X027775Y015766D01*
X027847Y015718D01*
X027922Y015673D01*
X027998Y015632D01*
X028076Y015594D01*
X028156Y015560D01*
X028237Y015530D01*
X028320Y015503D01*
X028403Y015480D01*
X028488Y015460D01*
X028573Y015445D01*
X028659Y015433D01*
X028746Y015425D01*
X028833Y015421D01*
X028919Y015421D01*
X029006Y015425D01*
X029093Y015433D01*
X029179Y015445D01*
X029264Y015460D01*
X029349Y015480D01*
X029432Y015503D01*
X029515Y015530D01*
X029596Y015560D01*
X029676Y015594D01*
X029754Y015632D01*
X029830Y015673D01*
X029905Y015718D01*
X029977Y015766D01*
X030048Y015817D01*
X030115Y015871D01*
X030181Y015928D01*
X030243Y015988D01*
X030303Y016051D01*
X030360Y016117D01*
X030414Y016185D01*
X030465Y016255D01*
X030513Y016328D01*
X030557Y016402D01*
X030598Y016479D01*
X030636Y016557D01*
X030670Y016637D01*
X030700Y016718D01*
X030727Y016801D01*
X030727Y017903D02*
X030700Y017986D01*
X030670Y018067D01*
X030636Y018147D01*
X030598Y018225D01*
X030557Y018302D01*
X030513Y018376D01*
X030465Y018449D01*
X030414Y018519D01*
X030360Y018587D01*
X030303Y018653D01*
X030243Y018716D01*
X030181Y018776D01*
X030115Y018833D01*
X030048Y018887D01*
X029977Y018938D01*
X029905Y018986D01*
X029830Y019031D01*
X029754Y019072D01*
X029676Y019110D01*
X029596Y019144D01*
X029515Y019174D01*
X029432Y019201D01*
X029349Y019224D01*
X029264Y019244D01*
X029179Y019259D01*
X029093Y019271D01*
X029006Y019279D01*
X028919Y019283D01*
X028833Y019283D01*
X028746Y019279D01*
X028659Y019271D01*
X028573Y019259D01*
X028488Y019244D01*
X028403Y019224D01*
X028320Y019201D01*
X028237Y019174D01*
X028156Y019144D01*
X028076Y019110D01*
X027998Y019072D01*
X027922Y019031D01*
X027847Y018986D01*
X027775Y018938D01*
X027704Y018887D01*
X027637Y018833D01*
X027571Y018776D01*
X027509Y018716D01*
X027449Y018653D01*
X027392Y018587D01*
X027338Y018519D01*
X027287Y018449D01*
X027239Y018376D01*
X027195Y018302D01*
X027154Y018225D01*
X027116Y018147D01*
X027082Y018067D01*
X027052Y017986D01*
X027025Y017903D01*
X030933Y012821D02*
X030935Y012873D01*
X030941Y012925D01*
X030951Y012976D01*
X030964Y013026D01*
X030982Y013076D01*
X031003Y013123D01*
X031027Y013169D01*
X031056Y013213D01*
X031087Y013255D01*
X031121Y013294D01*
X031158Y013331D01*
X031198Y013364D01*
X031241Y013395D01*
X031285Y013422D01*
X031331Y013446D01*
X031380Y013466D01*
X031429Y013482D01*
X031480Y013495D01*
X031531Y013504D01*
X031583Y013509D01*
X031635Y013510D01*
X031687Y013507D01*
X031739Y013500D01*
X031790Y013489D01*
X031840Y013475D01*
X031889Y013456D01*
X031936Y013434D01*
X031981Y013409D01*
X032025Y013380D01*
X032066Y013348D01*
X032105Y013313D01*
X032140Y013275D01*
X032173Y013234D01*
X032203Y013192D01*
X032229Y013147D01*
X032252Y013100D01*
X032271Y013051D01*
X032287Y013001D01*
X032299Y012951D01*
X032307Y012899D01*
X032311Y012847D01*
X032311Y012795D01*
X032307Y012743D01*
X032299Y012691D01*
X032287Y012641D01*
X032271Y012591D01*
X032252Y012542D01*
X032229Y012495D01*
X032203Y012450D01*
X032173Y012408D01*
X032140Y012367D01*
X032105Y012329D01*
X032066Y012294D01*
X032025Y012262D01*
X031981Y012233D01*
X031936Y012208D01*
X031889Y012186D01*
X031840Y012167D01*
X031790Y012153D01*
X031739Y012142D01*
X031687Y012135D01*
X031635Y012132D01*
X031583Y012133D01*
X031531Y012138D01*
X031480Y012147D01*
X031429Y012160D01*
X031380Y012176D01*
X031331Y012196D01*
X031285Y012220D01*
X031241Y012247D01*
X031198Y012278D01*
X031158Y012311D01*
X031121Y012348D01*
X031087Y012387D01*
X031056Y012429D01*
X031027Y012473D01*
X031003Y012519D01*
X030982Y012566D01*
X030964Y012616D01*
X030951Y012666D01*
X030941Y012717D01*
X030935Y012769D01*
X030933Y012821D01*
X044529Y015228D02*
X044531Y015243D01*
X044537Y015256D01*
X044546Y015268D01*
X044557Y015277D01*
X044571Y015283D01*
X044586Y015285D01*
X044601Y015283D01*
X044614Y015277D01*
X044626Y015268D01*
X044635Y015257D01*
X044641Y015243D01*
X044643Y015228D01*
X044641Y015213D01*
X044635Y015200D01*
X044626Y015188D01*
X044615Y015179D01*
X044601Y015173D01*
X044586Y015171D01*
X044571Y015173D01*
X044558Y015179D01*
X044546Y015188D01*
X044537Y015199D01*
X044531Y015213D01*
X044529Y015228D01*
X044676Y015453D02*
X044676Y015791D01*
X045796Y015791D02*
X045796Y015453D01*
X059279Y012821D02*
X059281Y012873D01*
X059287Y012925D01*
X059297Y012976D01*
X059310Y013026D01*
X059328Y013076D01*
X059349Y013123D01*
X059373Y013169D01*
X059402Y013213D01*
X059433Y013255D01*
X059467Y013294D01*
X059504Y013331D01*
X059544Y013364D01*
X059587Y013395D01*
X059631Y013422D01*
X059677Y013446D01*
X059726Y013466D01*
X059775Y013482D01*
X059826Y013495D01*
X059877Y013504D01*
X059929Y013509D01*
X059981Y013510D01*
X060033Y013507D01*
X060085Y013500D01*
X060136Y013489D01*
X060186Y013475D01*
X060235Y013456D01*
X060282Y013434D01*
X060327Y013409D01*
X060371Y013380D01*
X060412Y013348D01*
X060451Y013313D01*
X060486Y013275D01*
X060519Y013234D01*
X060549Y013192D01*
X060575Y013147D01*
X060598Y013100D01*
X060617Y013051D01*
X060633Y013001D01*
X060645Y012951D01*
X060653Y012899D01*
X060657Y012847D01*
X060657Y012795D01*
X060653Y012743D01*
X060645Y012691D01*
X060633Y012641D01*
X060617Y012591D01*
X060598Y012542D01*
X060575Y012495D01*
X060549Y012450D01*
X060519Y012408D01*
X060486Y012367D01*
X060451Y012329D01*
X060412Y012294D01*
X060371Y012262D01*
X060327Y012233D01*
X060282Y012208D01*
X060235Y012186D01*
X060186Y012167D01*
X060136Y012153D01*
X060085Y012142D01*
X060033Y012135D01*
X059981Y012132D01*
X059929Y012133D01*
X059877Y012138D01*
X059826Y012147D01*
X059775Y012160D01*
X059726Y012176D01*
X059677Y012196D01*
X059631Y012220D01*
X059587Y012247D01*
X059544Y012278D01*
X059504Y012311D01*
X059467Y012348D01*
X059433Y012387D01*
X059402Y012429D01*
X059373Y012473D01*
X059349Y012519D01*
X059328Y012566D01*
X059310Y012616D01*
X059297Y012666D01*
X059287Y012717D01*
X059281Y012769D01*
X059279Y012821D01*
X059279Y040380D02*
X059281Y040432D01*
X059287Y040484D01*
X059297Y040535D01*
X059310Y040585D01*
X059328Y040635D01*
X059349Y040682D01*
X059373Y040728D01*
X059402Y040772D01*
X059433Y040814D01*
X059467Y040853D01*
X059504Y040890D01*
X059544Y040923D01*
X059587Y040954D01*
X059631Y040981D01*
X059677Y041005D01*
X059726Y041025D01*
X059775Y041041D01*
X059826Y041054D01*
X059877Y041063D01*
X059929Y041068D01*
X059981Y041069D01*
X060033Y041066D01*
X060085Y041059D01*
X060136Y041048D01*
X060186Y041034D01*
X060235Y041015D01*
X060282Y040993D01*
X060327Y040968D01*
X060371Y040939D01*
X060412Y040907D01*
X060451Y040872D01*
X060486Y040834D01*
X060519Y040793D01*
X060549Y040751D01*
X060575Y040706D01*
X060598Y040659D01*
X060617Y040610D01*
X060633Y040560D01*
X060645Y040510D01*
X060653Y040458D01*
X060657Y040406D01*
X060657Y040354D01*
X060653Y040302D01*
X060645Y040250D01*
X060633Y040200D01*
X060617Y040150D01*
X060598Y040101D01*
X060575Y040054D01*
X060549Y040009D01*
X060519Y039967D01*
X060486Y039926D01*
X060451Y039888D01*
X060412Y039853D01*
X060371Y039821D01*
X060327Y039792D01*
X060282Y039767D01*
X060235Y039745D01*
X060186Y039726D01*
X060136Y039712D01*
X060085Y039701D01*
X060033Y039694D01*
X059981Y039691D01*
X059929Y039692D01*
X059877Y039697D01*
X059826Y039706D01*
X059775Y039719D01*
X059726Y039735D01*
X059677Y039755D01*
X059631Y039779D01*
X059587Y039806D01*
X059544Y039837D01*
X059504Y039870D01*
X059467Y039907D01*
X059433Y039946D01*
X059402Y039988D01*
X059373Y040032D01*
X059349Y040078D01*
X059328Y040125D01*
X059310Y040175D01*
X059297Y040225D01*
X059287Y040276D01*
X059281Y040328D01*
X059279Y040380D01*
X002586Y012821D02*
X002588Y012873D01*
X002594Y012925D01*
X002604Y012976D01*
X002617Y013026D01*
X002635Y013076D01*
X002656Y013123D01*
X002680Y013169D01*
X002709Y013213D01*
X002740Y013255D01*
X002774Y013294D01*
X002811Y013331D01*
X002851Y013364D01*
X002894Y013395D01*
X002938Y013422D01*
X002984Y013446D01*
X003033Y013466D01*
X003082Y013482D01*
X003133Y013495D01*
X003184Y013504D01*
X003236Y013509D01*
X003288Y013510D01*
X003340Y013507D01*
X003392Y013500D01*
X003443Y013489D01*
X003493Y013475D01*
X003542Y013456D01*
X003589Y013434D01*
X003634Y013409D01*
X003678Y013380D01*
X003719Y013348D01*
X003758Y013313D01*
X003793Y013275D01*
X003826Y013234D01*
X003856Y013192D01*
X003882Y013147D01*
X003905Y013100D01*
X003924Y013051D01*
X003940Y013001D01*
X003952Y012951D01*
X003960Y012899D01*
X003964Y012847D01*
X003964Y012795D01*
X003960Y012743D01*
X003952Y012691D01*
X003940Y012641D01*
X003924Y012591D01*
X003905Y012542D01*
X003882Y012495D01*
X003856Y012450D01*
X003826Y012408D01*
X003793Y012367D01*
X003758Y012329D01*
X003719Y012294D01*
X003678Y012262D01*
X003634Y012233D01*
X003589Y012208D01*
X003542Y012186D01*
X003493Y012167D01*
X003443Y012153D01*
X003392Y012142D01*
X003340Y012135D01*
X003288Y012132D01*
X003236Y012133D01*
X003184Y012138D01*
X003133Y012147D01*
X003082Y012160D01*
X003033Y012176D01*
X002984Y012196D01*
X002938Y012220D01*
X002894Y012247D01*
X002851Y012278D01*
X002811Y012311D01*
X002774Y012348D01*
X002740Y012387D01*
X002709Y012429D01*
X002680Y012473D01*
X002656Y012519D01*
X002635Y012566D01*
X002617Y012616D01*
X002604Y012666D01*
X002594Y012717D01*
X002588Y012769D01*
X002586Y012821D01*
D17*
X023836Y024742D02*
X023836Y025962D01*
X024416Y025962D01*
X024416Y025882D01*
X024416Y025852D01*
X024416Y024742D01*
X023836Y024742D01*
X024836Y024742D02*
X024836Y025962D01*
X025416Y025962D01*
X025416Y025882D01*
X025416Y025852D01*
X025416Y024742D01*
X024836Y024742D01*
X025836Y024742D02*
X025836Y025962D01*
X026416Y025962D01*
X026416Y025882D01*
X026416Y025852D01*
X026416Y024742D01*
X025836Y024742D01*
X027686Y026182D02*
X028796Y026182D01*
X028826Y026182D01*
X028906Y026182D01*
X028906Y026762D01*
X027686Y026762D01*
X027686Y026182D01*
X027706Y027322D02*
X028886Y027322D01*
X028886Y027902D01*
X027706Y027902D01*
X027706Y027322D01*
X027706Y028832D02*
X028886Y028832D01*
X028886Y029412D01*
X027706Y029412D01*
X027706Y028832D01*
X025166Y031322D02*
X024586Y031322D01*
X024586Y032502D01*
X025166Y032502D01*
X025166Y031322D01*
X024235Y031271D02*
X024235Y031851D01*
X023055Y031851D01*
X023055Y031271D01*
X024235Y031271D01*
X024586Y032702D02*
X024586Y033882D01*
X025166Y033882D01*
X025166Y032702D01*
X024586Y032702D01*
X024235Y033318D02*
X023055Y033318D01*
X023055Y033898D01*
X024235Y033898D01*
X024235Y033318D01*
X024586Y034242D02*
X025166Y034242D01*
X025166Y035462D01*
X024586Y035462D01*
X024586Y034352D01*
X024586Y034322D01*
X024586Y034242D01*
X024185Y038042D02*
X025295Y038042D01*
X025325Y038042D01*
X025405Y038042D01*
X025405Y038622D01*
X024185Y038622D01*
X024185Y038042D01*
X023386Y038042D02*
X023386Y038622D01*
X022276Y038622D01*
X022246Y038622D01*
X022166Y038622D01*
X022166Y038042D01*
X023386Y038042D01*
X021015Y038042D02*
X021015Y038622D01*
X019795Y038622D01*
X019795Y038042D01*
X020905Y038042D01*
X020935Y038042D01*
X021015Y038042D01*
X019533Y038042D02*
X018313Y038042D01*
X018313Y038622D01*
X018393Y038622D01*
X018423Y038622D01*
X019533Y038622D01*
X019533Y038042D01*
X016446Y038042D02*
X015226Y038042D01*
X015226Y038622D01*
X015306Y038622D01*
X015336Y038622D01*
X016446Y038622D01*
X016446Y038042D01*
X012539Y038042D02*
X012539Y038622D01*
X011319Y038622D01*
X011319Y038042D01*
X012429Y038042D01*
X012459Y038042D01*
X012539Y038042D01*
X012519Y037126D02*
X011339Y037126D01*
X011339Y036546D01*
X012519Y036546D01*
X012519Y037126D01*
X010716Y038042D02*
X010716Y038622D01*
X009536Y038622D01*
X009536Y038042D01*
X010716Y038042D01*
X008716Y038042D02*
X007536Y038042D01*
X007536Y038622D01*
X008716Y038622D01*
X008716Y038042D01*
X006995Y038042D02*
X006995Y038622D01*
X005775Y038622D01*
X005775Y038042D01*
X006885Y038042D01*
X006915Y038042D01*
X006995Y038042D01*
X025863Y038042D02*
X025863Y038622D01*
X025943Y038622D01*
X025973Y038622D01*
X027083Y038622D01*
X027083Y038042D01*
X025863Y038042D01*
X028336Y039512D02*
X028336Y040692D01*
X028916Y040692D01*
X028916Y039512D01*
X028336Y039512D01*
X044036Y034892D02*
X044036Y034312D01*
X045216Y034312D01*
X045216Y034892D01*
X044036Y034892D01*
X044036Y033892D02*
X045216Y033892D01*
X045216Y033312D01*
X044036Y033312D01*
X044036Y033892D01*
X044036Y032892D02*
X045216Y032892D01*
X045216Y032312D01*
X044036Y032312D01*
X044036Y032892D01*
X044236Y030672D02*
X045456Y030672D01*
X045456Y030092D01*
X045376Y030092D01*
X045346Y030092D01*
X044236Y030092D01*
X044236Y030672D01*
X050323Y027912D02*
X050323Y027332D01*
X051503Y027332D01*
X051503Y027912D01*
X050323Y027912D01*
X050323Y026862D02*
X051503Y026862D01*
X051503Y026282D01*
X050323Y026282D01*
X050323Y026862D01*
X050323Y025872D02*
X051503Y025872D01*
X051503Y025292D01*
X050323Y025292D01*
X050323Y025872D01*
X050323Y024862D02*
X051503Y024862D01*
X051503Y024282D01*
X050323Y024282D01*
X050323Y024862D01*
X045436Y025129D02*
X045436Y025709D01*
X044216Y025709D01*
X044216Y025129D01*
X045326Y025129D01*
X045356Y025129D01*
X045436Y025129D01*
X051484Y020776D02*
X052704Y020776D01*
X052704Y020196D01*
X052624Y020196D01*
X052594Y020196D01*
X051484Y020196D01*
X051484Y020776D01*
X046346Y017812D02*
X046346Y016632D01*
X045766Y016632D01*
X045766Y017812D01*
X046346Y017812D01*
X044736Y017782D02*
X044736Y016602D01*
X044156Y016602D01*
X044156Y017782D01*
X044736Y017782D01*
X034825Y017348D02*
X034825Y016168D01*
X034245Y016168D01*
X034245Y017348D01*
X034825Y017348D01*
X033526Y017348D02*
X033526Y016168D01*
X032946Y016168D01*
X032946Y017348D01*
X033526Y017348D01*
X028295Y014882D02*
X028295Y014302D01*
X027075Y014302D01*
X027075Y014882D01*
X027155Y014882D01*
X027185Y014882D01*
X028295Y014882D01*
X028295Y014095D02*
X027185Y014095D01*
X027155Y014095D01*
X027075Y014095D01*
X027075Y013515D01*
X028295Y013515D01*
X028295Y014095D01*
X028295Y013307D02*
X027185Y013307D01*
X027155Y013307D01*
X027075Y013307D01*
X027075Y012727D01*
X028295Y012727D01*
X028295Y013307D01*
D18*
X037459Y012296D02*
X040372Y012296D01*
X040372Y014560D01*
X037459Y014560D01*
X037459Y012296D01*
X037459Y016516D02*
X040372Y016516D01*
X040372Y018780D01*
X037459Y018780D01*
X037459Y016516D01*
X046197Y022677D02*
X046197Y029527D01*
X048461Y029527D01*
X048461Y022677D01*
X046197Y022677D01*
X046220Y023582D02*
X046417Y023582D01*
X046417Y028582D02*
X046220Y028582D01*
X046197Y029685D02*
X046197Y037519D01*
X048461Y037519D01*
X048461Y029685D01*
X046197Y029685D01*
X046220Y030571D02*
X046417Y030571D01*
X046417Y036594D02*
X046220Y036594D01*
X027954Y036035D02*
X027954Y030168D01*
X025690Y030168D01*
X025690Y036035D01*
X027954Y036035D01*
X025909Y035109D02*
X025713Y035109D01*
X025713Y031094D02*
X025909Y031094D01*
X023551Y029694D02*
X016700Y029694D01*
X016700Y027430D01*
X023551Y027430D01*
X023551Y029694D01*
X022606Y029671D02*
X022606Y029474D01*
X017606Y029474D02*
X017606Y029671D01*
X014901Y039044D02*
X020767Y039044D01*
X020767Y041308D01*
X014901Y041308D01*
X014901Y039044D01*
X014389Y039044D02*
X014389Y041308D01*
X010492Y041308D01*
X010492Y039044D01*
X014389Y039044D01*
X013464Y041088D02*
X013464Y041285D01*
X011456Y041285D02*
X011456Y041088D01*
X009921Y041308D02*
X005039Y041308D01*
X005039Y039044D01*
X009921Y039044D01*
X009921Y041308D01*
X008976Y041285D02*
X008976Y041088D01*
X005944Y041088D02*
X005944Y041285D01*
X015826Y041285D02*
X015826Y041088D01*
X019842Y041088D02*
X019842Y041285D01*
X021200Y041308D02*
X027067Y041308D01*
X027067Y039044D01*
X021200Y039044D01*
X021200Y041308D01*
X022126Y041285D02*
X022126Y041088D01*
X026141Y041088D02*
X026141Y041285D01*
X015421Y019261D02*
X011523Y019261D01*
X011523Y016997D01*
X015421Y016997D01*
X015421Y019261D01*
X014496Y019238D02*
X014496Y019041D01*
X012488Y019041D02*
X012488Y019238D01*
X048167Y018627D02*
X048167Y011777D01*
X050431Y011777D01*
X050431Y018627D01*
X048167Y018627D01*
X048190Y017682D02*
X048387Y017682D01*
X048387Y012682D02*
X048190Y012682D01*
D19*
X018467Y013126D02*
X018467Y012026D01*
X018465Y011992D01*
X018459Y011959D01*
X018450Y011927D01*
X018437Y011896D01*
X018421Y011866D01*
X018402Y011839D01*
X018379Y011814D01*
X018354Y011791D01*
X018327Y011772D01*
X018297Y011756D01*
X018266Y011743D01*
X018234Y011734D01*
X018201Y011728D01*
X018167Y011726D01*
X014367Y011726D02*
X014333Y011728D01*
X014300Y011734D01*
X014268Y011743D01*
X014237Y011756D01*
X014207Y011772D01*
X014180Y011791D01*
X014155Y011814D01*
X014132Y011839D01*
X014113Y011866D01*
X014097Y011896D01*
X014084Y011927D01*
X014075Y011959D01*
X014069Y011992D01*
X014067Y012026D01*
X014067Y013126D01*
X012956Y013126D02*
X012956Y012026D01*
X012954Y011992D01*
X012948Y011959D01*
X012939Y011927D01*
X012926Y011896D01*
X012910Y011866D01*
X012891Y011839D01*
X012868Y011814D01*
X012843Y011791D01*
X012816Y011772D01*
X012786Y011756D01*
X012755Y011743D01*
X012723Y011734D01*
X012690Y011728D01*
X012656Y011726D01*
X008856Y011726D02*
X008822Y011728D01*
X008789Y011734D01*
X008757Y011743D01*
X008726Y011756D01*
X008696Y011772D01*
X008669Y011791D01*
X008644Y011814D01*
X008621Y011839D01*
X008602Y011866D01*
X008586Y011896D01*
X008573Y011927D01*
X008564Y011959D01*
X008558Y011992D01*
X008556Y012026D01*
X008556Y013126D01*
D20*
X033000Y018372D03*
X033472Y018372D03*
X034299Y018372D03*
X034771Y018372D03*
D21*
X034535Y018372D03*
X033236Y018372D03*
D22*
X056116Y017422D02*
X056116Y017367D01*
X056171Y017312D01*
X056281Y017312D01*
X056336Y017257D01*
X056336Y017201D01*
X056281Y017146D01*
X056171Y017146D01*
X056116Y017201D01*
X056116Y017422D02*
X056171Y017477D01*
X056281Y017477D01*
X056336Y017422D01*
X056484Y017477D02*
X056649Y017477D01*
X056704Y017422D01*
X056704Y017201D01*
X056649Y017146D01*
X056484Y017146D01*
X056484Y017477D01*
X056852Y017367D02*
X056962Y017477D01*
X056962Y017146D01*
X056852Y017146D02*
X057073Y017146D01*
M02*
