G75*
%MOIN*%
%OFA0B0*%
%FSLAX24Y24*%
%IPPOS*%
%LPD*%
%AMOC8*
5,1,8,0,0,1.08239X$1,22.5*
%
%ADD10C,0.0050*%
%ADD11C,0.0660*%
%ADD12C,0.0000*%
%ADD13C,0.0600*%
%ADD14C,0.0594*%
%ADD15OC8,0.0886*%
%ADD16C,0.1384*%
%ADD17OC8,0.1384*%
%ADD18C,0.0390*%
%ADD19C,0.0240*%
%ADD20C,0.0160*%
%ADD21C,0.0320*%
%ADD22C,0.0396*%
%ADD23C,0.0100*%
%ADD24C,0.0120*%
D10*
X000126Y010852D02*
X000126Y042348D01*
X069023Y042348D01*
X069023Y010852D01*
X000126Y010852D01*
D11*
X012476Y020693D03*
X013476Y020693D03*
X014476Y020693D03*
X015476Y020693D03*
X016476Y020693D03*
X017476Y020693D03*
X018476Y020693D03*
X019476Y020693D03*
X020476Y020693D03*
X023035Y020988D03*
X023035Y021988D03*
X023035Y022988D03*
X023035Y023988D03*
X023035Y024988D03*
X023035Y025988D03*
X031376Y025602D03*
X031376Y024602D03*
X031376Y023602D03*
X031376Y022602D03*
X031376Y021602D03*
X031376Y020602D03*
X031376Y026602D03*
X031376Y027602D03*
X031376Y028602D03*
X031376Y029602D03*
X031376Y030602D03*
X031376Y031602D03*
X031376Y032602D03*
X031376Y033602D03*
X031376Y034602D03*
X031376Y035602D03*
X031376Y036602D03*
X031376Y037602D03*
X031376Y038602D03*
X031376Y039602D03*
X031376Y040602D03*
X031376Y041602D03*
X041376Y041602D03*
X041376Y040602D03*
X041376Y039602D03*
X041376Y038602D03*
X041376Y037602D03*
X041376Y036602D03*
X041376Y035602D03*
X041376Y034602D03*
X041376Y033602D03*
X041376Y032602D03*
X041376Y031602D03*
X041376Y030602D03*
X041376Y029602D03*
X041376Y028602D03*
X041376Y027602D03*
X041376Y026602D03*
X041376Y025602D03*
X041376Y024602D03*
X041376Y023602D03*
X041376Y022602D03*
X041376Y021602D03*
X041376Y020602D03*
D12*
X043425Y013460D02*
X043427Y013481D01*
X043433Y013501D01*
X043442Y013521D01*
X043454Y013538D01*
X043469Y013552D01*
X043487Y013564D01*
X043507Y013572D01*
X043527Y013577D01*
X043548Y013578D01*
X043569Y013575D01*
X043589Y013569D01*
X043608Y013558D01*
X043625Y013545D01*
X043638Y013529D01*
X043649Y013511D01*
X043657Y013491D01*
X043661Y013471D01*
X043661Y013449D01*
X043657Y013429D01*
X043649Y013409D01*
X043638Y013391D01*
X043625Y013375D01*
X043608Y013362D01*
X043589Y013351D01*
X043569Y013345D01*
X043548Y013342D01*
X043527Y013343D01*
X043507Y013348D01*
X043487Y013356D01*
X043469Y013368D01*
X043454Y013382D01*
X043442Y013399D01*
X043433Y013419D01*
X043427Y013439D01*
X043425Y013460D01*
X043425Y013150D02*
X043427Y013171D01*
X043433Y013191D01*
X043442Y013211D01*
X043454Y013228D01*
X043469Y013242D01*
X043487Y013254D01*
X043507Y013262D01*
X043527Y013267D01*
X043548Y013268D01*
X043569Y013265D01*
X043589Y013259D01*
X043608Y013248D01*
X043625Y013235D01*
X043638Y013219D01*
X043649Y013201D01*
X043657Y013181D01*
X043661Y013161D01*
X043661Y013139D01*
X043657Y013119D01*
X043649Y013099D01*
X043638Y013081D01*
X043625Y013065D01*
X043608Y013052D01*
X043589Y013041D01*
X043569Y013035D01*
X043548Y013032D01*
X043527Y013033D01*
X043507Y013038D01*
X043487Y013046D01*
X043469Y013058D01*
X043454Y013072D01*
X043442Y013089D01*
X043433Y013109D01*
X043427Y013129D01*
X043425Y013150D01*
X043978Y013150D02*
X043980Y013172D01*
X043986Y013194D01*
X043995Y013214D01*
X044008Y013232D01*
X044024Y013248D01*
X044042Y013261D01*
X044062Y013270D01*
X044084Y013276D01*
X044106Y013278D01*
X044128Y013276D01*
X044150Y013270D01*
X044170Y013261D01*
X044188Y013248D01*
X044204Y013232D01*
X044217Y013214D01*
X044226Y013194D01*
X044232Y013172D01*
X044234Y013150D01*
X044232Y013128D01*
X044226Y013106D01*
X044217Y013086D01*
X044204Y013068D01*
X044188Y013052D01*
X044170Y013039D01*
X044150Y013030D01*
X044128Y013024D01*
X044106Y013022D01*
X044084Y013024D01*
X044062Y013030D01*
X044042Y013039D01*
X044024Y013052D01*
X044008Y013068D01*
X043995Y013086D01*
X043986Y013106D01*
X043980Y013128D01*
X043978Y013150D01*
X043425Y011960D02*
X043427Y011981D01*
X043433Y012001D01*
X043442Y012021D01*
X043454Y012038D01*
X043469Y012052D01*
X043487Y012064D01*
X043507Y012072D01*
X043527Y012077D01*
X043548Y012078D01*
X043569Y012075D01*
X043589Y012069D01*
X043608Y012058D01*
X043625Y012045D01*
X043638Y012029D01*
X043649Y012011D01*
X043657Y011991D01*
X043661Y011971D01*
X043661Y011949D01*
X043657Y011929D01*
X043649Y011909D01*
X043638Y011891D01*
X043625Y011875D01*
X043608Y011862D01*
X043589Y011851D01*
X043569Y011845D01*
X043548Y011842D01*
X043527Y011843D01*
X043507Y011848D01*
X043487Y011856D01*
X043469Y011868D01*
X043454Y011882D01*
X043442Y011899D01*
X043433Y011919D01*
X043427Y011939D01*
X043425Y011960D01*
X043425Y011491D02*
X043427Y011512D01*
X043433Y011532D01*
X043442Y011552D01*
X043454Y011569D01*
X043469Y011583D01*
X043487Y011595D01*
X043507Y011603D01*
X043527Y011608D01*
X043548Y011609D01*
X043569Y011606D01*
X043589Y011600D01*
X043608Y011589D01*
X043625Y011576D01*
X043638Y011560D01*
X043649Y011542D01*
X043657Y011522D01*
X043661Y011502D01*
X043661Y011480D01*
X043657Y011460D01*
X043649Y011440D01*
X043638Y011422D01*
X043625Y011406D01*
X043608Y011393D01*
X043589Y011382D01*
X043569Y011376D01*
X043548Y011373D01*
X043527Y011374D01*
X043507Y011379D01*
X043487Y011387D01*
X043469Y011399D01*
X043454Y011413D01*
X043442Y011430D01*
X043433Y011450D01*
X043427Y011470D01*
X043425Y011491D01*
X046253Y013150D02*
X046255Y013172D01*
X046261Y013194D01*
X046270Y013214D01*
X046283Y013232D01*
X046299Y013248D01*
X046317Y013261D01*
X046337Y013270D01*
X046359Y013276D01*
X046381Y013278D01*
X046403Y013276D01*
X046425Y013270D01*
X046445Y013261D01*
X046463Y013248D01*
X046479Y013232D01*
X046492Y013214D01*
X046501Y013194D01*
X046507Y013172D01*
X046509Y013150D01*
X046507Y013128D01*
X046501Y013106D01*
X046492Y013086D01*
X046479Y013068D01*
X046463Y013052D01*
X046445Y013039D01*
X046425Y013030D01*
X046403Y013024D01*
X046381Y013022D01*
X046359Y013024D01*
X046337Y013030D01*
X046317Y013039D01*
X046299Y013052D01*
X046283Y013068D01*
X046270Y013086D01*
X046261Y013106D01*
X046255Y013128D01*
X046253Y013150D01*
X046826Y013150D02*
X046828Y013171D01*
X046834Y013191D01*
X046843Y013211D01*
X046855Y013228D01*
X046870Y013242D01*
X046888Y013254D01*
X046908Y013262D01*
X046928Y013267D01*
X046949Y013268D01*
X046970Y013265D01*
X046990Y013259D01*
X047009Y013248D01*
X047026Y013235D01*
X047039Y013219D01*
X047050Y013201D01*
X047058Y013181D01*
X047062Y013161D01*
X047062Y013139D01*
X047058Y013119D01*
X047050Y013099D01*
X047039Y013081D01*
X047026Y013065D01*
X047009Y013052D01*
X046990Y013041D01*
X046970Y013035D01*
X046949Y013032D01*
X046928Y013033D01*
X046908Y013038D01*
X046888Y013046D01*
X046870Y013058D01*
X046855Y013072D01*
X046843Y013089D01*
X046834Y013109D01*
X046828Y013129D01*
X046826Y013150D01*
X046826Y013460D02*
X046828Y013481D01*
X046834Y013501D01*
X046843Y013521D01*
X046855Y013538D01*
X046870Y013552D01*
X046888Y013564D01*
X046908Y013572D01*
X046928Y013577D01*
X046949Y013578D01*
X046970Y013575D01*
X046990Y013569D01*
X047009Y013558D01*
X047026Y013545D01*
X047039Y013529D01*
X047050Y013511D01*
X047058Y013491D01*
X047062Y013471D01*
X047062Y013449D01*
X047058Y013429D01*
X047050Y013409D01*
X047039Y013391D01*
X047026Y013375D01*
X047009Y013362D01*
X046990Y013351D01*
X046970Y013345D01*
X046949Y013342D01*
X046928Y013343D01*
X046908Y013348D01*
X046888Y013356D01*
X046870Y013368D01*
X046855Y013382D01*
X046843Y013399D01*
X046834Y013419D01*
X046828Y013439D01*
X046826Y013460D01*
X046826Y011960D02*
X046828Y011981D01*
X046834Y012001D01*
X046843Y012021D01*
X046855Y012038D01*
X046870Y012052D01*
X046888Y012064D01*
X046908Y012072D01*
X046928Y012077D01*
X046949Y012078D01*
X046970Y012075D01*
X046990Y012069D01*
X047009Y012058D01*
X047026Y012045D01*
X047039Y012029D01*
X047050Y012011D01*
X047058Y011991D01*
X047062Y011971D01*
X047062Y011949D01*
X047058Y011929D01*
X047050Y011909D01*
X047039Y011891D01*
X047026Y011875D01*
X047009Y011862D01*
X046990Y011851D01*
X046970Y011845D01*
X046949Y011842D01*
X046928Y011843D01*
X046908Y011848D01*
X046888Y011856D01*
X046870Y011868D01*
X046855Y011882D01*
X046843Y011899D01*
X046834Y011919D01*
X046828Y011939D01*
X046826Y011960D01*
X046826Y011490D02*
X046828Y011511D01*
X046834Y011531D01*
X046843Y011551D01*
X046855Y011568D01*
X046870Y011582D01*
X046888Y011594D01*
X046908Y011602D01*
X046928Y011607D01*
X046949Y011608D01*
X046970Y011605D01*
X046990Y011599D01*
X047009Y011588D01*
X047026Y011575D01*
X047039Y011559D01*
X047050Y011541D01*
X047058Y011521D01*
X047062Y011501D01*
X047062Y011479D01*
X047058Y011459D01*
X047050Y011439D01*
X047039Y011421D01*
X047026Y011405D01*
X047009Y011392D01*
X046990Y011381D01*
X046970Y011375D01*
X046949Y011372D01*
X046928Y011373D01*
X046908Y011378D01*
X046888Y011386D01*
X046870Y011398D01*
X046855Y011412D01*
X046843Y011429D01*
X046834Y011449D01*
X046828Y011469D01*
X046826Y011490D01*
X052450Y012643D02*
X052452Y012674D01*
X052458Y012704D01*
X052467Y012734D01*
X052480Y012762D01*
X052497Y012788D01*
X052517Y012811D01*
X052539Y012833D01*
X052564Y012851D01*
X052591Y012866D01*
X052620Y012877D01*
X052650Y012885D01*
X052681Y012889D01*
X052711Y012889D01*
X052742Y012885D01*
X052772Y012877D01*
X052801Y012866D01*
X052828Y012851D01*
X052853Y012833D01*
X052875Y012811D01*
X052895Y012788D01*
X052912Y012762D01*
X052925Y012734D01*
X052934Y012704D01*
X052940Y012674D01*
X052942Y012643D01*
X052940Y012612D01*
X052934Y012582D01*
X052925Y012552D01*
X052912Y012524D01*
X052895Y012498D01*
X052875Y012475D01*
X052853Y012453D01*
X052828Y012435D01*
X052801Y012420D01*
X052772Y012409D01*
X052742Y012401D01*
X052711Y012397D01*
X052681Y012397D01*
X052650Y012401D01*
X052620Y012409D01*
X052591Y012420D01*
X052564Y012435D01*
X052539Y012453D01*
X052517Y012475D01*
X052497Y012498D01*
X052480Y012524D01*
X052467Y012552D01*
X052458Y012582D01*
X052452Y012612D01*
X052450Y012643D01*
X055600Y012643D02*
X055602Y012674D01*
X055608Y012704D01*
X055617Y012734D01*
X055630Y012762D01*
X055647Y012788D01*
X055667Y012811D01*
X055689Y012833D01*
X055714Y012851D01*
X055741Y012866D01*
X055770Y012877D01*
X055800Y012885D01*
X055831Y012889D01*
X055861Y012889D01*
X055892Y012885D01*
X055922Y012877D01*
X055951Y012866D01*
X055978Y012851D01*
X056003Y012833D01*
X056025Y012811D01*
X056045Y012788D01*
X056062Y012762D01*
X056075Y012734D01*
X056084Y012704D01*
X056090Y012674D01*
X056092Y012643D01*
X056090Y012612D01*
X056084Y012582D01*
X056075Y012552D01*
X056062Y012524D01*
X056045Y012498D01*
X056025Y012475D01*
X056003Y012453D01*
X055978Y012435D01*
X055951Y012420D01*
X055922Y012409D01*
X055892Y012401D01*
X055861Y012397D01*
X055831Y012397D01*
X055800Y012401D01*
X055770Y012409D01*
X055741Y012420D01*
X055714Y012435D01*
X055689Y012453D01*
X055667Y012475D01*
X055647Y012498D01*
X055630Y012524D01*
X055617Y012552D01*
X055608Y012582D01*
X055602Y012612D01*
X055600Y012643D01*
X059318Y012821D02*
X059320Y012871D01*
X059326Y012921D01*
X059336Y012971D01*
X059349Y013019D01*
X059366Y013067D01*
X059387Y013113D01*
X059411Y013157D01*
X059439Y013199D01*
X059470Y013239D01*
X059504Y013276D01*
X059541Y013311D01*
X059580Y013342D01*
X059621Y013371D01*
X059665Y013396D01*
X059711Y013418D01*
X059758Y013436D01*
X059806Y013450D01*
X059855Y013461D01*
X059905Y013468D01*
X059955Y013471D01*
X060006Y013470D01*
X060056Y013465D01*
X060106Y013456D01*
X060154Y013444D01*
X060202Y013427D01*
X060248Y013407D01*
X060293Y013384D01*
X060336Y013357D01*
X060376Y013327D01*
X060414Y013294D01*
X060449Y013258D01*
X060482Y013219D01*
X060511Y013178D01*
X060537Y013135D01*
X060560Y013090D01*
X060579Y013043D01*
X060594Y012995D01*
X060606Y012946D01*
X060614Y012896D01*
X060618Y012846D01*
X060618Y012796D01*
X060614Y012746D01*
X060606Y012696D01*
X060594Y012647D01*
X060579Y012599D01*
X060560Y012552D01*
X060537Y012507D01*
X060511Y012464D01*
X060482Y012423D01*
X060449Y012384D01*
X060414Y012348D01*
X060376Y012315D01*
X060336Y012285D01*
X060293Y012258D01*
X060248Y012235D01*
X060202Y012215D01*
X060154Y012198D01*
X060106Y012186D01*
X060056Y012177D01*
X060006Y012172D01*
X059955Y012171D01*
X059905Y012174D01*
X059855Y012181D01*
X059806Y012192D01*
X059758Y012206D01*
X059711Y012224D01*
X059665Y012246D01*
X059621Y012271D01*
X059580Y012300D01*
X059541Y012331D01*
X059504Y012366D01*
X059470Y012403D01*
X059439Y012443D01*
X059411Y012485D01*
X059387Y012529D01*
X059366Y012575D01*
X059349Y012623D01*
X059336Y012671D01*
X059326Y012721D01*
X059320Y012771D01*
X059318Y012821D01*
X030972Y012821D02*
X030974Y012871D01*
X030980Y012921D01*
X030990Y012971D01*
X031003Y013019D01*
X031020Y013067D01*
X031041Y013113D01*
X031065Y013157D01*
X031093Y013199D01*
X031124Y013239D01*
X031158Y013276D01*
X031195Y013311D01*
X031234Y013342D01*
X031275Y013371D01*
X031319Y013396D01*
X031365Y013418D01*
X031412Y013436D01*
X031460Y013450D01*
X031509Y013461D01*
X031559Y013468D01*
X031609Y013471D01*
X031660Y013470D01*
X031710Y013465D01*
X031760Y013456D01*
X031808Y013444D01*
X031856Y013427D01*
X031902Y013407D01*
X031947Y013384D01*
X031990Y013357D01*
X032030Y013327D01*
X032068Y013294D01*
X032103Y013258D01*
X032136Y013219D01*
X032165Y013178D01*
X032191Y013135D01*
X032214Y013090D01*
X032233Y013043D01*
X032248Y012995D01*
X032260Y012946D01*
X032268Y012896D01*
X032272Y012846D01*
X032272Y012796D01*
X032268Y012746D01*
X032260Y012696D01*
X032248Y012647D01*
X032233Y012599D01*
X032214Y012552D01*
X032191Y012507D01*
X032165Y012464D01*
X032136Y012423D01*
X032103Y012384D01*
X032068Y012348D01*
X032030Y012315D01*
X031990Y012285D01*
X031947Y012258D01*
X031902Y012235D01*
X031856Y012215D01*
X031808Y012198D01*
X031760Y012186D01*
X031710Y012177D01*
X031660Y012172D01*
X031609Y012171D01*
X031559Y012174D01*
X031509Y012181D01*
X031460Y012192D01*
X031412Y012206D01*
X031365Y012224D01*
X031319Y012246D01*
X031275Y012271D01*
X031234Y012300D01*
X031195Y012331D01*
X031158Y012366D01*
X031124Y012403D01*
X031093Y012443D01*
X031065Y012485D01*
X031041Y012529D01*
X031020Y012575D01*
X031003Y012623D01*
X030990Y012671D01*
X030980Y012721D01*
X030974Y012771D01*
X030972Y012821D01*
X002625Y012821D02*
X002627Y012871D01*
X002633Y012921D01*
X002643Y012971D01*
X002656Y013019D01*
X002673Y013067D01*
X002694Y013113D01*
X002718Y013157D01*
X002746Y013199D01*
X002777Y013239D01*
X002811Y013276D01*
X002848Y013311D01*
X002887Y013342D01*
X002928Y013371D01*
X002972Y013396D01*
X003018Y013418D01*
X003065Y013436D01*
X003113Y013450D01*
X003162Y013461D01*
X003212Y013468D01*
X003262Y013471D01*
X003313Y013470D01*
X003363Y013465D01*
X003413Y013456D01*
X003461Y013444D01*
X003509Y013427D01*
X003555Y013407D01*
X003600Y013384D01*
X003643Y013357D01*
X003683Y013327D01*
X003721Y013294D01*
X003756Y013258D01*
X003789Y013219D01*
X003818Y013178D01*
X003844Y013135D01*
X003867Y013090D01*
X003886Y013043D01*
X003901Y012995D01*
X003913Y012946D01*
X003921Y012896D01*
X003925Y012846D01*
X003925Y012796D01*
X003921Y012746D01*
X003913Y012696D01*
X003901Y012647D01*
X003886Y012599D01*
X003867Y012552D01*
X003844Y012507D01*
X003818Y012464D01*
X003789Y012423D01*
X003756Y012384D01*
X003721Y012348D01*
X003683Y012315D01*
X003643Y012285D01*
X003600Y012258D01*
X003555Y012235D01*
X003509Y012215D01*
X003461Y012198D01*
X003413Y012186D01*
X003363Y012177D01*
X003313Y012172D01*
X003262Y012171D01*
X003212Y012174D01*
X003162Y012181D01*
X003113Y012192D01*
X003065Y012206D01*
X003018Y012224D01*
X002972Y012246D01*
X002928Y012271D01*
X002887Y012300D01*
X002848Y012331D01*
X002811Y012366D01*
X002777Y012403D01*
X002746Y012443D01*
X002718Y012485D01*
X002694Y012529D01*
X002673Y012575D01*
X002656Y012623D01*
X002643Y012671D01*
X002633Y012721D01*
X002627Y012771D01*
X002625Y012821D01*
X002625Y040380D02*
X002627Y040430D01*
X002633Y040480D01*
X002643Y040530D01*
X002656Y040578D01*
X002673Y040626D01*
X002694Y040672D01*
X002718Y040716D01*
X002746Y040758D01*
X002777Y040798D01*
X002811Y040835D01*
X002848Y040870D01*
X002887Y040901D01*
X002928Y040930D01*
X002972Y040955D01*
X003018Y040977D01*
X003065Y040995D01*
X003113Y041009D01*
X003162Y041020D01*
X003212Y041027D01*
X003262Y041030D01*
X003313Y041029D01*
X003363Y041024D01*
X003413Y041015D01*
X003461Y041003D01*
X003509Y040986D01*
X003555Y040966D01*
X003600Y040943D01*
X003643Y040916D01*
X003683Y040886D01*
X003721Y040853D01*
X003756Y040817D01*
X003789Y040778D01*
X003818Y040737D01*
X003844Y040694D01*
X003867Y040649D01*
X003886Y040602D01*
X003901Y040554D01*
X003913Y040505D01*
X003921Y040455D01*
X003925Y040405D01*
X003925Y040355D01*
X003921Y040305D01*
X003913Y040255D01*
X003901Y040206D01*
X003886Y040158D01*
X003867Y040111D01*
X003844Y040066D01*
X003818Y040023D01*
X003789Y039982D01*
X003756Y039943D01*
X003721Y039907D01*
X003683Y039874D01*
X003643Y039844D01*
X003600Y039817D01*
X003555Y039794D01*
X003509Y039774D01*
X003461Y039757D01*
X003413Y039745D01*
X003363Y039736D01*
X003313Y039731D01*
X003262Y039730D01*
X003212Y039733D01*
X003162Y039740D01*
X003113Y039751D01*
X003065Y039765D01*
X003018Y039783D01*
X002972Y039805D01*
X002928Y039830D01*
X002887Y039859D01*
X002848Y039890D01*
X002811Y039925D01*
X002777Y039962D01*
X002746Y040002D01*
X002718Y040044D01*
X002694Y040088D01*
X002673Y040134D01*
X002656Y040182D01*
X002643Y040230D01*
X002633Y040280D01*
X002627Y040330D01*
X002625Y040380D01*
X059318Y040380D02*
X059320Y040430D01*
X059326Y040480D01*
X059336Y040530D01*
X059349Y040578D01*
X059366Y040626D01*
X059387Y040672D01*
X059411Y040716D01*
X059439Y040758D01*
X059470Y040798D01*
X059504Y040835D01*
X059541Y040870D01*
X059580Y040901D01*
X059621Y040930D01*
X059665Y040955D01*
X059711Y040977D01*
X059758Y040995D01*
X059806Y041009D01*
X059855Y041020D01*
X059905Y041027D01*
X059955Y041030D01*
X060006Y041029D01*
X060056Y041024D01*
X060106Y041015D01*
X060154Y041003D01*
X060202Y040986D01*
X060248Y040966D01*
X060293Y040943D01*
X060336Y040916D01*
X060376Y040886D01*
X060414Y040853D01*
X060449Y040817D01*
X060482Y040778D01*
X060511Y040737D01*
X060537Y040694D01*
X060560Y040649D01*
X060579Y040602D01*
X060594Y040554D01*
X060606Y040505D01*
X060614Y040455D01*
X060618Y040405D01*
X060618Y040355D01*
X060614Y040305D01*
X060606Y040255D01*
X060594Y040206D01*
X060579Y040158D01*
X060560Y040111D01*
X060537Y040066D01*
X060511Y040023D01*
X060482Y039982D01*
X060449Y039943D01*
X060414Y039907D01*
X060376Y039874D01*
X060336Y039844D01*
X060293Y039817D01*
X060248Y039794D01*
X060202Y039774D01*
X060154Y039757D01*
X060106Y039745D01*
X060056Y039736D01*
X060006Y039731D01*
X059955Y039730D01*
X059905Y039733D01*
X059855Y039740D01*
X059806Y039751D01*
X059758Y039765D01*
X059711Y039783D01*
X059665Y039805D01*
X059621Y039830D01*
X059580Y039859D01*
X059541Y039890D01*
X059504Y039925D01*
X059470Y039962D01*
X059439Y040002D01*
X059411Y040044D01*
X059387Y040088D01*
X059366Y040134D01*
X059349Y040182D01*
X059336Y040230D01*
X059326Y040280D01*
X059320Y040330D01*
X059318Y040380D01*
D13*
X047426Y036602D02*
X046826Y036602D01*
X046826Y035602D02*
X047426Y035602D01*
X047426Y034602D02*
X046826Y034602D01*
X046826Y033602D02*
X047426Y033602D01*
X047426Y032602D02*
X046826Y032602D01*
X046826Y031602D02*
X047426Y031602D01*
X047426Y030602D02*
X046826Y030602D01*
X046826Y028602D02*
X047426Y028602D01*
X047426Y027602D02*
X046826Y027602D01*
X046826Y026602D02*
X047426Y026602D01*
X047426Y025602D02*
X046826Y025602D01*
X046826Y024602D02*
X047426Y024602D01*
X047426Y023602D02*
X046826Y023602D01*
X039416Y018152D02*
X039416Y017552D01*
X038416Y017552D02*
X038416Y018152D01*
X038416Y013932D02*
X038416Y013332D01*
X039416Y013332D02*
X039416Y013932D01*
X048796Y013702D02*
X049396Y013702D01*
X049396Y012702D02*
X048796Y012702D01*
X048796Y014702D02*
X049396Y014702D01*
X049396Y015702D02*
X048796Y015702D01*
X048796Y016702D02*
X049396Y016702D01*
X049396Y017702D02*
X048796Y017702D01*
X026918Y031101D02*
X026318Y031101D01*
X026318Y032101D02*
X026918Y032101D01*
X026918Y033101D02*
X026318Y033101D01*
X026318Y034101D02*
X026918Y034101D01*
X026918Y035101D02*
X026318Y035101D01*
X026133Y040080D02*
X026133Y040680D01*
X025133Y040680D02*
X025133Y040080D01*
X024133Y040080D02*
X024133Y040680D01*
X023133Y040680D02*
X023133Y040080D01*
X022133Y040080D02*
X022133Y040680D01*
X019834Y040680D02*
X019834Y040080D01*
X018834Y040080D02*
X018834Y040680D01*
X017834Y040680D02*
X017834Y040080D01*
X016834Y040080D02*
X016834Y040680D01*
X015834Y040680D02*
X015834Y040080D01*
X013441Y040080D02*
X013441Y040680D01*
X012441Y040680D02*
X012441Y040080D01*
X011441Y040080D02*
X011441Y040680D01*
X008980Y040680D02*
X008980Y040080D01*
X007980Y040080D02*
X007980Y040680D01*
X006980Y040680D02*
X006980Y040080D01*
X005980Y040080D02*
X005980Y040680D01*
X017626Y029065D02*
X017626Y028465D01*
X018626Y028465D02*
X018626Y029065D01*
X019626Y029065D02*
X019626Y028465D01*
X020626Y028465D02*
X020626Y029065D01*
X021626Y029065D02*
X021626Y028465D01*
X022626Y028465D02*
X022626Y029065D01*
X014472Y018632D02*
X014472Y018032D01*
X013472Y018032D02*
X013472Y018632D01*
X012472Y018632D02*
X012472Y018032D01*
D14*
X029579Y020602D02*
X030172Y020602D01*
X030172Y021602D02*
X029579Y021602D01*
X029579Y022602D02*
X030172Y022602D01*
X030172Y023602D02*
X029579Y023602D01*
X029579Y024602D02*
X030172Y024602D01*
X030172Y025602D02*
X029579Y025602D01*
X029579Y026602D02*
X030172Y026602D01*
X030172Y027602D02*
X029579Y027602D01*
X029579Y028602D02*
X030172Y028602D01*
X030172Y029602D02*
X029579Y029602D01*
X029579Y030602D02*
X030172Y030602D01*
X030172Y031602D02*
X029579Y031602D01*
X029579Y032602D02*
X030172Y032602D01*
X030172Y033602D02*
X029579Y033602D01*
X029579Y034602D02*
X030172Y034602D01*
X030172Y035602D02*
X029579Y035602D01*
X029579Y036602D02*
X030172Y036602D01*
X030172Y037602D02*
X029579Y037602D01*
X029579Y038602D02*
X030172Y038602D01*
X030172Y039602D02*
X029579Y039602D01*
X029579Y040602D02*
X030172Y040602D01*
X030172Y041602D02*
X029579Y041602D01*
X042579Y041602D02*
X043172Y041602D01*
X043172Y040602D02*
X042579Y040602D01*
X042579Y039602D02*
X043172Y039602D01*
X043172Y038602D02*
X042579Y038602D01*
X042579Y037602D02*
X043172Y037602D01*
X043172Y036602D02*
X042579Y036602D01*
X042579Y035602D02*
X043172Y035602D01*
X043172Y034602D02*
X042579Y034602D01*
X042579Y033602D02*
X043172Y033602D01*
X043172Y032602D02*
X042579Y032602D01*
X042579Y031602D02*
X043172Y031602D01*
X043172Y030602D02*
X042579Y030602D01*
X042579Y029602D02*
X043172Y029602D01*
X043172Y028602D02*
X042579Y028602D01*
X042579Y027602D02*
X043172Y027602D01*
X043172Y026602D02*
X042579Y026602D01*
X042579Y025602D02*
X043172Y025602D01*
X043172Y024602D02*
X042579Y024602D01*
X042579Y023602D02*
X043172Y023602D01*
X043172Y022602D02*
X042579Y022602D01*
X042579Y021602D02*
X043172Y021602D01*
X043172Y020602D02*
X042579Y020602D01*
D15*
X016267Y014726D03*
X010756Y014726D03*
D16*
X012956Y015418D02*
X012956Y014034D01*
X014067Y014034D02*
X014067Y015418D01*
X018467Y015418D02*
X018467Y014034D01*
X008556Y014034D02*
X008556Y015418D01*
D17*
X010756Y011726D03*
X016267Y011726D03*
D18*
X043543Y011489D02*
X043543Y011969D01*
X043543Y013144D02*
X043543Y013464D01*
X046944Y013464D02*
X046944Y013144D01*
X046944Y011969D02*
X046944Y011489D01*
D19*
X051556Y017582D02*
X053336Y017582D01*
X054126Y018082D02*
X052246Y018082D01*
X054126Y018082D02*
X054186Y018022D01*
X047126Y023602D02*
X044380Y023602D01*
X044368Y023603D01*
X044356Y023608D01*
X044345Y023614D01*
X044336Y023623D01*
X044330Y023634D01*
X044325Y023646D01*
X044324Y023658D01*
X042876Y023602D02*
X041376Y023602D01*
X041376Y022602D02*
X042876Y022602D01*
X042876Y021602D02*
X041376Y021602D01*
X040876Y021602D01*
X040626Y021852D01*
X040626Y040852D01*
X041376Y041602D01*
X042876Y041602D01*
X042876Y040602D02*
X041376Y040602D01*
X041376Y039602D02*
X042876Y039602D01*
X042876Y038602D02*
X041376Y038602D01*
X041376Y037602D02*
X042876Y037602D01*
X042876Y036602D02*
X041376Y036602D01*
X041376Y035602D02*
X042876Y035602D01*
X042876Y034602D02*
X041376Y034602D01*
X041376Y033602D02*
X042876Y033602D01*
X042876Y032602D02*
X041376Y032602D01*
X041376Y031602D02*
X042876Y031602D01*
X042876Y030602D02*
X041376Y030602D01*
X041376Y029602D02*
X042876Y029602D01*
X042876Y028602D02*
X041376Y028602D01*
X041376Y027602D02*
X042876Y027602D01*
X047126Y027602D01*
X047126Y026602D02*
X042876Y026602D01*
X041376Y026602D01*
X041376Y025602D02*
X042876Y025602D01*
X047126Y025602D01*
X047126Y024602D02*
X042876Y024602D01*
X041376Y024602D01*
X041376Y020602D02*
X042876Y020602D01*
X031376Y020602D02*
X029876Y020602D01*
X029876Y021602D02*
X031376Y021602D01*
X031376Y022602D02*
X029876Y022602D01*
X024421Y022602D01*
X023035Y023988D01*
X025006Y023252D02*
X025606Y023252D01*
X025956Y023602D01*
X029876Y023602D01*
X031376Y023602D01*
X031376Y024602D02*
X029876Y024602D01*
X029846Y024572D01*
X026146Y024572D01*
X025576Y024002D01*
X029876Y025602D02*
X031376Y025602D01*
X031376Y026602D02*
X029876Y026602D01*
X029876Y027602D02*
X031376Y027602D01*
X031376Y028602D02*
X029876Y028602D01*
X029876Y029602D02*
X031376Y029602D01*
X031376Y030602D02*
X029876Y030602D01*
X029876Y031602D02*
X031376Y031602D01*
X031376Y032602D02*
X029876Y032602D01*
X029876Y033602D02*
X031376Y033602D01*
X031376Y034602D02*
X029876Y034602D01*
X029876Y035602D02*
X031376Y035602D01*
X031376Y036602D02*
X029876Y036602D01*
X029876Y037602D02*
X031376Y037602D01*
X031376Y039602D02*
X029876Y039602D01*
X029876Y040602D02*
X031376Y040602D01*
X032026Y041052D01*
X031376Y041602D01*
X029876Y041602D01*
X014476Y020693D02*
X014476Y018344D01*
X014472Y018332D02*
X014464Y018324D01*
X014464Y016403D01*
X016267Y014726D01*
X014067Y014726D02*
X014044Y015366D01*
X013479Y015752D01*
X012943Y015321D01*
X012956Y014726D01*
X012464Y016324D02*
X010756Y014726D01*
X012464Y016324D02*
X012464Y018324D01*
X012472Y018332D01*
X012476Y018344D02*
X012476Y020693D01*
X013476Y020693D02*
X013476Y018344D01*
X027126Y019842D02*
X027136Y019832D01*
D20*
X023035Y020988D02*
X022340Y020988D01*
X021906Y021422D01*
X021906Y024512D01*
X022376Y024982D01*
X023029Y024982D01*
X021326Y025552D02*
X022626Y026852D01*
X026516Y026852D01*
X027266Y027602D01*
X027266Y029122D01*
X026626Y028352D02*
X026626Y031094D01*
X026618Y031101D01*
X027976Y032122D02*
X026996Y033101D01*
X026618Y033101D01*
X025626Y032852D02*
X025626Y033852D01*
X025875Y034101D01*
X026618Y034101D01*
X027856Y034642D02*
X028146Y034352D01*
X028626Y034352D01*
X025626Y032852D02*
X025126Y032352D01*
X024126Y032352D01*
X024236Y034532D02*
X022416Y036352D01*
X015126Y036352D01*
X014437Y037041D01*
X014437Y037541D01*
X014436Y037542D01*
X012816Y037542D01*
X017126Y037852D02*
X020886Y037852D01*
X021116Y037622D01*
X021356Y037622D01*
X020526Y037142D02*
X017836Y037142D01*
X025133Y040380D02*
X025133Y040830D01*
X025516Y041212D01*
X027766Y041212D01*
X028126Y040852D01*
X028126Y038352D01*
X028386Y038092D01*
X031886Y038092D01*
X032626Y037352D01*
X032626Y026352D01*
X031876Y025602D01*
X031376Y025602D01*
X031376Y026602D02*
X031876Y026602D01*
X032126Y026852D01*
X032126Y036852D01*
X031886Y037092D01*
X028576Y037092D01*
X027626Y038042D01*
X027626Y039852D01*
X027098Y040380D01*
X026133Y040380D01*
X029876Y038602D02*
X031376Y038602D01*
X031376Y040602D02*
X033626Y038352D01*
X033626Y037852D01*
X026626Y028352D02*
X025626Y027352D01*
X022126Y027352D01*
X020176Y025402D01*
X017616Y025402D01*
X021326Y025552D02*
X021326Y022552D01*
X020626Y021852D01*
X018635Y021852D01*
X017476Y020693D01*
X033126Y019852D02*
X033128Y019844D01*
X033132Y019838D01*
X033138Y019834D01*
X033146Y019832D01*
X033236Y019832D01*
X038416Y017852D02*
X038416Y016908D01*
X038732Y016592D01*
X041886Y016592D01*
X043626Y014852D01*
X044626Y014852D01*
X045126Y015352D01*
X046126Y015352D01*
X046626Y015352D01*
X048276Y013702D01*
X049096Y013702D01*
X049096Y012702D02*
X049075Y012681D01*
X048184Y012681D01*
X047565Y013300D01*
X047565Y013938D01*
X047101Y014402D01*
X046316Y014402D01*
X045236Y014502D02*
X045086Y014352D01*
X043356Y014352D01*
X044286Y015532D02*
X044568Y015814D01*
X046856Y015814D01*
X047968Y014702D01*
X049096Y014702D01*
X047775Y016159D02*
X044275Y016159D01*
X043575Y016859D01*
X044286Y015532D02*
X041966Y017852D01*
X039416Y017852D01*
X046991Y017256D02*
X047545Y016702D01*
X049096Y016702D01*
X054187Y018992D02*
X055058Y018992D01*
X051936Y024176D02*
X051936Y027609D01*
D21*
X048626Y028972D02*
X047956Y029642D01*
X046156Y029642D01*
X045196Y030602D01*
X045196Y031002D01*
X048626Y028972D02*
X048626Y020352D01*
X046966Y018692D01*
X040096Y018692D01*
X038956Y019832D01*
X033236Y019832D01*
X027136Y019832D01*
X026126Y018852D02*
X027636Y017342D01*
X031956Y017342D01*
X031016Y015852D02*
X027346Y012182D01*
X031016Y015852D02*
X037449Y015852D01*
X038416Y014885D01*
X038416Y013632D01*
X040626Y019352D02*
X045126Y019352D01*
X046166Y020392D01*
X046166Y021152D01*
X040626Y019352D02*
X040376Y019602D01*
X040126Y019852D01*
X039626Y020352D01*
X039626Y040352D01*
X038926Y041052D01*
X032026Y041052D01*
X029876Y041602D02*
X029856Y041622D01*
X021456Y041622D01*
X015126Y041622D01*
X005896Y041622D01*
X005126Y040852D01*
X005126Y039852D01*
X004881Y039607D01*
X004881Y038429D01*
X005782Y037528D01*
X007796Y037528D01*
X005503Y039352D02*
X010596Y039352D01*
X015016Y039352D01*
X020496Y039352D01*
X020506Y039352D01*
X022126Y039352D01*
X022426Y039352D01*
X024126Y039352D01*
X026626Y039352D01*
X026876Y039102D01*
X027126Y038852D01*
X027126Y037352D01*
X028626Y035852D01*
X028626Y034352D01*
X028626Y025352D01*
X028126Y021852D02*
X029376Y020602D01*
X031376Y020602D01*
X031386Y020612D01*
X038566Y020612D01*
X022126Y039352D02*
X022133Y039360D01*
D22*
X022426Y039352D03*
X024126Y039352D03*
X026876Y039102D03*
X021456Y041622D03*
X020506Y039352D03*
X020496Y039352D03*
X021356Y037622D03*
X020526Y037142D03*
X017836Y037142D03*
X017126Y037852D03*
X015016Y039352D03*
X014437Y037541D03*
X012816Y037542D03*
X010596Y039352D03*
X007796Y037528D03*
X005503Y039352D03*
X015126Y041622D03*
X024236Y034532D03*
X024126Y032352D03*
X027976Y032122D03*
X027856Y034642D03*
X033626Y037852D03*
X045196Y031002D03*
X051936Y027609D03*
X051936Y024176D03*
X046166Y021152D03*
X044324Y023658D03*
X040376Y019602D03*
X038566Y020612D03*
X033236Y019832D03*
X031956Y017342D03*
X027126Y019842D03*
X026126Y018852D03*
X028126Y021852D03*
X025006Y023252D03*
X025576Y024002D03*
X028626Y025352D03*
X027266Y029122D03*
X017616Y025402D03*
X027346Y012182D03*
X043356Y014352D03*
X044286Y015532D03*
X045236Y014502D03*
X046316Y014402D03*
X046126Y015352D03*
X046826Y016558D03*
X046991Y017256D03*
X047775Y016159D03*
X045226Y016732D03*
X043575Y016859D03*
X051556Y017582D03*
X052246Y018082D03*
X053336Y017582D03*
X054186Y018022D03*
X054187Y018992D03*
X055058Y018992D03*
D23*
X020111Y015639D02*
X020126Y015438D01*
X020126Y011327D01*
X017059Y011327D01*
X017109Y011377D01*
X017109Y011676D01*
X016317Y011676D01*
X016317Y011776D01*
X016217Y011776D01*
X016217Y011676D01*
X015425Y011676D01*
X015425Y011377D01*
X015475Y011327D01*
X011547Y011327D01*
X011598Y011377D01*
X011598Y011676D01*
X010806Y011676D01*
X010806Y011776D01*
X011598Y011776D01*
X011598Y012075D01*
X011104Y012568D01*
X010806Y012568D01*
X010806Y011776D01*
X010706Y011776D01*
X010706Y012568D01*
X010407Y012568D01*
X009913Y012075D01*
X009913Y011776D01*
X010706Y011776D01*
X010706Y011676D01*
X009913Y011676D01*
X009913Y011377D01*
X009964Y011327D01*
X007126Y011327D01*
X007126Y015734D01*
X007137Y015893D01*
X007171Y016049D01*
X007227Y016198D01*
X007303Y016338D01*
X007399Y016466D01*
X007511Y016579D01*
X007639Y016675D01*
X007779Y016751D01*
X007929Y016807D01*
X008085Y016841D01*
X008244Y016852D01*
X011626Y016852D01*
X011626Y021852D01*
X013308Y021815D01*
X014990Y021852D01*
X014990Y019455D01*
X015626Y019455D01*
X015626Y016852D01*
X017168Y016825D01*
X018711Y016852D01*
X018913Y016838D01*
X019110Y016795D01*
X019299Y016724D01*
X019476Y016628D01*
X019637Y016507D01*
X019780Y016364D01*
X019901Y016202D01*
X019998Y016025D01*
X020068Y015836D01*
X020111Y015639D01*
X020103Y015679D02*
X019269Y015679D01*
X019266Y015689D02*
X019224Y015791D01*
X019169Y015887D01*
X019102Y015975D01*
X019024Y016053D01*
X018936Y016120D01*
X018841Y016175D01*
X018739Y016217D01*
X018632Y016246D01*
X018523Y016260D01*
X018517Y016260D01*
X018517Y014776D01*
X018417Y014776D01*
X018417Y014676D01*
X017625Y014676D01*
X017625Y013979D01*
X017640Y013869D01*
X017668Y013763D01*
X017710Y013661D01*
X017766Y013565D01*
X017833Y013477D01*
X017911Y013399D01*
X017998Y013332D01*
X018094Y013277D01*
X018196Y013235D01*
X018303Y013206D01*
X018412Y013192D01*
X018417Y013192D01*
X018417Y014676D01*
X018517Y014676D01*
X018517Y013192D01*
X018523Y013192D01*
X018632Y013206D01*
X018739Y013235D01*
X018841Y013277D01*
X018936Y013332D01*
X019024Y013399D01*
X019102Y013477D01*
X019169Y013565D01*
X019224Y013661D01*
X019266Y013763D01*
X019295Y013869D01*
X019309Y013979D01*
X019309Y014676D01*
X018517Y014676D01*
X018517Y014776D01*
X019309Y014776D01*
X019309Y015473D01*
X019295Y015583D01*
X019266Y015689D01*
X019230Y015777D02*
X020081Y015777D01*
X020054Y015876D02*
X019176Y015876D01*
X019102Y015974D02*
X020017Y015974D01*
X019972Y016073D02*
X018998Y016073D01*
X018848Y016171D02*
X019918Y016171D01*
X019851Y016270D02*
X015004Y016270D01*
X014898Y016368D02*
X019776Y016368D01*
X019678Y016467D02*
X014793Y016467D01*
X014734Y016521D02*
X014734Y017658D01*
X014854Y017777D01*
X014922Y017943D01*
X014922Y018722D01*
X014854Y018887D01*
X014746Y018995D01*
X014746Y020285D01*
X014748Y020286D01*
X014883Y020421D01*
X014956Y020597D01*
X014956Y020788D01*
X014883Y020964D01*
X014748Y021100D01*
X014571Y021173D01*
X014381Y021173D01*
X014204Y021100D01*
X014069Y020964D01*
X013996Y020788D01*
X013996Y020597D01*
X014069Y020421D01*
X014204Y020286D01*
X014206Y020285D01*
X014206Y019003D01*
X014091Y018887D01*
X014022Y018722D01*
X014022Y017943D01*
X014091Y017777D01*
X014194Y017674D01*
X014194Y016452D01*
X014192Y016447D01*
X014194Y016398D01*
X014194Y016350D01*
X014196Y016345D01*
X014196Y016340D01*
X014217Y016295D01*
X014235Y016250D01*
X014239Y016247D01*
X014240Y016244D01*
X014232Y016246D01*
X014123Y016260D01*
X014117Y016260D01*
X014117Y014776D01*
X014017Y014776D01*
X014017Y014676D01*
X013006Y014676D01*
X013006Y014776D01*
X013798Y014776D01*
X014017Y014776D01*
X014017Y016260D01*
X014012Y016260D01*
X013903Y016246D01*
X013796Y016217D01*
X013694Y016175D01*
X013598Y016120D01*
X013511Y016053D01*
X013424Y016120D01*
X013329Y016175D01*
X013227Y016217D01*
X013120Y016246D01*
X013011Y016260D01*
X013006Y016260D01*
X013006Y014776D01*
X012906Y014776D01*
X012906Y016260D01*
X012900Y016260D01*
X012791Y016246D01*
X012716Y016226D01*
X012732Y016262D01*
X012732Y016266D01*
X012734Y016271D01*
X012734Y016320D01*
X012736Y016369D01*
X012734Y016374D01*
X012734Y017658D01*
X012854Y017777D01*
X012922Y017943D01*
X012922Y018722D01*
X012854Y018887D01*
X012746Y018995D01*
X012746Y020285D01*
X012748Y020286D01*
X012883Y020421D01*
X012956Y020597D01*
X012956Y020788D01*
X012883Y020964D01*
X012748Y021100D01*
X012571Y021173D01*
X012381Y021173D01*
X012204Y021100D01*
X012069Y020964D01*
X011996Y020788D01*
X011996Y020597D01*
X012069Y020421D01*
X012204Y020286D01*
X012206Y020285D01*
X012206Y019003D01*
X012091Y018887D01*
X012022Y018722D01*
X012022Y017943D01*
X012091Y017777D01*
X012194Y017674D01*
X012194Y016442D01*
X010994Y015319D01*
X010510Y015319D01*
X010163Y014972D01*
X010163Y014480D01*
X010510Y014133D01*
X011001Y014133D01*
X011348Y014480D01*
X011348Y014911D01*
X012148Y015659D01*
X012128Y015583D01*
X012113Y015473D01*
X012113Y014776D01*
X012906Y014776D01*
X012906Y014676D01*
X013006Y014676D01*
X013006Y013192D01*
X013011Y013192D01*
X013120Y013206D01*
X013227Y013235D01*
X013329Y013277D01*
X013424Y013332D01*
X013511Y013399D01*
X013598Y013332D01*
X013694Y013277D01*
X013796Y013235D01*
X013903Y013206D01*
X014012Y013192D01*
X014017Y013192D01*
X014017Y014676D01*
X014117Y014676D01*
X014117Y013192D01*
X014123Y013192D01*
X014232Y013206D01*
X014339Y013235D01*
X014441Y013277D01*
X014536Y013332D01*
X014624Y013399D01*
X014702Y013477D01*
X014769Y013565D01*
X014824Y013661D01*
X014866Y013763D01*
X014895Y013869D01*
X014909Y013979D01*
X014909Y014676D01*
X014117Y014676D01*
X014117Y014776D01*
X014909Y014776D01*
X014909Y015473D01*
X014895Y015583D01*
X014877Y015651D01*
X015674Y014909D01*
X015674Y014480D01*
X016022Y014133D01*
X016513Y014133D01*
X016860Y014480D01*
X016860Y014972D01*
X016513Y015319D01*
X016026Y015319D01*
X014734Y016521D01*
X014734Y016565D02*
X019559Y016565D01*
X019410Y016664D02*
X014734Y016664D01*
X014734Y016762D02*
X019197Y016762D01*
X018517Y016171D02*
X018417Y016171D01*
X018417Y016260D02*
X018412Y016260D01*
X018303Y016246D01*
X018196Y016217D01*
X018094Y016175D01*
X017998Y016120D01*
X017911Y016053D01*
X017833Y015975D01*
X017766Y015887D01*
X017710Y015791D01*
X017668Y015689D01*
X017640Y015583D01*
X017625Y015473D01*
X017625Y014776D01*
X018417Y014776D01*
X018417Y016260D01*
X018417Y016073D02*
X018517Y016073D01*
X018517Y015974D02*
X018417Y015974D01*
X018417Y015876D02*
X018517Y015876D01*
X018517Y015777D02*
X018417Y015777D01*
X018417Y015679D02*
X018517Y015679D01*
X018517Y015580D02*
X018417Y015580D01*
X018417Y015482D02*
X018517Y015482D01*
X018517Y015383D02*
X018417Y015383D01*
X018417Y015285D02*
X018517Y015285D01*
X018517Y015186D02*
X018417Y015186D01*
X018417Y015088D02*
X018517Y015088D01*
X018517Y014989D02*
X018417Y014989D01*
X018417Y014891D02*
X018517Y014891D01*
X018517Y014792D02*
X018417Y014792D01*
X018417Y014694D02*
X016860Y014694D01*
X016860Y014792D02*
X017625Y014792D01*
X017625Y014891D02*
X016860Y014891D01*
X016843Y014989D02*
X017625Y014989D01*
X017625Y015088D02*
X016744Y015088D01*
X016646Y015186D02*
X017625Y015186D01*
X017625Y015285D02*
X016547Y015285D01*
X015957Y015383D02*
X017625Y015383D01*
X017626Y015482D02*
X015852Y015482D01*
X015746Y015580D02*
X017639Y015580D01*
X017665Y015679D02*
X015640Y015679D01*
X015534Y015777D02*
X017704Y015777D01*
X017759Y015876D02*
X015428Y015876D01*
X015322Y015974D02*
X017832Y015974D01*
X017937Y016073D02*
X015216Y016073D01*
X015110Y016171D02*
X018087Y016171D01*
X019295Y015580D02*
X020115Y015580D01*
X020122Y015482D02*
X019308Y015482D01*
X019309Y015383D02*
X020126Y015383D01*
X020126Y015285D02*
X019309Y015285D01*
X019309Y015186D02*
X020126Y015186D01*
X020126Y015088D02*
X019309Y015088D01*
X019309Y014989D02*
X020126Y014989D01*
X020126Y014891D02*
X019309Y014891D01*
X019309Y014792D02*
X020126Y014792D01*
X020126Y014694D02*
X018517Y014694D01*
X018517Y014595D02*
X018417Y014595D01*
X018417Y014497D02*
X018517Y014497D01*
X018517Y014398D02*
X018417Y014398D01*
X018417Y014300D02*
X018517Y014300D01*
X018517Y014201D02*
X018417Y014201D01*
X018417Y014103D02*
X018517Y014103D01*
X018517Y014004D02*
X018417Y014004D01*
X018417Y013906D02*
X018517Y013906D01*
X018517Y013807D02*
X018417Y013807D01*
X018417Y013709D02*
X018517Y013709D01*
X018517Y013610D02*
X018417Y013610D01*
X018417Y013512D02*
X018517Y013512D01*
X018517Y013413D02*
X018417Y013413D01*
X018417Y013315D02*
X018517Y013315D01*
X018517Y013216D02*
X018417Y013216D01*
X018266Y013216D02*
X014269Y013216D01*
X014117Y013216D02*
X014017Y013216D01*
X014017Y013315D02*
X014117Y013315D01*
X014117Y013413D02*
X014017Y013413D01*
X014017Y013512D02*
X014117Y013512D01*
X014117Y013610D02*
X014017Y013610D01*
X014017Y013709D02*
X014117Y013709D01*
X014117Y013807D02*
X014017Y013807D01*
X014017Y013906D02*
X014117Y013906D01*
X014117Y014004D02*
X014017Y014004D01*
X014017Y014103D02*
X014117Y014103D01*
X014117Y014201D02*
X014017Y014201D01*
X014017Y014300D02*
X014117Y014300D01*
X014117Y014398D02*
X014017Y014398D01*
X014017Y014497D02*
X014117Y014497D01*
X014117Y014595D02*
X014017Y014595D01*
X014017Y014694D02*
X013006Y014694D01*
X013006Y014792D02*
X012906Y014792D01*
X012906Y014694D02*
X011348Y014694D01*
X011348Y014792D02*
X012113Y014792D01*
X012113Y014891D02*
X011348Y014891D01*
X011432Y014989D02*
X012113Y014989D01*
X012113Y015088D02*
X011537Y015088D01*
X011642Y015186D02*
X012113Y015186D01*
X012113Y015285D02*
X011748Y015285D01*
X011853Y015383D02*
X012113Y015383D01*
X012114Y015482D02*
X011958Y015482D01*
X012064Y015580D02*
X012127Y015580D01*
X011694Y015974D02*
X009190Y015974D01*
X009190Y015975D02*
X009112Y016053D01*
X009024Y016120D01*
X008929Y016175D01*
X008827Y016217D01*
X008720Y016246D01*
X008611Y016260D01*
X008606Y016260D01*
X008606Y014776D01*
X009398Y014776D01*
X009398Y015473D01*
X009383Y015583D01*
X009355Y015689D01*
X009312Y015791D01*
X009257Y015887D01*
X009190Y015975D01*
X009264Y015876D02*
X011589Y015876D01*
X011484Y015777D02*
X009318Y015777D01*
X009358Y015679D02*
X011378Y015679D01*
X011273Y015580D02*
X009384Y015580D01*
X009397Y015482D02*
X011168Y015482D01*
X011063Y015383D02*
X009398Y015383D01*
X009398Y015285D02*
X010476Y015285D01*
X010377Y015186D02*
X009398Y015186D01*
X009398Y015088D02*
X010279Y015088D01*
X010180Y014989D02*
X009398Y014989D01*
X009398Y014891D02*
X010163Y014891D01*
X010163Y014792D02*
X009398Y014792D01*
X009398Y014676D02*
X008606Y014676D01*
X008606Y014776D01*
X008506Y014776D01*
X008506Y016260D01*
X008500Y016260D01*
X008391Y016246D01*
X008284Y016217D01*
X008182Y016175D01*
X008087Y016120D01*
X007999Y016053D01*
X007921Y015975D01*
X007854Y015887D01*
X007799Y015791D01*
X007756Y015689D01*
X007728Y015583D01*
X007713Y015473D01*
X007713Y014776D01*
X008506Y014776D01*
X008506Y014676D01*
X008606Y014676D01*
X008606Y013192D01*
X008611Y013192D01*
X008720Y013206D01*
X008827Y013235D01*
X008929Y013277D01*
X009024Y013332D01*
X009112Y013399D01*
X009190Y013477D01*
X009257Y013565D01*
X009312Y013661D01*
X009355Y013763D01*
X009383Y013869D01*
X009398Y013979D01*
X009398Y014676D01*
X009398Y014595D02*
X010163Y014595D01*
X010163Y014497D02*
X009398Y014497D01*
X009398Y014398D02*
X010245Y014398D01*
X010344Y014300D02*
X009398Y014300D01*
X009398Y014201D02*
X010442Y014201D01*
X010163Y014694D02*
X008606Y014694D01*
X008606Y014792D02*
X008506Y014792D01*
X008506Y014694D02*
X007126Y014694D01*
X007126Y014792D02*
X007713Y014792D01*
X007713Y014891D02*
X007126Y014891D01*
X007126Y014989D02*
X007713Y014989D01*
X007713Y015088D02*
X007126Y015088D01*
X007126Y015186D02*
X007713Y015186D01*
X007713Y015285D02*
X007126Y015285D01*
X007126Y015383D02*
X007713Y015383D01*
X007714Y015482D02*
X007126Y015482D01*
X007126Y015580D02*
X007727Y015580D01*
X007753Y015679D02*
X007126Y015679D01*
X007129Y015777D02*
X007793Y015777D01*
X007847Y015876D02*
X007136Y015876D01*
X007155Y015974D02*
X007921Y015974D01*
X008025Y016073D02*
X007180Y016073D01*
X007216Y016171D02*
X008175Y016171D01*
X008506Y016171D02*
X008606Y016171D01*
X008606Y016073D02*
X008506Y016073D01*
X008506Y015974D02*
X008606Y015974D01*
X008606Y015876D02*
X008506Y015876D01*
X008506Y015777D02*
X008606Y015777D01*
X008606Y015679D02*
X008506Y015679D01*
X008506Y015580D02*
X008606Y015580D01*
X008606Y015482D02*
X008506Y015482D01*
X008506Y015383D02*
X008606Y015383D01*
X008606Y015285D02*
X008506Y015285D01*
X008506Y015186D02*
X008606Y015186D01*
X008606Y015088D02*
X008506Y015088D01*
X008506Y014989D02*
X008606Y014989D01*
X008606Y014891D02*
X008506Y014891D01*
X008506Y014676D02*
X007713Y014676D01*
X007713Y013979D01*
X007728Y013869D01*
X007756Y013763D01*
X007799Y013661D01*
X007854Y013565D01*
X007921Y013477D01*
X007999Y013399D01*
X008087Y013332D01*
X008182Y013277D01*
X008284Y013235D01*
X008391Y013206D01*
X008500Y013192D01*
X008506Y013192D01*
X008506Y014676D01*
X008506Y014595D02*
X008606Y014595D01*
X008606Y014497D02*
X008506Y014497D01*
X008506Y014398D02*
X008606Y014398D01*
X008606Y014300D02*
X008506Y014300D01*
X008506Y014201D02*
X008606Y014201D01*
X008606Y014103D02*
X008506Y014103D01*
X008506Y014004D02*
X008606Y014004D01*
X008606Y013906D02*
X008506Y013906D01*
X008506Y013807D02*
X008606Y013807D01*
X008606Y013709D02*
X008506Y013709D01*
X008506Y013610D02*
X008606Y013610D01*
X008606Y013512D02*
X008506Y013512D01*
X008506Y013413D02*
X008606Y013413D01*
X008606Y013315D02*
X008506Y013315D01*
X008506Y013216D02*
X008606Y013216D01*
X008757Y013216D02*
X012754Y013216D01*
X012791Y013206D02*
X012900Y013192D01*
X012906Y013192D01*
X012906Y014676D01*
X012113Y014676D01*
X012113Y013979D01*
X012128Y013869D01*
X012156Y013763D01*
X012199Y013661D01*
X012254Y013565D01*
X012321Y013477D01*
X012399Y013399D01*
X012487Y013332D01*
X012582Y013277D01*
X012684Y013235D01*
X012791Y013206D01*
X012906Y013216D02*
X013006Y013216D01*
X013006Y013315D02*
X012906Y013315D01*
X012906Y013413D02*
X013006Y013413D01*
X013006Y013512D02*
X012906Y013512D01*
X012906Y013610D02*
X013006Y013610D01*
X013006Y013709D02*
X012906Y013709D01*
X012906Y013807D02*
X013006Y013807D01*
X013006Y013906D02*
X012906Y013906D01*
X012906Y014004D02*
X013006Y014004D01*
X013006Y014103D02*
X012906Y014103D01*
X012906Y014201D02*
X013006Y014201D01*
X013006Y014300D02*
X012906Y014300D01*
X012906Y014398D02*
X013006Y014398D01*
X013006Y014497D02*
X012906Y014497D01*
X012906Y014595D02*
X013006Y014595D01*
X013006Y014891D02*
X012906Y014891D01*
X012906Y014989D02*
X013006Y014989D01*
X013006Y015088D02*
X012906Y015088D01*
X012906Y015186D02*
X013006Y015186D01*
X013006Y015285D02*
X012906Y015285D01*
X012906Y015383D02*
X013006Y015383D01*
X013006Y015482D02*
X012906Y015482D01*
X012906Y015580D02*
X013006Y015580D01*
X013006Y015679D02*
X012906Y015679D01*
X012906Y015777D02*
X013006Y015777D01*
X013006Y015876D02*
X012906Y015876D01*
X012906Y015974D02*
X013006Y015974D01*
X013006Y016073D02*
X012906Y016073D01*
X012906Y016171D02*
X013006Y016171D01*
X012734Y016270D02*
X014227Y016270D01*
X014194Y016368D02*
X012736Y016368D01*
X012734Y016467D02*
X014194Y016467D01*
X014194Y016565D02*
X012734Y016565D01*
X012734Y016664D02*
X014194Y016664D01*
X014194Y016762D02*
X012734Y016762D01*
X012734Y016861D02*
X014194Y016861D01*
X014194Y016959D02*
X012734Y016959D01*
X012734Y017058D02*
X014194Y017058D01*
X014194Y017156D02*
X012734Y017156D01*
X012734Y017255D02*
X014194Y017255D01*
X014194Y017353D02*
X012734Y017353D01*
X012734Y017452D02*
X014194Y017452D01*
X014194Y017550D02*
X012734Y017550D01*
X012734Y017649D02*
X013235Y017649D01*
X013236Y017647D02*
X013299Y017615D01*
X013367Y017593D01*
X013422Y017585D01*
X013422Y018282D01*
X013522Y018282D01*
X013522Y017585D01*
X013577Y017593D01*
X013645Y017615D01*
X013708Y017647D01*
X013765Y017689D01*
X013815Y017739D01*
X013857Y017797D01*
X013889Y017860D01*
X013911Y017927D01*
X013922Y017997D01*
X013922Y018282D01*
X013522Y018282D01*
X013522Y018382D01*
X013922Y018382D01*
X013922Y018668D01*
X013911Y018738D01*
X013889Y018805D01*
X013857Y018868D01*
X013815Y018926D01*
X013765Y018976D01*
X013708Y019017D01*
X013645Y019049D01*
X013577Y019071D01*
X013522Y019080D01*
X013522Y018382D01*
X013422Y018382D01*
X013422Y018282D01*
X013022Y018282D01*
X013022Y017997D01*
X013033Y017927D01*
X013055Y017860D01*
X013087Y017797D01*
X013129Y017739D01*
X013179Y017689D01*
X013236Y017647D01*
X013123Y017747D02*
X012823Y017747D01*
X012882Y017846D02*
X013062Y017846D01*
X013030Y017944D02*
X012922Y017944D01*
X012922Y018043D02*
X013022Y018043D01*
X013022Y018141D02*
X012922Y018141D01*
X012922Y018240D02*
X013022Y018240D01*
X012922Y018338D02*
X013422Y018338D01*
X013422Y018382D02*
X013022Y018382D01*
X013022Y018668D01*
X013033Y018738D01*
X013055Y018805D01*
X013087Y018868D01*
X013129Y018926D01*
X013179Y018976D01*
X013236Y019017D01*
X013299Y019049D01*
X013367Y019071D01*
X013422Y019080D01*
X013422Y018382D01*
X013422Y018437D02*
X013522Y018437D01*
X013522Y018535D02*
X013422Y018535D01*
X013422Y018634D02*
X013522Y018634D01*
X013522Y018732D02*
X013422Y018732D01*
X013422Y018831D02*
X013522Y018831D01*
X013522Y018929D02*
X013422Y018929D01*
X013422Y019028D02*
X013522Y019028D01*
X013688Y019028D02*
X014206Y019028D01*
X014206Y019126D02*
X012746Y019126D01*
X012746Y019028D02*
X013256Y019028D01*
X013132Y018929D02*
X012812Y018929D01*
X012877Y018831D02*
X013068Y018831D01*
X013032Y018732D02*
X012918Y018732D01*
X012922Y018634D02*
X013022Y018634D01*
X013022Y018535D02*
X012922Y018535D01*
X012922Y018437D02*
X013022Y018437D01*
X013422Y018240D02*
X013522Y018240D01*
X013522Y018338D02*
X014022Y018338D01*
X014022Y018240D02*
X013922Y018240D01*
X013922Y018141D02*
X014022Y018141D01*
X014022Y018043D02*
X013922Y018043D01*
X013914Y017944D02*
X014022Y017944D01*
X014062Y017846D02*
X013882Y017846D01*
X013821Y017747D02*
X014121Y017747D01*
X014194Y017649D02*
X013709Y017649D01*
X013522Y017649D02*
X013422Y017649D01*
X013422Y017747D02*
X013522Y017747D01*
X013522Y017846D02*
X013422Y017846D01*
X013422Y017944D02*
X013522Y017944D01*
X013522Y018043D02*
X013422Y018043D01*
X013422Y018141D02*
X013522Y018141D01*
X013922Y018437D02*
X014022Y018437D01*
X014022Y018535D02*
X013922Y018535D01*
X013922Y018634D02*
X014022Y018634D01*
X014026Y018732D02*
X013912Y018732D01*
X013876Y018831D02*
X014067Y018831D01*
X014132Y018929D02*
X013812Y018929D01*
X014206Y019225D02*
X012746Y019225D01*
X012746Y019323D02*
X014206Y019323D01*
X014206Y019422D02*
X012746Y019422D01*
X012746Y019520D02*
X014206Y019520D01*
X014206Y019619D02*
X012746Y019619D01*
X012746Y019717D02*
X014206Y019717D01*
X014206Y019816D02*
X012746Y019816D01*
X012746Y019914D02*
X014206Y019914D01*
X014206Y020013D02*
X012746Y020013D01*
X012746Y020111D02*
X014206Y020111D01*
X014206Y020210D02*
X012746Y020210D01*
X012770Y020308D02*
X013189Y020308D01*
X013163Y020326D02*
X013224Y020282D01*
X013292Y020248D01*
X013364Y020224D01*
X013428Y020214D01*
X013428Y020644D01*
X013524Y020644D01*
X013524Y020214D01*
X013588Y020224D01*
X013660Y020248D01*
X013728Y020282D01*
X013789Y020326D01*
X013842Y020380D01*
X013887Y020441D01*
X013921Y020508D01*
X013944Y020580D01*
X013954Y020644D01*
X013524Y020644D01*
X013524Y020741D01*
X013428Y020741D01*
X013428Y021171D01*
X013364Y021161D01*
X013292Y021137D01*
X013224Y021103D01*
X013163Y021059D01*
X013110Y021005D01*
X013065Y020944D01*
X013031Y020877D01*
X013008Y020805D01*
X012998Y020741D01*
X013428Y020741D01*
X013428Y020644D01*
X012998Y020644D01*
X013008Y020580D01*
X013031Y020508D01*
X013065Y020441D01*
X013110Y020380D01*
X013163Y020326D01*
X013090Y020407D02*
X012869Y020407D01*
X012918Y020505D02*
X013033Y020505D01*
X013004Y020604D02*
X012956Y020604D01*
X012956Y020702D02*
X013428Y020702D01*
X013524Y020702D02*
X013996Y020702D01*
X013954Y020741D02*
X013944Y020805D01*
X013921Y020877D01*
X013887Y020944D01*
X013842Y021005D01*
X013789Y021059D01*
X013728Y021103D01*
X013660Y021137D01*
X013588Y021161D01*
X013524Y021171D01*
X013524Y020741D01*
X013954Y020741D01*
X013945Y020801D02*
X014001Y020801D01*
X014042Y020899D02*
X013909Y020899D01*
X013848Y020998D02*
X014102Y020998D01*
X014201Y021096D02*
X013737Y021096D01*
X013524Y021096D02*
X013428Y021096D01*
X013428Y020998D02*
X013524Y020998D01*
X013524Y020899D02*
X013428Y020899D01*
X013428Y020801D02*
X013524Y020801D01*
X013524Y020604D02*
X013428Y020604D01*
X013428Y020505D02*
X013524Y020505D01*
X013524Y020407D02*
X013428Y020407D01*
X013428Y020308D02*
X013524Y020308D01*
X013763Y020308D02*
X014182Y020308D01*
X014083Y020407D02*
X013861Y020407D01*
X013919Y020505D02*
X014034Y020505D01*
X013996Y020604D02*
X013948Y020604D01*
X014770Y020308D02*
X014990Y020308D01*
X014990Y020210D02*
X014746Y020210D01*
X014746Y020111D02*
X014990Y020111D01*
X014990Y020013D02*
X014746Y020013D01*
X014746Y019914D02*
X014990Y019914D01*
X014990Y019816D02*
X014746Y019816D01*
X014746Y019717D02*
X014990Y019717D01*
X014990Y019619D02*
X014746Y019619D01*
X014746Y019520D02*
X014990Y019520D01*
X014746Y019422D02*
X015626Y019422D01*
X015626Y019323D02*
X014746Y019323D01*
X014746Y019225D02*
X015626Y019225D01*
X015626Y019126D02*
X014746Y019126D01*
X014746Y019028D02*
X015626Y019028D01*
X015626Y018929D02*
X014812Y018929D01*
X014877Y018831D02*
X015626Y018831D01*
X015626Y018732D02*
X014918Y018732D01*
X014922Y018634D02*
X015626Y018634D01*
X015626Y018535D02*
X014922Y018535D01*
X014922Y018437D02*
X015626Y018437D01*
X015626Y018338D02*
X014922Y018338D01*
X014922Y018240D02*
X015626Y018240D01*
X015626Y018141D02*
X014922Y018141D01*
X014922Y018043D02*
X015626Y018043D01*
X015626Y017944D02*
X014922Y017944D01*
X014882Y017846D02*
X015626Y017846D01*
X015626Y017747D02*
X014823Y017747D01*
X014734Y017649D02*
X015626Y017649D01*
X015626Y017550D02*
X014734Y017550D01*
X014734Y017452D02*
X015626Y017452D01*
X015626Y017353D02*
X014734Y017353D01*
X014734Y017255D02*
X015626Y017255D01*
X015626Y017156D02*
X014734Y017156D01*
X014734Y017058D02*
X015626Y017058D01*
X015626Y016959D02*
X014734Y016959D01*
X014734Y016861D02*
X015626Y016861D01*
X014117Y016171D02*
X014017Y016171D01*
X014017Y016073D02*
X014117Y016073D01*
X014117Y015974D02*
X014017Y015974D01*
X014017Y015876D02*
X014117Y015876D01*
X014117Y015777D02*
X014017Y015777D01*
X014017Y015679D02*
X014117Y015679D01*
X014117Y015580D02*
X014017Y015580D01*
X014017Y015482D02*
X014117Y015482D01*
X014117Y015383D02*
X014017Y015383D01*
X014017Y015285D02*
X014117Y015285D01*
X014117Y015186D02*
X014017Y015186D01*
X014017Y015088D02*
X014117Y015088D01*
X014117Y014989D02*
X014017Y014989D01*
X014017Y014891D02*
X014117Y014891D01*
X014117Y014792D02*
X014017Y014792D01*
X014117Y014694D02*
X015674Y014694D01*
X015674Y014792D02*
X014909Y014792D01*
X014909Y014891D02*
X015674Y014891D01*
X015588Y014989D02*
X014909Y014989D01*
X014909Y015088D02*
X015482Y015088D01*
X015376Y015186D02*
X014909Y015186D01*
X014909Y015285D02*
X015270Y015285D01*
X015165Y015383D02*
X014909Y015383D01*
X014908Y015482D02*
X015059Y015482D01*
X014953Y015580D02*
X014895Y015580D01*
X014909Y014595D02*
X015674Y014595D01*
X015674Y014497D02*
X014909Y014497D01*
X014909Y014398D02*
X015757Y014398D01*
X015855Y014300D02*
X014909Y014300D01*
X014909Y014201D02*
X015954Y014201D01*
X016581Y014201D02*
X017625Y014201D01*
X017625Y014103D02*
X014909Y014103D01*
X014909Y014004D02*
X017625Y014004D01*
X017635Y013906D02*
X014900Y013906D01*
X014878Y013807D02*
X017656Y013807D01*
X017691Y013709D02*
X014844Y013709D01*
X014795Y013610D02*
X017740Y013610D01*
X017807Y013512D02*
X014728Y013512D01*
X014637Y013413D02*
X017897Y013413D01*
X018029Y013315D02*
X014506Y013315D01*
X013866Y013216D02*
X013157Y013216D01*
X013394Y013315D02*
X013629Y013315D01*
X012517Y013315D02*
X008994Y013315D01*
X009126Y013413D02*
X012385Y013413D01*
X012295Y013512D02*
X009216Y013512D01*
X009283Y013610D02*
X012228Y013610D01*
X012179Y013709D02*
X009332Y013709D01*
X009367Y013807D02*
X012144Y013807D01*
X012123Y013906D02*
X009388Y013906D01*
X009398Y014004D02*
X012113Y014004D01*
X012113Y014103D02*
X009398Y014103D01*
X008354Y013216D02*
X007126Y013216D01*
X007126Y013118D02*
X020126Y013118D01*
X020126Y013216D02*
X018669Y013216D01*
X018906Y013315D02*
X020126Y013315D01*
X020126Y013413D02*
X019037Y013413D01*
X019128Y013512D02*
X020126Y013512D01*
X020126Y013610D02*
X019195Y013610D01*
X019244Y013709D02*
X020126Y013709D01*
X020126Y013807D02*
X019278Y013807D01*
X019300Y013906D02*
X020126Y013906D01*
X020126Y014004D02*
X019309Y014004D01*
X019309Y014103D02*
X020126Y014103D01*
X020126Y014201D02*
X019309Y014201D01*
X019309Y014300D02*
X020126Y014300D01*
X020126Y014398D02*
X019309Y014398D01*
X019309Y014497D02*
X020126Y014497D01*
X020126Y014595D02*
X019309Y014595D01*
X017625Y014595D02*
X016860Y014595D01*
X016860Y014497D02*
X017625Y014497D01*
X017625Y014398D02*
X016778Y014398D01*
X016679Y014300D02*
X017625Y014300D01*
X016616Y012568D02*
X016317Y012568D01*
X016317Y011776D01*
X017109Y011776D01*
X017109Y012075D01*
X016616Y012568D01*
X016658Y012527D02*
X020126Y012527D01*
X020126Y012625D02*
X007126Y012625D01*
X007126Y012527D02*
X010365Y012527D01*
X010267Y012428D02*
X007126Y012428D01*
X007126Y012330D02*
X010168Y012330D01*
X010070Y012231D02*
X007126Y012231D01*
X007126Y012133D02*
X009971Y012133D01*
X009913Y012034D02*
X007126Y012034D01*
X007126Y011936D02*
X009913Y011936D01*
X009913Y011837D02*
X007126Y011837D01*
X007126Y011739D02*
X010706Y011739D01*
X010706Y011837D02*
X010806Y011837D01*
X010806Y011739D02*
X016217Y011739D01*
X016217Y011776D02*
X015425Y011776D01*
X015425Y012075D01*
X015919Y012568D01*
X016217Y012568D01*
X016217Y011776D01*
X016217Y011837D02*
X016317Y011837D01*
X016317Y011739D02*
X020126Y011739D01*
X020126Y011837D02*
X017109Y011837D01*
X017109Y011936D02*
X020126Y011936D01*
X020126Y012034D02*
X017109Y012034D01*
X017052Y012133D02*
X020126Y012133D01*
X020126Y012231D02*
X016953Y012231D01*
X016855Y012330D02*
X020126Y012330D01*
X020126Y012428D02*
X016756Y012428D01*
X016317Y012428D02*
X016217Y012428D01*
X016217Y012330D02*
X016317Y012330D01*
X016317Y012231D02*
X016217Y012231D01*
X016217Y012133D02*
X016317Y012133D01*
X016317Y012034D02*
X016217Y012034D01*
X016217Y011936D02*
X016317Y011936D01*
X015778Y012428D02*
X011244Y012428D01*
X011146Y012527D02*
X015877Y012527D01*
X015680Y012330D02*
X011343Y012330D01*
X011441Y012231D02*
X015581Y012231D01*
X015483Y012133D02*
X011540Y012133D01*
X011598Y012034D02*
X015425Y012034D01*
X015425Y011936D02*
X011598Y011936D01*
X011598Y011837D02*
X015425Y011837D01*
X015425Y011640D02*
X011598Y011640D01*
X011598Y011542D02*
X015425Y011542D01*
X015425Y011443D02*
X011598Y011443D01*
X011565Y011345D02*
X015458Y011345D01*
X017077Y011345D02*
X020126Y011345D01*
X020126Y011443D02*
X017109Y011443D01*
X017109Y011542D02*
X020126Y011542D01*
X020126Y011640D02*
X017109Y011640D01*
X016317Y012527D02*
X016217Y012527D01*
X020126Y012724D02*
X007126Y012724D01*
X007126Y012822D02*
X020126Y012822D01*
X020126Y012921D02*
X007126Y012921D01*
X007126Y013019D02*
X020126Y013019D01*
X013687Y016171D02*
X013336Y016171D01*
X013486Y016073D02*
X013537Y016073D01*
X012194Y016467D02*
X007399Y016467D01*
X007325Y016368D02*
X012116Y016368D01*
X012010Y016270D02*
X007265Y016270D01*
X007498Y016565D02*
X012194Y016565D01*
X012194Y016664D02*
X007624Y016664D01*
X007809Y016762D02*
X012194Y016762D01*
X012194Y016861D02*
X011626Y016861D01*
X011626Y016959D02*
X012194Y016959D01*
X012194Y017058D02*
X011626Y017058D01*
X011626Y017156D02*
X012194Y017156D01*
X012194Y017255D02*
X011626Y017255D01*
X011626Y017353D02*
X012194Y017353D01*
X012194Y017452D02*
X011626Y017452D01*
X011626Y017550D02*
X012194Y017550D01*
X012194Y017649D02*
X011626Y017649D01*
X011626Y017747D02*
X012121Y017747D01*
X012062Y017846D02*
X011626Y017846D01*
X011626Y017944D02*
X012022Y017944D01*
X012022Y018043D02*
X011626Y018043D01*
X011626Y018141D02*
X012022Y018141D01*
X012022Y018240D02*
X011626Y018240D01*
X011626Y018338D02*
X012022Y018338D01*
X012022Y018437D02*
X011626Y018437D01*
X011626Y018535D02*
X012022Y018535D01*
X012022Y018634D02*
X011626Y018634D01*
X011626Y018732D02*
X012026Y018732D01*
X012067Y018831D02*
X011626Y018831D01*
X011626Y018929D02*
X012132Y018929D01*
X012206Y019028D02*
X011626Y019028D01*
X011626Y019126D02*
X012206Y019126D01*
X012206Y019225D02*
X011626Y019225D01*
X011626Y019323D02*
X012206Y019323D01*
X012206Y019422D02*
X011626Y019422D01*
X011626Y019520D02*
X012206Y019520D01*
X012206Y019619D02*
X011626Y019619D01*
X011626Y019717D02*
X012206Y019717D01*
X012206Y019816D02*
X011626Y019816D01*
X011626Y019914D02*
X012206Y019914D01*
X012206Y020013D02*
X011626Y020013D01*
X011626Y020111D02*
X012206Y020111D01*
X012206Y020210D02*
X011626Y020210D01*
X011626Y020308D02*
X012182Y020308D01*
X012083Y020407D02*
X011626Y020407D01*
X011626Y020505D02*
X012034Y020505D01*
X011996Y020604D02*
X011626Y020604D01*
X011626Y020702D02*
X011996Y020702D01*
X012001Y020801D02*
X011626Y020801D01*
X011626Y020899D02*
X012042Y020899D01*
X012102Y020998D02*
X011626Y020998D01*
X011626Y021096D02*
X012201Y021096D01*
X012751Y021096D02*
X013215Y021096D01*
X013104Y020998D02*
X012850Y020998D01*
X012910Y020899D02*
X013042Y020899D01*
X013007Y020801D02*
X012951Y020801D01*
X011626Y021195D02*
X014990Y021195D01*
X014990Y021293D02*
X011626Y021293D01*
X011626Y021392D02*
X014990Y021392D01*
X014990Y021490D02*
X011626Y021490D01*
X011626Y021589D02*
X014990Y021589D01*
X014990Y021687D02*
X011626Y021687D01*
X011626Y021786D02*
X014990Y021786D01*
X014990Y021096D02*
X014751Y021096D01*
X014850Y020998D02*
X014990Y020998D01*
X014990Y020899D02*
X014910Y020899D01*
X014951Y020801D02*
X014990Y020801D01*
X014990Y020702D02*
X014956Y020702D01*
X014956Y020604D02*
X014990Y020604D01*
X014990Y020505D02*
X014918Y020505D01*
X014869Y020407D02*
X014990Y020407D01*
X011905Y016171D02*
X008936Y016171D01*
X009086Y016073D02*
X011800Y016073D01*
X012113Y014595D02*
X011348Y014595D01*
X011348Y014497D02*
X012113Y014497D01*
X012113Y014398D02*
X011266Y014398D01*
X011168Y014300D02*
X012113Y014300D01*
X012113Y014201D02*
X011069Y014201D01*
X010806Y012527D02*
X010706Y012527D01*
X010706Y012428D02*
X010806Y012428D01*
X010806Y012330D02*
X010706Y012330D01*
X010706Y012231D02*
X010806Y012231D01*
X010806Y012133D02*
X010706Y012133D01*
X010706Y012034D02*
X010806Y012034D01*
X010806Y011936D02*
X010706Y011936D01*
X009913Y011640D02*
X007126Y011640D01*
X007126Y011542D02*
X009913Y011542D01*
X009913Y011443D02*
X007126Y011443D01*
X007126Y011345D02*
X009946Y011345D01*
X008117Y013315D02*
X007126Y013315D01*
X007126Y013413D02*
X007985Y013413D01*
X007895Y013512D02*
X007126Y013512D01*
X007126Y013610D02*
X007828Y013610D01*
X007779Y013709D02*
X007126Y013709D01*
X007126Y013807D02*
X007744Y013807D01*
X007723Y013906D02*
X007126Y013906D01*
X007126Y014004D02*
X007713Y014004D01*
X007713Y014103D02*
X007126Y014103D01*
X007126Y014201D02*
X007713Y014201D01*
X007713Y014300D02*
X007126Y014300D01*
X007126Y014398D02*
X007713Y014398D01*
X007713Y014497D02*
X007126Y014497D01*
X007126Y014595D02*
X007713Y014595D01*
D24*
X045226Y016732D02*
X046652Y016732D01*
X046826Y016558D01*
M02*
