G75*
%MOIN*%
%OFA0B0*%
%FSLAX24Y24*%
%IPPOS*%
%LPD*%
%AMOC8*
5,1,8,0,0,1.08239X$1,22.5*
%
%ADD10C,0.0740*%
%ADD11C,0.1379*%
%ADD12R,0.0474X0.0513*%
%ADD13R,0.0513X0.0474*%
%ADD14R,0.1773X0.1064*%
%ADD15R,0.0710X0.1143*%
%ADD16C,0.0680*%
%ADD17C,0.0674*%
%ADD18OC8,0.0966*%
%ADD19C,0.1464*%
%ADD20OC8,0.1464*%
%ADD21R,0.0552X0.0552*%
%ADD22R,0.0320X0.0530*%
%ADD23R,0.0200X0.0530*%
%ADD24C,0.0470*%
%ADD25C,0.0316*%
%ADD26C,0.0336*%
%ADD27R,0.0297X0.0611*%
%ADD28R,0.0631X0.0867*%
%ADD29R,0.0584X0.0631*%
%ADD30R,0.0848X0.0631*%
%ADD31R,0.0356X0.0631*%
%ADD32C,0.0572*%
%ADD33R,0.0710X0.0540*%
%ADD34R,0.0720X0.0060*%
%ADD35C,0.0476*%
D10*
X012476Y020693D03*
X013476Y020693D03*
X014476Y020693D03*
X015476Y020693D03*
X016476Y020693D03*
X017476Y020693D03*
X018476Y020693D03*
X019476Y020693D03*
X020476Y020693D03*
X023035Y020988D03*
X023035Y021988D03*
X023035Y022988D03*
X023035Y023988D03*
X023035Y024988D03*
X023035Y025988D03*
X031376Y025602D03*
X031376Y024602D03*
X031376Y023602D03*
X031376Y022602D03*
X031376Y021602D03*
X031376Y020602D03*
X031376Y026602D03*
X031376Y027602D03*
X031376Y028602D03*
X031376Y029602D03*
X031376Y030602D03*
X031376Y031602D03*
X031376Y032602D03*
X031376Y033602D03*
X031376Y034602D03*
X031376Y035602D03*
X031376Y036602D03*
X031376Y037602D03*
X031376Y038602D03*
X031376Y039602D03*
X031376Y040602D03*
X031376Y041602D03*
X041376Y041602D03*
X041376Y040602D03*
X041376Y039602D03*
X041376Y038602D03*
X041376Y037602D03*
X041376Y036602D03*
X041376Y035602D03*
X041376Y034602D03*
X041376Y033602D03*
X041376Y032602D03*
X041376Y031602D03*
X041376Y030602D03*
X041376Y029602D03*
X041376Y028602D03*
X041376Y027602D03*
X041376Y026602D03*
X041376Y025602D03*
X041376Y024602D03*
X041376Y023602D03*
X041376Y022602D03*
X041376Y021602D03*
X041376Y020602D03*
D11*
X031622Y012821D03*
X059968Y012821D03*
X059968Y040380D03*
X003275Y040380D03*
X003275Y012821D03*
D12*
X024126Y025017D03*
X024126Y025687D03*
X025126Y025687D03*
X025126Y025017D03*
X026126Y025017D03*
X026126Y025687D03*
X027961Y027612D03*
X028630Y027612D03*
X028630Y029122D03*
X027961Y029122D03*
X023980Y031561D03*
X023311Y031561D03*
X023311Y033608D03*
X023980Y033608D03*
X024876Y034517D03*
X024876Y035187D03*
X012263Y036836D03*
X011594Y036836D03*
X010460Y038332D03*
X009791Y038332D03*
X008460Y038332D03*
X007791Y038332D03*
X044291Y034602D03*
X044960Y034602D03*
X044960Y033602D03*
X044291Y033602D03*
X044291Y032602D03*
X044960Y032602D03*
X050578Y027622D03*
X051248Y027622D03*
X051248Y026572D03*
X050578Y026572D03*
X050578Y025582D03*
X051248Y025582D03*
X051248Y024572D03*
X050578Y024572D03*
D13*
X045160Y025419D03*
X044491Y025419D03*
X051759Y020486D03*
X052429Y020486D03*
X046056Y017557D03*
X046056Y016887D03*
X044446Y016857D03*
X044446Y017527D03*
X034535Y017092D03*
X033236Y017092D03*
X033236Y016423D03*
X034535Y016423D03*
X028019Y014592D03*
X027350Y014592D03*
X027350Y013805D03*
X028019Y013805D03*
X028019Y013017D03*
X027350Y013017D03*
X027961Y026472D03*
X028630Y026472D03*
X024876Y031577D03*
X024876Y032247D03*
X024876Y032957D03*
X024876Y033627D03*
X025130Y038332D03*
X024460Y038332D03*
X023110Y038332D03*
X022441Y038332D03*
X020740Y038332D03*
X020071Y038332D03*
X019257Y038332D03*
X018588Y038332D03*
X016170Y038332D03*
X015501Y038332D03*
X012263Y038332D03*
X011594Y038332D03*
X006720Y038332D03*
X006051Y038332D03*
X026139Y038332D03*
X026808Y038332D03*
X028626Y039767D03*
X028626Y040437D03*
X044511Y030382D03*
X045180Y030382D03*
D14*
X030509Y017352D03*
X027242Y017352D03*
D15*
X044324Y021152D03*
X045427Y021152D03*
X051543Y018994D03*
X052645Y018994D03*
D16*
X049396Y017702D02*
X048796Y017702D01*
X048796Y016702D02*
X049396Y016702D01*
X049396Y015702D02*
X048796Y015702D01*
X048796Y014702D02*
X049396Y014702D01*
X049396Y013702D02*
X048796Y013702D01*
X048796Y012702D02*
X049396Y012702D01*
X039416Y013332D02*
X039416Y013932D01*
X038416Y013932D02*
X038416Y013332D01*
X038416Y017552D02*
X038416Y018152D01*
X039416Y018152D02*
X039416Y017552D01*
X046826Y023602D02*
X047426Y023602D01*
X047426Y024602D02*
X046826Y024602D01*
X046826Y025602D02*
X047426Y025602D01*
X047426Y026602D02*
X046826Y026602D01*
X046826Y027602D02*
X047426Y027602D01*
X047426Y028602D02*
X046826Y028602D01*
X046826Y030602D02*
X047426Y030602D01*
X047426Y031602D02*
X046826Y031602D01*
X046826Y032602D02*
X047426Y032602D01*
X047426Y033602D02*
X046826Y033602D01*
X046826Y034602D02*
X047426Y034602D01*
X047426Y035602D02*
X046826Y035602D01*
X046826Y036602D02*
X047426Y036602D01*
X026918Y035101D02*
X026318Y035101D01*
X026318Y034101D02*
X026918Y034101D01*
X026918Y033101D02*
X026318Y033101D01*
X026318Y032101D02*
X026918Y032101D01*
X026918Y031101D02*
X026318Y031101D01*
X022626Y029065D02*
X022626Y028465D01*
X021626Y028465D02*
X021626Y029065D01*
X020626Y029065D02*
X020626Y028465D01*
X019626Y028465D02*
X019626Y029065D01*
X018626Y029065D02*
X018626Y028465D01*
X017626Y028465D02*
X017626Y029065D01*
X014472Y018632D02*
X014472Y018032D01*
X013472Y018032D02*
X013472Y018632D01*
X012472Y018632D02*
X012472Y018032D01*
X012441Y040080D02*
X012441Y040680D01*
X011441Y040680D02*
X011441Y040080D01*
X013441Y040080D02*
X013441Y040680D01*
X015834Y040680D02*
X015834Y040080D01*
X016834Y040080D02*
X016834Y040680D01*
X017834Y040680D02*
X017834Y040080D01*
X018834Y040080D02*
X018834Y040680D01*
X019834Y040680D02*
X019834Y040080D01*
X022133Y040080D02*
X022133Y040680D01*
X023133Y040680D02*
X023133Y040080D01*
X024133Y040080D02*
X024133Y040680D01*
X025133Y040680D02*
X025133Y040080D01*
X026133Y040080D02*
X026133Y040680D01*
X008980Y040680D02*
X008980Y040080D01*
X007980Y040080D02*
X007980Y040680D01*
X006980Y040680D02*
X006980Y040080D01*
X005980Y040080D02*
X005980Y040680D01*
D17*
X029579Y040602D02*
X030172Y040602D01*
X030172Y039602D02*
X029579Y039602D01*
X029579Y038602D02*
X030172Y038602D01*
X030172Y037602D02*
X029579Y037602D01*
X029579Y036602D02*
X030172Y036602D01*
X030172Y035602D02*
X029579Y035602D01*
X029579Y034602D02*
X030172Y034602D01*
X030172Y033602D02*
X029579Y033602D01*
X029579Y032602D02*
X030172Y032602D01*
X030172Y031602D02*
X029579Y031602D01*
X029579Y030602D02*
X030172Y030602D01*
X030172Y029602D02*
X029579Y029602D01*
X029579Y028602D02*
X030172Y028602D01*
X030172Y027602D02*
X029579Y027602D01*
X029579Y026602D02*
X030172Y026602D01*
X030172Y025602D02*
X029579Y025602D01*
X029579Y024602D02*
X030172Y024602D01*
X030172Y023602D02*
X029579Y023602D01*
X029579Y022602D02*
X030172Y022602D01*
X030172Y021602D02*
X029579Y021602D01*
X029579Y020602D02*
X030172Y020602D01*
X042579Y020602D02*
X043172Y020602D01*
X043172Y021602D02*
X042579Y021602D01*
X042579Y022602D02*
X043172Y022602D01*
X043172Y023602D02*
X042579Y023602D01*
X042579Y024602D02*
X043172Y024602D01*
X043172Y025602D02*
X042579Y025602D01*
X042579Y026602D02*
X043172Y026602D01*
X043172Y027602D02*
X042579Y027602D01*
X042579Y028602D02*
X043172Y028602D01*
X043172Y029602D02*
X042579Y029602D01*
X042579Y030602D02*
X043172Y030602D01*
X043172Y031602D02*
X042579Y031602D01*
X042579Y032602D02*
X043172Y032602D01*
X043172Y033602D02*
X042579Y033602D01*
X042579Y034602D02*
X043172Y034602D01*
X043172Y035602D02*
X042579Y035602D01*
X042579Y036602D02*
X043172Y036602D01*
X043172Y037602D02*
X042579Y037602D01*
X042579Y038602D02*
X043172Y038602D01*
X043172Y039602D02*
X042579Y039602D01*
X042579Y040602D02*
X043172Y040602D01*
X043172Y041602D02*
X042579Y041602D01*
X030172Y041602D02*
X029579Y041602D01*
D18*
X016267Y014726D03*
X010756Y014726D03*
D19*
X012956Y015418D02*
X012956Y014034D01*
X014067Y014034D02*
X014067Y015418D01*
X018467Y015418D02*
X018467Y014034D01*
X008556Y014034D02*
X008556Y015418D01*
D20*
X010756Y011726D03*
X016267Y011726D03*
D21*
X033236Y018017D03*
X034535Y018017D03*
X034535Y018844D03*
X033236Y018844D03*
D22*
X043984Y013530D03*
X044299Y013530D03*
X046189Y013530D03*
X046504Y013530D03*
D23*
X045933Y013530D03*
X045736Y013530D03*
X045539Y013530D03*
X045342Y013530D03*
X045145Y013530D03*
X044948Y013530D03*
X044752Y013530D03*
X044555Y013530D03*
D24*
X043543Y013464D02*
X043543Y013144D01*
X043543Y011969D02*
X043543Y011489D01*
X046944Y011489D02*
X046944Y011969D01*
X046944Y013144D02*
X046944Y013464D01*
X046944Y013144D01*
D25*
X046944Y013150D03*
X046944Y013460D03*
X046944Y011960D03*
X046944Y011490D03*
X043543Y011491D03*
X043543Y011960D03*
X043543Y013150D03*
X043543Y013460D03*
D26*
X044106Y013150D03*
X046381Y013150D03*
D27*
X045610Y015081D03*
X045236Y015081D03*
X044862Y015081D03*
X044862Y016163D03*
X045236Y016163D03*
X045610Y016163D03*
D28*
X051515Y012801D03*
X057736Y012801D03*
D29*
X051492Y016580D03*
D30*
X057391Y016580D03*
D31*
X055492Y016923D03*
X055059Y016923D03*
X054626Y016923D03*
X054193Y016923D03*
X053759Y016923D03*
X053326Y016923D03*
X052893Y016923D03*
X052460Y016923D03*
X052027Y016923D03*
D32*
X052696Y012643D03*
X055846Y012643D03*
D33*
X045186Y027402D03*
X045186Y028002D03*
X045186Y028602D03*
X020626Y026652D03*
X020626Y026052D03*
X019626Y026052D03*
X019626Y026652D03*
X018626Y026652D03*
X018626Y026052D03*
X017626Y026052D03*
X017626Y026652D03*
D34*
X017626Y026352D03*
X018626Y026352D03*
X019626Y026352D03*
X020626Y026352D03*
D35*
X017616Y025402D03*
X025006Y023252D03*
X025576Y024002D03*
X028626Y025352D03*
X028126Y021852D03*
X027126Y019842D03*
X026126Y018852D03*
X031956Y017342D03*
X033236Y019832D03*
X038566Y020612D03*
X040376Y019602D03*
X043575Y016859D03*
X045226Y016732D03*
X046826Y016558D03*
X046991Y017256D03*
X047775Y016159D03*
X046126Y015352D03*
X046316Y014402D03*
X045236Y014502D03*
X044286Y015532D03*
X043356Y014352D03*
X051556Y017582D03*
X052246Y018082D03*
X053336Y017582D03*
X054186Y018022D03*
X054187Y018992D03*
X055058Y018992D03*
X051936Y024176D03*
X051936Y027609D03*
X045196Y031002D03*
X044324Y023658D03*
X046166Y021152D03*
X027976Y032122D03*
X027856Y034642D03*
X024236Y034532D03*
X024126Y032352D03*
X027266Y029122D03*
X020526Y037142D03*
X021356Y037622D03*
X020506Y039352D03*
X020496Y039352D03*
X022426Y039352D03*
X024126Y039352D03*
X026876Y039102D03*
X021456Y041622D03*
X017126Y037852D03*
X017836Y037142D03*
X014437Y037541D03*
X012816Y037542D03*
X015016Y039352D03*
X015126Y041622D03*
X010596Y039352D03*
X007796Y037528D03*
X005503Y039352D03*
X033626Y037852D03*
X027346Y012182D03*
M02*
