G75*
%MOIN*%
%OFA0B0*%
%FSLAX24Y24*%
%IPPOS*%
%LPD*%
%AMOC8*
5,1,8,0,0,1.08239X$1,22.5*
%
%ADD10C,0.0050*%
%ADD11C,0.0236*%
%ADD12C,0.0000*%
%ADD13C,0.0240*%
D10*
X000126Y010852D02*
X000126Y042348D01*
X069023Y042348D01*
X069023Y010852D01*
X000126Y010852D01*
X043539Y013303D02*
X043548Y013303D01*
D11*
X063118Y011836D02*
X063118Y016758D01*
X063118Y018726D02*
X063118Y025616D01*
X063118Y027584D02*
X063118Y034474D01*
X063118Y036443D02*
X063118Y041364D01*
D12*
X059318Y040380D02*
X059320Y040430D01*
X059326Y040480D01*
X059336Y040530D01*
X059349Y040578D01*
X059366Y040626D01*
X059387Y040672D01*
X059411Y040716D01*
X059439Y040758D01*
X059470Y040798D01*
X059504Y040835D01*
X059541Y040870D01*
X059580Y040901D01*
X059621Y040930D01*
X059665Y040955D01*
X059711Y040977D01*
X059758Y040995D01*
X059806Y041009D01*
X059855Y041020D01*
X059905Y041027D01*
X059955Y041030D01*
X060006Y041029D01*
X060056Y041024D01*
X060106Y041015D01*
X060154Y041003D01*
X060202Y040986D01*
X060248Y040966D01*
X060293Y040943D01*
X060336Y040916D01*
X060376Y040886D01*
X060414Y040853D01*
X060449Y040817D01*
X060482Y040778D01*
X060511Y040737D01*
X060537Y040694D01*
X060560Y040649D01*
X060579Y040602D01*
X060594Y040554D01*
X060606Y040505D01*
X060614Y040455D01*
X060618Y040405D01*
X060618Y040355D01*
X060614Y040305D01*
X060606Y040255D01*
X060594Y040206D01*
X060579Y040158D01*
X060560Y040111D01*
X060537Y040066D01*
X060511Y040023D01*
X060482Y039982D01*
X060449Y039943D01*
X060414Y039907D01*
X060376Y039874D01*
X060336Y039844D01*
X060293Y039817D01*
X060248Y039794D01*
X060202Y039774D01*
X060154Y039757D01*
X060106Y039745D01*
X060056Y039736D01*
X060006Y039731D01*
X059955Y039730D01*
X059905Y039733D01*
X059855Y039740D01*
X059806Y039751D01*
X059758Y039765D01*
X059711Y039783D01*
X059665Y039805D01*
X059621Y039830D01*
X059580Y039859D01*
X059541Y039890D01*
X059504Y039925D01*
X059470Y039962D01*
X059439Y040002D01*
X059411Y040044D01*
X059387Y040088D01*
X059366Y040134D01*
X059349Y040182D01*
X059336Y040230D01*
X059326Y040280D01*
X059320Y040330D01*
X059318Y040380D01*
X046826Y013460D02*
X046828Y013481D01*
X046834Y013501D01*
X046843Y013521D01*
X046855Y013538D01*
X046870Y013552D01*
X046888Y013564D01*
X046908Y013572D01*
X046928Y013577D01*
X046949Y013578D01*
X046970Y013575D01*
X046990Y013569D01*
X047009Y013558D01*
X047026Y013545D01*
X047039Y013529D01*
X047050Y013511D01*
X047058Y013491D01*
X047062Y013471D01*
X047062Y013449D01*
X047058Y013429D01*
X047050Y013409D01*
X047039Y013391D01*
X047026Y013375D01*
X047009Y013362D01*
X046990Y013351D01*
X046970Y013345D01*
X046949Y013342D01*
X046928Y013343D01*
X046908Y013348D01*
X046888Y013356D01*
X046870Y013368D01*
X046855Y013382D01*
X046843Y013399D01*
X046834Y013419D01*
X046828Y013439D01*
X046826Y013460D01*
X046826Y013150D02*
X046828Y013171D01*
X046834Y013191D01*
X046843Y013211D01*
X046855Y013228D01*
X046870Y013242D01*
X046888Y013254D01*
X046908Y013262D01*
X046928Y013267D01*
X046949Y013268D01*
X046970Y013265D01*
X046990Y013259D01*
X047009Y013248D01*
X047026Y013235D01*
X047039Y013219D01*
X047050Y013201D01*
X047058Y013181D01*
X047062Y013161D01*
X047062Y013139D01*
X047058Y013119D01*
X047050Y013099D01*
X047039Y013081D01*
X047026Y013065D01*
X047009Y013052D01*
X046990Y013041D01*
X046970Y013035D01*
X046949Y013032D01*
X046928Y013033D01*
X046908Y013038D01*
X046888Y013046D01*
X046870Y013058D01*
X046855Y013072D01*
X046843Y013089D01*
X046834Y013109D01*
X046828Y013129D01*
X046826Y013150D01*
X046253Y013150D02*
X046255Y013172D01*
X046261Y013194D01*
X046270Y013214D01*
X046283Y013232D01*
X046299Y013248D01*
X046317Y013261D01*
X046337Y013270D01*
X046359Y013276D01*
X046381Y013278D01*
X046403Y013276D01*
X046425Y013270D01*
X046445Y013261D01*
X046463Y013248D01*
X046479Y013232D01*
X046492Y013214D01*
X046501Y013194D01*
X046507Y013172D01*
X046509Y013150D01*
X046507Y013128D01*
X046501Y013106D01*
X046492Y013086D01*
X046479Y013068D01*
X046463Y013052D01*
X046445Y013039D01*
X046425Y013030D01*
X046403Y013024D01*
X046381Y013022D01*
X046359Y013024D01*
X046337Y013030D01*
X046317Y013039D01*
X046299Y013052D01*
X046283Y013068D01*
X046270Y013086D01*
X046261Y013106D01*
X046255Y013128D01*
X046253Y013150D01*
X046826Y011960D02*
X046828Y011981D01*
X046834Y012001D01*
X046843Y012021D01*
X046855Y012038D01*
X046870Y012052D01*
X046888Y012064D01*
X046908Y012072D01*
X046928Y012077D01*
X046949Y012078D01*
X046970Y012075D01*
X046990Y012069D01*
X047009Y012058D01*
X047026Y012045D01*
X047039Y012029D01*
X047050Y012011D01*
X047058Y011991D01*
X047062Y011971D01*
X047062Y011949D01*
X047058Y011929D01*
X047050Y011909D01*
X047039Y011891D01*
X047026Y011875D01*
X047009Y011862D01*
X046990Y011851D01*
X046970Y011845D01*
X046949Y011842D01*
X046928Y011843D01*
X046908Y011848D01*
X046888Y011856D01*
X046870Y011868D01*
X046855Y011882D01*
X046843Y011899D01*
X046834Y011919D01*
X046828Y011939D01*
X046826Y011960D01*
X046826Y011490D02*
X046828Y011511D01*
X046834Y011531D01*
X046843Y011551D01*
X046855Y011568D01*
X046870Y011582D01*
X046888Y011594D01*
X046908Y011602D01*
X046928Y011607D01*
X046949Y011608D01*
X046970Y011605D01*
X046990Y011599D01*
X047009Y011588D01*
X047026Y011575D01*
X047039Y011559D01*
X047050Y011541D01*
X047058Y011521D01*
X047062Y011501D01*
X047062Y011479D01*
X047058Y011459D01*
X047050Y011439D01*
X047039Y011421D01*
X047026Y011405D01*
X047009Y011392D01*
X046990Y011381D01*
X046970Y011375D01*
X046949Y011372D01*
X046928Y011373D01*
X046908Y011378D01*
X046888Y011386D01*
X046870Y011398D01*
X046855Y011412D01*
X046843Y011429D01*
X046834Y011449D01*
X046828Y011469D01*
X046826Y011490D01*
X043978Y013150D02*
X043980Y013172D01*
X043986Y013194D01*
X043995Y013214D01*
X044008Y013232D01*
X044024Y013248D01*
X044042Y013261D01*
X044062Y013270D01*
X044084Y013276D01*
X044106Y013278D01*
X044128Y013276D01*
X044150Y013270D01*
X044170Y013261D01*
X044188Y013248D01*
X044204Y013232D01*
X044217Y013214D01*
X044226Y013194D01*
X044232Y013172D01*
X044234Y013150D01*
X044232Y013128D01*
X044226Y013106D01*
X044217Y013086D01*
X044204Y013068D01*
X044188Y013052D01*
X044170Y013039D01*
X044150Y013030D01*
X044128Y013024D01*
X044106Y013022D01*
X044084Y013024D01*
X044062Y013030D01*
X044042Y013039D01*
X044024Y013052D01*
X044008Y013068D01*
X043995Y013086D01*
X043986Y013106D01*
X043980Y013128D01*
X043978Y013150D01*
X043425Y013150D02*
X043427Y013171D01*
X043433Y013191D01*
X043442Y013211D01*
X043454Y013228D01*
X043469Y013242D01*
X043487Y013254D01*
X043507Y013262D01*
X043527Y013267D01*
X043548Y013268D01*
X043569Y013265D01*
X043589Y013259D01*
X043608Y013248D01*
X043625Y013235D01*
X043638Y013219D01*
X043649Y013201D01*
X043657Y013181D01*
X043661Y013161D01*
X043661Y013139D01*
X043657Y013119D01*
X043649Y013099D01*
X043638Y013081D01*
X043625Y013065D01*
X043608Y013052D01*
X043589Y013041D01*
X043569Y013035D01*
X043548Y013032D01*
X043527Y013033D01*
X043507Y013038D01*
X043487Y013046D01*
X043469Y013058D01*
X043454Y013072D01*
X043442Y013089D01*
X043433Y013109D01*
X043427Y013129D01*
X043425Y013150D01*
X043425Y013460D02*
X043427Y013481D01*
X043433Y013501D01*
X043442Y013521D01*
X043454Y013538D01*
X043469Y013552D01*
X043487Y013564D01*
X043507Y013572D01*
X043527Y013577D01*
X043548Y013578D01*
X043569Y013575D01*
X043589Y013569D01*
X043608Y013558D01*
X043625Y013545D01*
X043638Y013529D01*
X043649Y013511D01*
X043657Y013491D01*
X043661Y013471D01*
X043661Y013449D01*
X043657Y013429D01*
X043649Y013409D01*
X043638Y013391D01*
X043625Y013375D01*
X043608Y013362D01*
X043589Y013351D01*
X043569Y013345D01*
X043548Y013342D01*
X043527Y013343D01*
X043507Y013348D01*
X043487Y013356D01*
X043469Y013368D01*
X043454Y013382D01*
X043442Y013399D01*
X043433Y013419D01*
X043427Y013439D01*
X043425Y013460D01*
X043425Y011960D02*
X043427Y011981D01*
X043433Y012001D01*
X043442Y012021D01*
X043454Y012038D01*
X043469Y012052D01*
X043487Y012064D01*
X043507Y012072D01*
X043527Y012077D01*
X043548Y012078D01*
X043569Y012075D01*
X043589Y012069D01*
X043608Y012058D01*
X043625Y012045D01*
X043638Y012029D01*
X043649Y012011D01*
X043657Y011991D01*
X043661Y011971D01*
X043661Y011949D01*
X043657Y011929D01*
X043649Y011909D01*
X043638Y011891D01*
X043625Y011875D01*
X043608Y011862D01*
X043589Y011851D01*
X043569Y011845D01*
X043548Y011842D01*
X043527Y011843D01*
X043507Y011848D01*
X043487Y011856D01*
X043469Y011868D01*
X043454Y011882D01*
X043442Y011899D01*
X043433Y011919D01*
X043427Y011939D01*
X043425Y011960D01*
X043425Y011491D02*
X043427Y011512D01*
X043433Y011532D01*
X043442Y011552D01*
X043454Y011569D01*
X043469Y011583D01*
X043487Y011595D01*
X043507Y011603D01*
X043527Y011608D01*
X043548Y011609D01*
X043569Y011606D01*
X043589Y011600D01*
X043608Y011589D01*
X043625Y011576D01*
X043638Y011560D01*
X043649Y011542D01*
X043657Y011522D01*
X043661Y011502D01*
X043661Y011480D01*
X043657Y011460D01*
X043649Y011440D01*
X043638Y011422D01*
X043625Y011406D01*
X043608Y011393D01*
X043589Y011382D01*
X043569Y011376D01*
X043548Y011373D01*
X043527Y011374D01*
X043507Y011379D01*
X043487Y011387D01*
X043469Y011399D01*
X043454Y011413D01*
X043442Y011430D01*
X043433Y011450D01*
X043427Y011470D01*
X043425Y011491D01*
X052450Y012643D02*
X052452Y012674D01*
X052458Y012704D01*
X052467Y012734D01*
X052480Y012762D01*
X052497Y012788D01*
X052517Y012811D01*
X052539Y012833D01*
X052564Y012851D01*
X052591Y012866D01*
X052620Y012877D01*
X052650Y012885D01*
X052681Y012889D01*
X052711Y012889D01*
X052742Y012885D01*
X052772Y012877D01*
X052801Y012866D01*
X052828Y012851D01*
X052853Y012833D01*
X052875Y012811D01*
X052895Y012788D01*
X052912Y012762D01*
X052925Y012734D01*
X052934Y012704D01*
X052940Y012674D01*
X052942Y012643D01*
X052940Y012612D01*
X052934Y012582D01*
X052925Y012552D01*
X052912Y012524D01*
X052895Y012498D01*
X052875Y012475D01*
X052853Y012453D01*
X052828Y012435D01*
X052801Y012420D01*
X052772Y012409D01*
X052742Y012401D01*
X052711Y012397D01*
X052681Y012397D01*
X052650Y012401D01*
X052620Y012409D01*
X052591Y012420D01*
X052564Y012435D01*
X052539Y012453D01*
X052517Y012475D01*
X052497Y012498D01*
X052480Y012524D01*
X052467Y012552D01*
X052458Y012582D01*
X052452Y012612D01*
X052450Y012643D01*
X055600Y012643D02*
X055602Y012674D01*
X055608Y012704D01*
X055617Y012734D01*
X055630Y012762D01*
X055647Y012788D01*
X055667Y012811D01*
X055689Y012833D01*
X055714Y012851D01*
X055741Y012866D01*
X055770Y012877D01*
X055800Y012885D01*
X055831Y012889D01*
X055861Y012889D01*
X055892Y012885D01*
X055922Y012877D01*
X055951Y012866D01*
X055978Y012851D01*
X056003Y012833D01*
X056025Y012811D01*
X056045Y012788D01*
X056062Y012762D01*
X056075Y012734D01*
X056084Y012704D01*
X056090Y012674D01*
X056092Y012643D01*
X056090Y012612D01*
X056084Y012582D01*
X056075Y012552D01*
X056062Y012524D01*
X056045Y012498D01*
X056025Y012475D01*
X056003Y012453D01*
X055978Y012435D01*
X055951Y012420D01*
X055922Y012409D01*
X055892Y012401D01*
X055861Y012397D01*
X055831Y012397D01*
X055800Y012401D01*
X055770Y012409D01*
X055741Y012420D01*
X055714Y012435D01*
X055689Y012453D01*
X055667Y012475D01*
X055647Y012498D01*
X055630Y012524D01*
X055617Y012552D01*
X055608Y012582D01*
X055602Y012612D01*
X055600Y012643D01*
X059318Y012821D02*
X059320Y012871D01*
X059326Y012921D01*
X059336Y012971D01*
X059349Y013019D01*
X059366Y013067D01*
X059387Y013113D01*
X059411Y013157D01*
X059439Y013199D01*
X059470Y013239D01*
X059504Y013276D01*
X059541Y013311D01*
X059580Y013342D01*
X059621Y013371D01*
X059665Y013396D01*
X059711Y013418D01*
X059758Y013436D01*
X059806Y013450D01*
X059855Y013461D01*
X059905Y013468D01*
X059955Y013471D01*
X060006Y013470D01*
X060056Y013465D01*
X060106Y013456D01*
X060154Y013444D01*
X060202Y013427D01*
X060248Y013407D01*
X060293Y013384D01*
X060336Y013357D01*
X060376Y013327D01*
X060414Y013294D01*
X060449Y013258D01*
X060482Y013219D01*
X060511Y013178D01*
X060537Y013135D01*
X060560Y013090D01*
X060579Y013043D01*
X060594Y012995D01*
X060606Y012946D01*
X060614Y012896D01*
X060618Y012846D01*
X060618Y012796D01*
X060614Y012746D01*
X060606Y012696D01*
X060594Y012647D01*
X060579Y012599D01*
X060560Y012552D01*
X060537Y012507D01*
X060511Y012464D01*
X060482Y012423D01*
X060449Y012384D01*
X060414Y012348D01*
X060376Y012315D01*
X060336Y012285D01*
X060293Y012258D01*
X060248Y012235D01*
X060202Y012215D01*
X060154Y012198D01*
X060106Y012186D01*
X060056Y012177D01*
X060006Y012172D01*
X059955Y012171D01*
X059905Y012174D01*
X059855Y012181D01*
X059806Y012192D01*
X059758Y012206D01*
X059711Y012224D01*
X059665Y012246D01*
X059621Y012271D01*
X059580Y012300D01*
X059541Y012331D01*
X059504Y012366D01*
X059470Y012403D01*
X059439Y012443D01*
X059411Y012485D01*
X059387Y012529D01*
X059366Y012575D01*
X059349Y012623D01*
X059336Y012671D01*
X059326Y012721D01*
X059320Y012771D01*
X059318Y012821D01*
X030972Y012821D02*
X030974Y012871D01*
X030980Y012921D01*
X030990Y012971D01*
X031003Y013019D01*
X031020Y013067D01*
X031041Y013113D01*
X031065Y013157D01*
X031093Y013199D01*
X031124Y013239D01*
X031158Y013276D01*
X031195Y013311D01*
X031234Y013342D01*
X031275Y013371D01*
X031319Y013396D01*
X031365Y013418D01*
X031412Y013436D01*
X031460Y013450D01*
X031509Y013461D01*
X031559Y013468D01*
X031609Y013471D01*
X031660Y013470D01*
X031710Y013465D01*
X031760Y013456D01*
X031808Y013444D01*
X031856Y013427D01*
X031902Y013407D01*
X031947Y013384D01*
X031990Y013357D01*
X032030Y013327D01*
X032068Y013294D01*
X032103Y013258D01*
X032136Y013219D01*
X032165Y013178D01*
X032191Y013135D01*
X032214Y013090D01*
X032233Y013043D01*
X032248Y012995D01*
X032260Y012946D01*
X032268Y012896D01*
X032272Y012846D01*
X032272Y012796D01*
X032268Y012746D01*
X032260Y012696D01*
X032248Y012647D01*
X032233Y012599D01*
X032214Y012552D01*
X032191Y012507D01*
X032165Y012464D01*
X032136Y012423D01*
X032103Y012384D01*
X032068Y012348D01*
X032030Y012315D01*
X031990Y012285D01*
X031947Y012258D01*
X031902Y012235D01*
X031856Y012215D01*
X031808Y012198D01*
X031760Y012186D01*
X031710Y012177D01*
X031660Y012172D01*
X031609Y012171D01*
X031559Y012174D01*
X031509Y012181D01*
X031460Y012192D01*
X031412Y012206D01*
X031365Y012224D01*
X031319Y012246D01*
X031275Y012271D01*
X031234Y012300D01*
X031195Y012331D01*
X031158Y012366D01*
X031124Y012403D01*
X031093Y012443D01*
X031065Y012485D01*
X031041Y012529D01*
X031020Y012575D01*
X031003Y012623D01*
X030990Y012671D01*
X030980Y012721D01*
X030974Y012771D01*
X030972Y012821D01*
X002625Y012821D02*
X002627Y012871D01*
X002633Y012921D01*
X002643Y012971D01*
X002656Y013019D01*
X002673Y013067D01*
X002694Y013113D01*
X002718Y013157D01*
X002746Y013199D01*
X002777Y013239D01*
X002811Y013276D01*
X002848Y013311D01*
X002887Y013342D01*
X002928Y013371D01*
X002972Y013396D01*
X003018Y013418D01*
X003065Y013436D01*
X003113Y013450D01*
X003162Y013461D01*
X003212Y013468D01*
X003262Y013471D01*
X003313Y013470D01*
X003363Y013465D01*
X003413Y013456D01*
X003461Y013444D01*
X003509Y013427D01*
X003555Y013407D01*
X003600Y013384D01*
X003643Y013357D01*
X003683Y013327D01*
X003721Y013294D01*
X003756Y013258D01*
X003789Y013219D01*
X003818Y013178D01*
X003844Y013135D01*
X003867Y013090D01*
X003886Y013043D01*
X003901Y012995D01*
X003913Y012946D01*
X003921Y012896D01*
X003925Y012846D01*
X003925Y012796D01*
X003921Y012746D01*
X003913Y012696D01*
X003901Y012647D01*
X003886Y012599D01*
X003867Y012552D01*
X003844Y012507D01*
X003818Y012464D01*
X003789Y012423D01*
X003756Y012384D01*
X003721Y012348D01*
X003683Y012315D01*
X003643Y012285D01*
X003600Y012258D01*
X003555Y012235D01*
X003509Y012215D01*
X003461Y012198D01*
X003413Y012186D01*
X003363Y012177D01*
X003313Y012172D01*
X003262Y012171D01*
X003212Y012174D01*
X003162Y012181D01*
X003113Y012192D01*
X003065Y012206D01*
X003018Y012224D01*
X002972Y012246D01*
X002928Y012271D01*
X002887Y012300D01*
X002848Y012331D01*
X002811Y012366D01*
X002777Y012403D01*
X002746Y012443D01*
X002718Y012485D01*
X002694Y012529D01*
X002673Y012575D01*
X002656Y012623D01*
X002643Y012671D01*
X002633Y012721D01*
X002627Y012771D01*
X002625Y012821D01*
X002625Y040380D02*
X002627Y040430D01*
X002633Y040480D01*
X002643Y040530D01*
X002656Y040578D01*
X002673Y040626D01*
X002694Y040672D01*
X002718Y040716D01*
X002746Y040758D01*
X002777Y040798D01*
X002811Y040835D01*
X002848Y040870D01*
X002887Y040901D01*
X002928Y040930D01*
X002972Y040955D01*
X003018Y040977D01*
X003065Y040995D01*
X003113Y041009D01*
X003162Y041020D01*
X003212Y041027D01*
X003262Y041030D01*
X003313Y041029D01*
X003363Y041024D01*
X003413Y041015D01*
X003461Y041003D01*
X003509Y040986D01*
X003555Y040966D01*
X003600Y040943D01*
X003643Y040916D01*
X003683Y040886D01*
X003721Y040853D01*
X003756Y040817D01*
X003789Y040778D01*
X003818Y040737D01*
X003844Y040694D01*
X003867Y040649D01*
X003886Y040602D01*
X003901Y040554D01*
X003913Y040505D01*
X003921Y040455D01*
X003925Y040405D01*
X003925Y040355D01*
X003921Y040305D01*
X003913Y040255D01*
X003901Y040206D01*
X003886Y040158D01*
X003867Y040111D01*
X003844Y040066D01*
X003818Y040023D01*
X003789Y039982D01*
X003756Y039943D01*
X003721Y039907D01*
X003683Y039874D01*
X003643Y039844D01*
X003600Y039817D01*
X003555Y039794D01*
X003509Y039774D01*
X003461Y039757D01*
X003413Y039745D01*
X003363Y039736D01*
X003313Y039731D01*
X003262Y039730D01*
X003212Y039733D01*
X003162Y039740D01*
X003113Y039751D01*
X003065Y039765D01*
X003018Y039783D01*
X002972Y039805D01*
X002928Y039830D01*
X002887Y039859D01*
X002848Y039890D01*
X002811Y039925D01*
X002777Y039962D01*
X002746Y040002D01*
X002718Y040044D01*
X002694Y040088D01*
X002673Y040134D01*
X002656Y040182D01*
X002643Y040230D01*
X002633Y040280D01*
X002627Y040330D01*
X002625Y040380D01*
D13*
X043544Y013460D02*
X043544Y013150D01*
X043544Y011960D02*
X043544Y011490D01*
X046944Y011490D02*
X046944Y011960D01*
X046944Y013150D02*
X046944Y013460D01*
M02*
