%
M48
M72
T01C0.0236
T02C0.0256
T03C0.0394
T04C0.0400
T05C0.0492
T06C0.0591
T07C0.0984
T08C0.1299
%
T01
X27346Y12182
X31956Y17342
X33236Y19832
X28126Y21852
X27126Y19842
X26126Y18852
X25006Y23252
X25576Y24002
X28626Y25352
X27266Y29122
X27976Y32122
X27856Y34642
X24236Y34532
X24126Y32352
X20526Y37142
X21356Y37622
X20506Y39352
X20496Y39352
X22426Y39352
X24126Y39352
X26876Y39102
X21456Y41622
X17126Y37852
X17836Y37142
X14437Y37541
X12816Y37542
X15016Y39352
X15126Y41622
X10596Y39352
X7796Y37528
X5503Y39352
X33626Y37852
X45156Y29592
X51936Y27609
X51936Y24176
X46166Y21152
X44324Y23658
X40376Y19602
X43575Y16859
X45226Y16732
X46826Y16558
X46991Y17256
X47775Y16159
X46126Y15352
X46316Y14402
X45236Y14502
X44286Y15532
X43356Y14352
X43543Y13460
X43543Y13150
X43543Y11960
X43543Y11491
X46944Y11490
X46944Y11960
X46944Y13150
X46944Y13460
X51556Y17582
X52246Y18082
X53336Y17582
X54186Y18022
X54187Y18992
X55058Y18992
T02
X46381Y13150
X44106Y13150
T03
X42876Y20602
X42876Y21602
X42876Y22602
X42876Y23602
X42876Y24602
X42876Y25602
X42876Y26602
X42876Y27602
X42876Y28602
X42876Y29602
X42876Y30602
X42876Y31602
X42876Y32602
X42876Y33602
X42876Y34602
X42876Y35602
X42876Y36602
X42876Y37602
X42876Y38602
X42876Y39602
X42876Y40602
X42876Y41602
X41376Y41602
X41376Y40602
X41376Y39602
X41376Y38602
X41376Y37602
X41376Y36602
X41376Y35602
X41376Y34602
X41376Y33602
X41376Y32602
X41376Y31602
X41376Y30602
X41376Y29602
X41376Y28602
X41376Y27602
X41376Y26602
X41376Y25602
X41376Y24602
X41376Y23602
X41376Y22602
X41376Y21602
X41376Y20602
X31376Y20602
X31376Y21602
X31376Y22602
X31376Y23602
X29876Y23602
X29876Y22602
X29876Y21602
X29876Y20602
X29876Y24602
X29876Y25602
X29876Y26602
X29876Y27602
X31376Y27602
X31376Y26602
X31376Y25602
X31376Y24602
X31376Y28602
X31376Y29602
X31376Y30602
X31376Y31602
X29876Y31602
X29876Y30602
X29876Y29602
X29876Y28602
X29876Y32602
X29876Y33602
X29876Y34602
X29876Y35602
X29876Y36602
X31376Y36602
X31376Y35602
X31376Y34602
X31376Y33602
X31376Y32602
X31376Y37602
X31376Y38602
X31376Y39602
X31376Y40602
X29876Y40602
X29876Y39602
X29876Y38602
X29876Y37602
X29876Y41602
X31376Y41602
X23035Y25988
X23035Y24988
X23035Y23988
X23035Y22988
X23035Y21988
X23035Y20988
X20476Y20693
X19476Y20693
X18476Y20693
X17476Y20693
X16476Y20693
X15476Y20693
X14476Y20693
X13476Y20693
X12476Y20693
T04
X12472Y18332
X13472Y18332
X14472Y18332
X26618Y31101
X26618Y32101
X26618Y33101
X26618Y34101
X26618Y35101
X26133Y40380
X25133Y40380
X24133Y40380
X23133Y40380
X22133Y40380
X19834Y40380
X18834Y40380
X17834Y40380
X16834Y40380
X15834Y40380
X13441Y40380
X12441Y40380
X11441Y40380
X8980Y40380
X7980Y40380
X6980Y40380
X5980Y40380
X38416Y17852
X39416Y17852
X39416Y13632
X38416Y13632
X49096Y13702
X49096Y12702
X49096Y14702
X49096Y15702
X49096Y16702
X49096Y17702
X47126Y23602
X47126Y24602
X47126Y25602
X47126Y26602
X47126Y27602
X47126Y28602
X47126Y30602
X47126Y31602
X47126Y32602
X47126Y33602
X47126Y34602
X47126Y35602
X47126Y36602
T05
X52696Y12643
X55846Y12643
T06
X16267Y14726
X10756Y14726
T07
X10756Y11726
X12956Y14726
X14067Y14726
X16267Y11726
X18467Y14726
X8556Y14726
T08
X3275Y12821
X31622Y12821
X59968Y12821
X59968Y40380
X3275Y40380
M30
